<svg width="112" height="109" viewBox="0 0 112 109" fill="none" xmlns="http://www.w3.org/2000/svg">
<path d="M24.0785 6.79595L24.0785 6.79594C16.2946 3.6651 8.04046 10.1346 9.22094 18.4409L9.22094 18.441L11.3774 33.6145C6.91414 41.0808 4.55466 49.7697 5.06973 58.9268C6.553 85.2968 30.9451 104.624 58.6439 103.066C86.3427 101.508 108.414 79.5673 106.93 53.1973C106.597 47.2746 105.09 41.6716 102.632 36.5757L106.504 22.4404C108.721 14.3485 101.347 6.8917 93.2308 9.01774L94.3655 13.3495L93.2308 9.01775L77.453 13.151C70.14 10.0768 61.9278 8.57598 53.3561 9.05812C47.8428 9.36823 42.5684 10.4769 37.6638 12.2604L24.0785 6.79595Z" fill="white" stroke="#CBEFBF" stroke-width="10"/>
<path d="M28.28 63.9232C46.8203 62.8804 61.0048 47.0051 59.962 28.4648C59.6659 23.2007 58.1741 18.2878 55.7651 13.9748C55.0589 13.9851 54.3494 14.0102 53.6369 14.0502C47.9484 14.3702 42.5546 15.6221 37.6239 17.6336L22.2126 11.4348C17.9997 9.74024 13.5323 13.2418 14.1712 17.7374L16.5845 34.718C12.0094 41.7012 9.57249 49.9461 10.0618 58.646C10.0835 59.0304 10.1107 59.4133 10.1434 59.7947C15.4964 62.7555 21.7215 64.2921 28.28 63.9232Z" fill="#FFB800"/>
<path d="M30.8151 42.4129C30.7931 41.5469 31.4773 40.8271 32.3433 40.8051L44.4394 40.4981C45.3054 40.4761 46.0252 41.1603 46.0472 42.0263C46.0691 42.8923 45.3849 43.6121 44.519 43.6341L32.4229 43.9411C31.5569 43.9631 30.8371 43.2789 30.8151 42.4129Z" fill="black"/>
<path d="M69.5812 42.3107C69.6784 41.4499 70.4551 40.8309 71.3159 40.9282L83.3393 42.2868C84.2001 42.384 84.8191 43.1607 84.7218 44.0215C84.6245 44.8822 83.8479 45.5012 82.9871 45.4039L70.9637 44.0454C70.1029 43.9481 69.4839 43.1715 69.5812 42.3107Z" fill="black"/>
<path d="M51.8833 47.8495C51.8904 46.612 52.8993 45.6146 54.1368 45.6216L61.7552 45.6651C62.9927 45.6722 63.9902 46.6811 63.9831 47.9186L63.9793 48.5908C63.9602 51.9321 61.2361 54.6252 57.8948 54.6062C54.5536 54.5871 51.8604 51.863 51.8795 48.5217L51.8833 47.8495Z" fill="#C25757"/>
</svg>
