<svg width="32" height="32" viewBox="0 0 32 32" fill="none" xmlns="http://www.w3.org/2000/svg">
<path d="M6.25866 6.96112C6.51128 4.83002 6.63758 3.76447 7.14861 2.96409C7.57997 2.28849 8.19901 1.74776 8.93294 1.40549C9.80244 1 10.896 1 13.0831 1H17.9169C20.104 1 21.1976 1 22.0671 1.40549C22.801 1.74776 23.42 2.28849 23.8514 2.96409C24.3624 3.76447 24.4887 4.83002 24.7413 6.96111L26.6997 23.482C27.0112 26.1101 27.167 27.4241 26.7313 28.4388C26.3648 29.2924 25.7201 30.0026 24.8981 30.4583C23.921 31 22.5724 31 19.8752 31H11.1248C8.42762 31 7.07904 31 6.10187 30.4583C5.2799 30.0026 4.63519 29.2924 4.26871 28.4388C3.83302 27.4241 3.98878 26.1101 4.30031 23.482L6.25866 6.96112Z" fill="#464646"/>
<path d="M11.2326 26.4651C11.2326 27.0431 10.755 27.5116 10.1658 27.5116C9.57656 27.5116 9.09892 27.0431 9.09892 26.4651C9.09892 25.8872 9.57656 25.4186 10.1658 25.4186C10.755 25.4186 11.2326 25.8872 11.2326 26.4651Z" fill="white"/>
<path d="M14.0775 22.9767C14.0775 23.5547 13.5999 24.0233 13.0107 24.0233C12.4215 24.0233 11.9438 23.5547 11.9438 22.9767C11.9438 22.3988 12.4215 21.9302 13.0107 21.9302C13.5999 21.9302 14.0775 22.3988 14.0775 22.9767Z" fill="white"/>
<path d="M16.9224 26.4651C16.9224 27.0431 16.4448 27.5116 15.8556 27.5116C15.2664 27.5116 14.7887 27.0431 14.7887 26.4651C14.7887 25.8872 15.2664 25.4186 15.8556 25.4186C16.4448 25.4186 16.9224 25.8872 16.9224 26.4651Z" fill="white"/>
<path d="M19.7673 22.9767C19.7673 23.5547 19.2897 24.0233 18.7005 24.0233C18.1113 24.0233 17.6336 23.5547 17.6336 22.9767C17.6336 22.3988 18.1113 21.9302 18.7005 21.9302C19.2897 21.9302 19.7673 22.3988 19.7673 22.9767Z" fill="white"/>
<path d="M22.6122 26.4651C22.6122 27.0431 22.1346 27.5116 21.5454 27.5116C20.9562 27.5116 20.4785 27.0431 20.4785 26.4651C20.4785 25.8872 20.9562 25.4186 21.5454 25.4186C22.1346 25.4186 22.6122 25.8872 22.6122 26.4651Z" fill="white"/>
<path d="M24.779 7.27907H15.5H6.22093L6.25866 6.96112C6.51128 4.83002 6.63758 3.76447 7.14861 2.96409C7.57997 2.28849 8.19901 1.74776 8.93294 1.40549C9.80244 1 10.896 1 13.0831 1H17.9169C20.104 1 21.1976 1 22.0671 1.40549C22.801 1.74776 23.42 2.28849 23.8514 2.96409C24.3624 3.76447 24.4887 4.83002 24.7413 6.96111L24.779 7.27907Z" fill="#464646"/>
</svg>
