<svg width="27" height="28" viewBox="0 0 27 28" fill="none" xmlns="http://www.w3.org/2000/svg">
<path d="M5.44014 6.14649C5.65128 4.36527 5.75686 3.47466 6.18398 2.80569C6.54452 2.24101 7.06193 1.78906 7.67536 1.50298C8.4021 1.16406 9.31613 1.16406 11.1442 1.16406H15.1843C17.0124 1.16406 17.9264 1.16406 18.6531 1.50298C19.2666 1.78906 19.784 2.24101 20.1445 2.80569C20.5716 3.47466 20.6772 4.36527 20.8884 6.14648L22.5252 19.955C22.7856 22.1516 22.9158 23.2499 22.5516 24.098C22.2453 24.8114 21.7064 25.405 21.0194 25.7859C20.2027 26.2387 19.0755 26.2387 16.8212 26.2387H9.50734C7.253 26.2387 6.12583 26.2387 5.30909 25.7859C4.62207 25.405 4.08322 24.8114 3.7769 24.098C3.41274 23.2499 3.54293 22.1516 3.80331 19.955L5.44014 6.14649Z" fill="#464646"/>
<path d="M9.59747 22.4483C9.59747 22.9314 9.19825 23.323 8.70578 23.323C8.21331 23.323 7.81409 22.9314 7.81409 22.4483C7.81409 21.9653 8.21331 21.5737 8.70578 21.5737C9.19825 21.5737 9.59747 21.9653 9.59747 22.4483Z" fill="white"/>
<path d="M11.9753 19.5327C11.9753 20.0158 11.5761 20.4074 11.0836 20.4074C10.5911 20.4074 10.1919 20.0158 10.1919 19.5327C10.1919 19.0496 10.5911 18.658 11.0836 18.658C11.5761 18.658 11.9753 19.0496 11.9753 19.5327Z" fill="white"/>
<path d="M14.3531 22.4483C14.3531 22.9314 13.9539 23.323 13.4614 23.323C12.969 23.323 12.5698 22.9314 12.5698 22.4483C12.5698 21.9653 12.969 21.5737 13.4614 21.5737C13.9539 21.5737 14.3531 21.9653 14.3531 22.4483Z" fill="white"/>
<path d="M16.731 19.5327C16.731 20.0158 16.3317 20.4074 15.8393 20.4074C15.3468 20.4074 14.9476 20.0158 14.9476 19.5327C14.9476 19.0496 15.3468 18.658 15.8393 18.658C16.3317 18.658 16.731 19.0496 16.731 19.5327Z" fill="white"/>
<path d="M19.1088 22.4483C19.1088 22.9314 18.7096 23.323 18.2171 23.323C17.7246 23.323 17.3254 22.9314 17.3254 22.4483C17.3254 21.9653 17.7246 21.5737 18.2171 21.5737C18.7096 21.5737 19.1088 21.9653 19.1088 22.4483Z" fill="white"/>
<path d="M20.9198 6.41224H13.1642H5.40861L5.44014 6.14649C5.65128 4.36527 5.75686 3.47466 6.18398 2.80569C6.54452 2.24101 7.06193 1.78906 7.67536 1.50298C8.4021 1.16406 9.31613 1.16406 11.1442 1.16406H15.1843C17.0124 1.16406 17.9264 1.16406 18.6531 1.50298C19.2666 1.78906 19.784 2.24101 20.1445 2.80569C20.5716 3.47466 20.6772 4.36527 20.8884 6.14648L20.9198 6.41224Z" fill="#464646"/>
</svg>
