<svg width="78" height="78" viewBox="0 0 78 78" fill="none" xmlns="http://www.w3.org/2000/svg">
<path d="M39.0019 75C58.8833 75 75.0001 58.8821 75.0001 39C75.0001 19.1179 58.8833 3 39.0019 3C19.1205 3 3.00366 19.1179 3.00366 39C3.00366 58.8821 19.1205 75 39.0019 75Z" fill="white" stroke="#709A69" stroke-width="6"/>
<path fill-rule="evenodd" clip-rule="evenodd" d="M38.9963 72C57.2017 72 71.9639 57.2578 71.9963 39.06V38.9399C71.9801 29.857 68.2944 21.6349 62.3425 15.6771C60.4091 15.877 58.2039 16 55.7426 16C49.7602 16 44.8242 14.1399 39.7484 12.2271C35.6415 10.6794 31.443 9.09726 26.5248 8.43799C14.4821 13.3573 5.99634 25.1877 5.99634 39C5.99634 57.2254 20.7709 72 38.9963 72Z" fill="#CBEFBF"/>
<path d="M31.7445 46.1258C28.8155 43.1969 28.5894 38.6743 31.2394 36.0243L35.078 32.1857C37.728 29.5358 42.2506 29.7619 45.1795 32.6908C48.1084 35.6198 48.3346 40.1424 45.6846 42.7923L41.846 46.6309C39.196 49.2809 34.6734 49.0548 31.7445 46.1258Z" fill="#5D80DB"/>
<path fill-rule="evenodd" clip-rule="evenodd" d="M27.0012 44.2618C27.9498 44.1613 28.8161 44.7589 29.2674 45.5994C29.6627 46.3354 30.1724 47.0287 30.7961 47.6524C31.4198 48.276 32.1131 48.7857 32.8491 49.181C33.6895 49.6323 34.2872 50.4986 34.1866 51.4472L33.9552 53.6297C33.7779 55.302 31.7413 56.0222 30.5521 54.8331L23.6154 47.8963C22.4262 46.7071 23.1464 44.6705 24.8187 44.4932L27.0012 44.2618Z" fill="#5D80DB"/>
<path fill-rule="evenodd" clip-rule="evenodd" d="M43.1323 28.131C43.0317 29.0796 43.6294 29.9459 44.4698 30.3972C45.2058 30.7924 45.8991 31.3021 46.5228 31.9258C47.1465 32.5495 47.6562 33.2428 48.0514 33.9788C48.5028 34.8192 49.369 35.4169 50.3176 35.3163L52.5002 35.0849C54.1725 34.9076 54.8927 32.871 53.7035 31.6819L46.7667 24.7451C45.5776 23.556 43.541 24.2761 43.3637 25.9485L43.1323 28.131Z" fill="#5D80DB"/>
</svg>
