<svg width="296" height="45" viewBox="0 0 296 45" fill="none" xmlns="http://www.w3.org/2000/svg">
<rect x="0.180664" y="11" width="285.819" height="25" rx="12.5" fill="white"/>
<rect x="248" y="11" width="1" height="25" fill="black" fill-opacity="0.2"/>
<rect y="11" width="269" height="25" rx="12.5" fill="#FF4040"/>
<mask id="path-4-outside-1_520_10784" maskUnits="userSpaceOnUse" x="245.329" y="0.683105" width="51" height="45" fill="black">
<rect fill="white" x="245.329" y="0.683105" width="51" height="45"/>
<path fill-rule="evenodd" clip-rule="evenodd" d="M289.696 22.0193C290.352 31.7314 282.274 40.1857 271.654 40.9025C261.481 41.5892 252.665 34.9261 251.366 25.8267C251.309 25.4274 251.266 25.0233 251.238 24.615L251.238 24.6149L251.238 24.6149C251.179 23.7393 251.191 22.874 251.27 22.0236C251.4 20.6063 251.715 19.2305 252.194 17.9183L251.969 17.8064C250.405 17.0268 249.476 15.7994 249.345 14.721C249.242 13.8789 249.627 13.1276 250.577 12.7512L258.551 9.59194C261.238 7.62318 264.513 6.28369 268.119 5.84183L268.119 5.84188C268.503 5.79492 268.89 5.75809 269.28 5.73173C274.272 5.3948 278.937 6.82752 282.548 9.44938C282.6 9.46379 282.651 9.47971 282.702 9.49723L290.456 12.1601C292.505 12.8641 292.382 15.5704 290.233 17.0314L288.891 17.9444C289.325 19.2397 289.601 20.6038 289.696 22.0193Z"/>
</mask>
<path fill-rule="evenodd" clip-rule="evenodd" d="M289.696 22.0193C290.352 31.7314 282.274 40.1857 271.654 40.9025C261.481 41.5892 252.665 34.9261 251.366 25.8267C251.309 25.4274 251.266 25.0233 251.238 24.615L251.238 24.6149L251.238 24.6149C251.179 23.7393 251.191 22.874 251.27 22.0236C251.4 20.6063 251.715 19.2305 252.194 17.9183L251.969 17.8064C250.405 17.0268 249.476 15.7994 249.345 14.721C249.242 13.8789 249.627 13.1276 250.577 12.7512L258.551 9.59194C261.238 7.62318 264.513 6.28369 268.119 5.84183L268.119 5.84188C268.503 5.79492 268.89 5.75809 269.28 5.73173C274.272 5.3948 278.937 6.82752 282.548 9.44938C282.6 9.46379 282.651 9.47971 282.702 9.49723L290.456 12.1601C292.505 12.8641 292.382 15.5704 290.233 17.0314L288.891 17.9444C289.325 19.2397 289.601 20.6038 289.696 22.0193Z" fill="black"/>
<path d="M271.654 40.9025L271.385 36.9116L271.654 40.9025ZM289.696 22.0193L285.705 22.2886L285.705 22.2886L289.696 22.0193ZM251.366 25.8267L247.406 26.3923L247.406 26.3923L251.366 25.8267ZM251.238 24.615L255.229 24.3456L255.222 24.2319L255.208 24.1188L251.238 24.615ZM251.238 24.6149L247.246 24.3654L247.223 24.7393L247.269 25.1111L251.238 24.6149ZM251.238 24.6149L255.231 24.8644L255.247 24.6049L255.229 24.3455L251.238 24.6149ZM251.27 22.0236L255.253 22.3905L255.253 22.3905L251.27 22.0236ZM252.194 17.9183L255.952 19.2892L257.176 15.9326L253.979 14.3385L252.194 17.9183ZM251.969 17.8064L253.754 14.2266L253.754 14.2264L251.969 17.8064ZM249.345 14.721L253.315 14.2387L253.315 14.2386L249.345 14.721ZM250.577 12.7512L252.05 16.4699L252.05 16.4699L250.577 12.7512ZM258.551 9.59194L260.024 13.3107L260.501 13.1217L260.915 12.8186L258.551 9.59194ZM268.119 5.84183L270.993 3.05976L269.609 1.62944L267.633 1.87152L268.119 5.84183ZM268.119 5.84188L265.245 8.62396L266.63 10.0543L268.606 9.8122L268.119 5.84188ZM269.28 5.73173L269.011 1.74081L269.28 5.73173ZM282.548 9.44938L280.198 12.686L280.781 13.1094L281.475 13.3027L282.548 9.44938ZM282.702 9.49723L281.402 13.2801L281.403 13.2803L282.702 9.49723ZM290.456 12.1601L291.755 8.37697L291.755 8.37696L290.456 12.1601ZM290.233 17.0314L292.482 20.3391L290.233 17.0314ZM288.891 17.9444L286.641 14.6367L284.134 16.3414L285.098 19.2159L288.891 17.9444ZM271.924 44.8934C284.404 44.051 294.514 33.9943 293.687 21.7499L285.705 22.2886C286.19 29.4685 280.144 36.3204 271.385 36.9116L271.924 44.8934ZM247.406 26.3923C249.041 37.841 259.952 45.7014 271.924 44.8934L271.385 36.9116C263.01 37.4769 256.29 32.0113 255.325 25.2612L247.406 26.3923ZM247.248 24.8843C247.282 25.3919 247.335 25.8947 247.406 26.3923L255.325 25.2612C255.282 24.96 255.25 24.6547 255.229 24.3456L247.248 24.8843ZM247.269 25.1111L247.269 25.1111L255.208 24.1188L255.208 24.1188L247.269 25.1111ZM247.246 24.3654L247.246 24.3654L255.231 24.8644L255.231 24.8644L247.246 24.3654ZM247.286 21.6567C247.189 22.7175 247.174 23.7956 247.248 24.8842L255.229 24.3455C255.185 23.683 255.194 23.0305 255.253 22.3905L247.286 21.6567ZM248.436 16.5475C247.842 18.1753 247.449 19.8881 247.286 21.6567L255.253 22.3905C255.351 21.3245 255.588 20.2858 255.952 19.2892L248.436 16.5475ZM250.185 21.3862L250.409 21.4981L253.979 14.3385L253.754 14.2266L250.185 21.3862ZM245.374 15.2034C245.718 18.0336 247.85 20.2228 250.185 21.3864L253.754 14.2264C253.43 14.0652 253.264 13.9022 253.206 13.8317C253.179 13.7981 253.19 13.8031 253.215 13.8583C253.24 13.9121 253.291 14.0393 253.315 14.2387L245.374 15.2034ZM249.104 9.03241C247.935 9.49551 246.847 10.3067 246.128 11.5179C245.412 12.7224 245.232 14.0333 245.374 15.2035L253.315 14.2386C253.355 14.5666 253.316 15.0808 253.005 15.6049C252.689 16.1359 252.269 16.3832 252.05 16.4699L249.104 9.03241ZM257.077 5.87319L249.104 9.03243L252.05 16.4699L260.024 13.3107L257.077 5.87319ZM267.633 1.87152C263.346 2.3967 259.425 3.99271 256.187 6.36529L260.915 12.8186C263.051 11.2537 265.679 10.1707 268.606 9.81215L267.633 1.87152ZM270.993 3.05981L270.993 3.05976L265.245 8.62391L265.245 8.62396L270.993 3.05981ZM269.011 1.74081C268.548 1.77207 268.088 1.81576 267.633 1.87157L268.606 9.8122C268.917 9.77407 269.232 9.74411 269.55 9.72265L269.011 1.74081ZM284.898 6.21273C280.527 3.03826 274.934 1.34105 269.011 1.74081L269.55 9.72265C273.611 9.44855 277.348 10.6168 280.198 12.686L284.898 6.21273ZM284.002 5.71436C283.875 5.67056 283.748 5.63124 283.621 5.59606L281.475 13.3027C281.452 13.2963 281.428 13.2889 281.402 13.2801L284.002 5.71436ZM291.755 8.37696L284.001 5.71412L281.403 13.2803L289.156 15.9432L291.755 8.37696ZM292.482 20.3391C294.445 19.0043 295.806 16.8745 295.915 14.4943C296.032 11.9265 294.6 9.35411 291.755 8.37697L289.156 15.9432C288.88 15.8482 288.506 15.6125 288.23 15.1864C287.968 14.7816 287.911 14.387 287.923 14.1294C287.945 13.6436 288.17 13.5975 287.984 13.7237L292.482 20.3391ZM291.14 21.2521L292.482 20.3391L287.984 13.7237L286.641 14.6367L291.14 21.2521ZM293.687 21.7499C293.568 19.9889 293.225 18.2882 292.683 16.6728L285.098 19.2159C285.425 20.1912 285.633 21.2187 285.705 22.2886L293.687 21.7499Z" fill="#AA6767" mask="url(#path-4-outside-1_520_10784)"/>
<path d="M289.696 22.0189C290.352 31.731 282.274 40.1854 271.654 40.9021C261.034 41.6189 251.894 34.3268 251.238 24.6146C251.081 22.2797 251.428 20.0175 252.194 17.918L251.969 17.806C249.184 16.4177 248.41 13.6092 250.577 12.7509L258.551 9.59163C261.523 7.41359 265.216 6.00571 269.28 5.73137C274.272 5.39443 278.937 6.82716 282.548 9.44902C282.6 9.46342 282.651 9.47935 282.702 9.49686L290.456 12.1597C292.505 12.8637 292.382 15.57 290.233 17.031L288.891 17.944C289.325 19.2393 289.601 20.6034 289.696 22.0189Z" fill="white"/>
<path fill-rule="evenodd" clip-rule="evenodd" d="M268.119 5.84171C271.908 9.69629 273.05 15.6678 270.534 20.7952C267.347 27.2889 259.5 29.9698 253.006 26.7831C252.429 26.4997 251.881 26.1795 251.366 25.8266C251.309 25.4272 251.266 25.0232 251.238 24.6148C251.081 22.2799 251.428 20.0177 252.194 17.9182L251.969 17.8062C249.184 16.4179 248.41 13.6094 250.577 12.7511L258.551 9.59181C261.238 7.62306 264.513 6.28357 268.119 5.84171Z" fill="#FFB800"/>
<path d="M277.706 16.1496C277.182 16.2858 276.641 16.8656 277.032 17.2813C277.316 17.5836 277.618 17.4424 277.81 17.2618C278.002 17.0811 278.224 17.0861 278.399 17.349C278.574 17.6119 278.304 17.8648 277.887 18.1144C277.471 18.364 276.811 18.2012 276.387 17.6738C275.964 17.1463 276.064 16.4827 276.413 16.0835C276.762 15.6844 277.519 15.2575 278.146 15.3085C278.773 15.3596 279.43 15.5963 279.957 16.3111C280.484 17.0258 280.337 17.9474 280.056 18.496C279.776 19.0447 279.498 19.5194 279.747 19.7839C279.995 20.0485 280.439 20.0584 281.036 18.999C281.633 17.9395 281.395 16.4543 280.729 15.5145C280.062 14.5746 278.461 13.8728 277.033 14.4327C275.604 14.9925 275.238 15.8352 275.085 16.9047C274.932 17.9741 275.752 18.7694 276.699 19.1606C277.646 19.5518 278.702 19.0576 279.284 18.3677C279.866 17.6779 279.419 16.8169 279.135 16.5146C278.851 16.2123 278.229 16.0133 277.706 16.1496Z" fill="black"/>
<path d="M263.218 16.4825C263.754 16.5582 264.357 17.0725 264.016 17.5301C263.768 17.8628 263.453 17.7569 263.241 17.5993C263.03 17.4418 262.81 17.472 262.666 17.7531C262.522 18.0342 262.819 18.2548 263.261 18.4553C263.704 18.6557 264.341 18.4188 264.702 17.8465C265.062 17.2743 264.887 16.6263 264.495 16.2696C264.103 15.9128 263.302 15.5749 262.685 15.6971C262.067 15.8193 261.442 16.1294 261 16.8995C260.557 17.6697 260.809 18.5685 261.15 19.0816C261.491 19.5946 261.821 20.0346 261.604 20.3258C261.388 20.6169 260.948 20.6774 260.234 19.6928C259.52 18.7083 259.587 17.2057 260.142 16.1961C260.697 15.1864 262.208 14.3067 263.691 14.7001C265.174 15.0935 265.634 15.889 265.908 16.934C266.182 17.979 265.458 18.8626 264.561 19.3592C263.665 19.8558 262.56 19.4851 261.903 18.8661C261.245 18.2471 261.592 17.3408 261.84 17.008C262.088 16.6753 262.682 16.4068 263.218 16.4825Z" fill="black"/>
<rect x="268.983" y="19.2935" width="4.28785" height="1.11754" rx="0.558768" transform="rotate(-1.75767 268.983 19.2935)" fill="black"/>
</svg>
