<svg width="153" height="153" viewBox="0 0 153 153" fill="none" xmlns="http://www.w3.org/2000/svg">
<mask id="mask0_432_526" style="mask-type:alpha" maskUnits="userSpaceOnUse" x="0" y="0" width="153" height="153">
<rect width="153" height="153" rx="16" transform="matrix(-1 0 0 1 153 0)" fill="#D9D9D9"/>
</mask>
<g mask="url(#mask0_432_526)">
<path fill-rule="evenodd" clip-rule="evenodd" d="M21.103 47.1311C22.0324 42.7087 27.4008 40.9508 30.766 43.9669L43.0765 55.0005C48.3721 54.7937 53.8429 55.4548 59.2728 57.0878C67.3315 59.5114 74.2845 63.7703 79.73 69.1909C79.9948 69.18 80.2653 69.1866 80.5403 69.2121L97.5617 70.7845C102.062 71.2002 104.424 76.3312 101.814 80.0204L92.2772 93.501C93.0965 99.0375 92.7507 104.762 91.0621 110.377C88.5905 118.595 83.5893 125.423 77.0387 130.389C82.7179 130.034 87.3609 129.427 90.3 129.043L90.3008 129.043C91.0055 128.951 91.6123 128.871 92.1118 128.811C98.8159 128.007 102.034 129.884 103.643 134.175C105.252 138.467 104.179 143.563 96.9388 146.513C89.6984 149.463 76.8266 155.9 71.1952 159.923C66.6901 163.141 65.3851 170.204 65.2957 173.333C65.2957 175.511 67.8833 174.639 71.1425 173.541C73.9287 172.602 77.2057 171.498 79.7764 171.992C83.7155 172.75 86.3706 175.134 88.4673 177.017C90.0817 178.466 91.3649 179.619 92.6482 179.502C95.4263 179.249 98.6802 174.001 100.17 171.598L100.173 171.592C100.264 171.446 100.348 171.311 100.425 171.188C101.766 169.042 106.861 162.069 113.833 165.287C120.805 168.506 122.95 180.575 110.883 205.249C100.768 225.932 85.9425 231.163 71.9343 236.105L71.9342 236.105C69.3972 237 66.887 237.886 64.4365 238.852C67.9039 240.626 72.0865 242.059 77.563 241.926C85.8031 241.727 93.0018 236.67 100.249 231.58C107.433 226.533 114.664 221.454 123.004 221.038C139.759 220.203 141.973 232.166 140.877 236.789C138.975 244.818 134.082 245.098 125.196 245.607C123.845 245.685 122.401 245.767 120.862 245.883C116.066 246.245 110.336 249.004 104.146 251.985C95.2848 256.252 85.4813 260.972 76.1235 259.765C61.2128 257.841 54.0742 254.172 47.6387 248.333C46.8676 248.866 46.0925 249.406 45.3094 249.951C37.4889 255.4 28.8613 261.411 15.2579 266.4C-8.87664 275.251 -27.3798 272.837 -29.2569 267.473C-31.1341 262.109 -29.5251 259.427 -23.6255 255.135C-21.0035 253.228 -17.6082 251.957 -14.5273 250.803C-10.6764 249.361 -7.31657 248.102 -6.57167 246.016C-6.06969 244.611 -7.00775 242.108 -8.22318 238.865C-10.2543 233.446 -13.06 225.961 -11.2145 218.075C-9.96026 212.715 -7.16477 209.128 -4.61504 205.856C-2.36756 202.972 -0.311022 200.333 0.330713 196.941C0.66737 194.079 -1.75303 189.411 -5.04784 183.057C-9.41349 174.637 -15.3143 163.257 -18.3708 149.195C-23.8965 123.772 -20.6776 98.3503 -19.075 85.6936C-18.7333 82.9946 -18.4651 80.8761 -18.3708 79.4618C-17.8345 71.4157 -13.5439 65.247 -6.57167 65.247C0.400534 65.247 3.08215 72.2203 3.35032 77.8526C3.38633 78.609 3.39816 79.4524 3.41114 80.3777V80.3781C3.42493 81.3613 3.44003 82.4368 3.4868 83.5986C6.02596 75.4747 11.0488 68.7323 17.5924 63.8349L21.103 47.1311Z" fill="#ECECEC"/>
<path fill-rule="evenodd" clip-rule="evenodd" d="M21.103 47.1311C22.0324 42.7087 27.4008 40.9508 30.766 43.9669L43.0765 55.0005C48.3721 54.7937 53.8429 55.4548 59.2728 57.0878C67.3315 59.5114 74.2845 63.7703 79.73 69.1909C79.9948 69.18 80.2653 69.1866 80.5403 69.2121L97.5617 70.7845C102.062 71.2002 104.424 76.3312 101.814 80.0204L92.2772 93.501C93.0965 99.0375 92.7507 104.762 91.0621 110.377C88.5905 118.595 83.5893 125.423 77.0387 130.389C82.7179 130.034 87.3609 129.427 90.3 129.043L90.3008 129.043C91.0055 128.951 91.6123 128.871 92.1118 128.811C98.8159 128.007 102.034 129.884 103.643 134.175C105.252 138.467 104.179 143.563 96.9388 146.513C89.6984 149.463 76.8266 155.9 71.1952 159.923C66.6901 163.141 65.3851 170.204 65.2957 173.333C65.2957 175.511 67.8833 174.639 71.1425 173.541C73.9287 172.602 77.2057 171.498 79.7764 171.992C83.7155 172.75 86.3706 175.134 88.4673 177.017C90.0817 178.466 91.3649 179.619 92.6482 179.502C95.4263 179.249 98.6802 174.001 100.17 171.598L100.173 171.592C100.264 171.446 100.348 171.311 100.425 171.188C101.766 169.042 106.861 162.069 113.833 165.287C120.805 168.506 122.95 180.575 110.883 205.249C100.768 225.932 85.9425 231.163 71.9343 236.105L71.9342 236.105C69.3972 237 66.887 237.886 64.4365 238.852C67.9039 240.626 72.0865 242.059 77.563 241.926C85.8031 241.727 93.0018 236.67 100.249 231.58C107.433 226.533 114.664 221.454 123.004 221.038C139.759 220.203 141.973 232.166 140.877 236.789C138.975 244.818 134.082 245.098 125.196 245.607C123.845 245.685 122.401 245.767 120.862 245.883C116.066 246.245 110.336 249.004 104.146 251.985C95.2848 256.252 85.4813 260.972 76.1235 259.765C61.2128 257.841 54.0742 254.172 47.6387 248.333C46.8676 248.866 46.0925 249.406 45.3094 249.951C37.4889 255.4 28.8613 261.411 15.2579 266.4C-8.87664 275.251 -27.3798 272.837 -29.2569 267.473C-31.1341 262.109 -29.5251 259.427 -23.6255 255.135C-21.0035 253.228 -17.6082 251.957 -14.5273 250.803C-10.6764 249.361 -7.31657 248.102 -6.57167 246.016C-6.06969 244.611 -7.00775 242.108 -8.22318 238.865C-10.2543 233.446 -13.06 225.961 -11.2145 218.075C-9.96026 212.715 -7.16477 209.128 -4.61504 205.856C-2.36756 202.972 -0.311022 200.333 0.330713 196.941C0.66737 194.079 -1.75303 189.411 -5.04784 183.057C-9.41349 174.637 -15.3143 163.257 -18.3708 149.195C-23.8965 123.772 -20.6776 98.3503 -19.075 85.6936C-18.7333 82.9946 -18.4651 80.8761 -18.3708 79.4618C-17.8345 71.4157 -13.5439 65.247 -6.57167 65.247C0.400534 65.247 3.08215 72.2203 3.35032 77.8526C3.38633 78.609 3.39816 79.4524 3.41114 80.3777V80.3781C3.42493 81.3613 3.44003 82.4368 3.4868 83.5986C6.02596 75.4747 11.0488 68.7323 17.5924 63.8349L21.103 47.1311Z" fill="black" fill-opacity="0.2"/>
<path d="M30.9907 37.3893C31.9202 32.9669 37.2885 31.209 40.6538 34.2252L52.9643 45.2587C58.2598 45.0519 63.7306 45.713 69.1605 47.346C77.2192 49.7696 84.1723 54.0286 89.6178 59.4491C89.8826 59.4383 90.153 59.4449 90.428 59.4703L107.449 61.0427C111.949 61.4584 114.312 66.5894 111.702 70.2786L102.165 83.7592C102.984 89.2958 102.638 95.0204 100.95 100.635C94.2892 122.783 69.2576 134.833 45.0402 127.549C20.8227 120.266 6.59016 96.408 13.2508 74.2605C15.7482 65.9561 20.8285 59.0714 27.4802 54.0932L30.9907 37.3893Z" fill="white"/>
<path d="M28.4999 85.3853C46.1973 90.7076 64.8584 80.6757 70.1807 62.9783C71.6918 57.9536 71.9652 52.8512 71.1768 47.9984C70.5127 47.7681 69.8405 47.5505 69.1604 47.346C63.7305 45.713 58.2597 45.0519 52.9642 45.2587L40.6537 34.2252C37.2884 31.209 31.92 32.9669 30.9906 37.3893L27.48 54.0932C20.8284 59.0714 15.7481 65.9561 13.2507 74.2605C13.1403 74.6274 13.0357 74.9949 12.9368 75.3627C16.9383 79.9507 22.2395 83.5026 28.4999 85.3853Z" fill="#FFB800"/>
<path d="M38.178 66.125C38.4516 65.3075 39.3362 64.8665 40.1537 65.1401L51.573 68.9618C52.3905 69.2354 52.8315 70.1199 52.5579 70.9374C52.2843 71.755 51.3997 72.1959 50.5822 71.9223L39.1629 68.1007C38.3454 67.8271 37.9044 66.9425 38.178 66.125Z" fill="black"/>
<path d="M74.4756 79.1975C74.859 78.4254 75.7958 78.1102 76.5679 78.4936L87.3535 83.8486C88.1257 84.2319 88.4409 85.1687 88.0575 85.9408C87.6741 86.713 86.7373 87.0282 85.9652 86.6448L75.1796 81.2898C74.4074 80.9065 74.0922 79.9697 74.4756 79.1975Z" fill="black"/>
<path d="M56.0393 78.3669C56.4663 77.2118 57.7489 76.6214 58.9041 77.0484L66.0158 79.6769C67.1709 80.1039 67.7613 81.3865 67.3343 82.5417L67.1024 83.1692C65.9496 86.2882 62.4866 87.8821 59.3675 86.7293C56.2485 85.5765 54.6546 82.1135 55.8074 78.9944L56.0393 78.3669Z" fill="#C25757"/>
<path d="M20.4786 97.3451C26.9145 107.859 40.3226 114.242 46.2222 116.119C69.284 124.165 95.2957 119.874 102 119.07C108.704 118.265 111.922 120.142 113.531 124.434C115.14 128.725 114.067 133.821 106.827 136.771C99.5863 139.721 86.7146 146.158 81.0832 150.181C76.5781 153.4 75.273 160.462 75.1836 163.591C75.1836 167.631 84.0866 161.178 89.6643 162.25C96.6366 163.591 99.5863 170.028 102.536 169.76C105.486 169.492 108.972 163.591 110.313 161.446C111.654 159.3 116.749 152.327 123.721 155.545C130.693 158.764 132.838 170.833 120.771 195.508C108.704 220.182 89.9325 222.864 73.8428 229.301C57.7531 235.738 49.2804 247.807 25.1459 256.658C1.0113 265.509 -17.4919 263.095 -19.369 257.731C-21.2461 252.367 -19.6372 249.685 -13.7376 245.394C-7.83804 241.102 1.97543 240.03 3.31627 236.275C4.6571 232.52 -4.27639 220.939 -1.32659 208.333C1.03326 198.248 8.84888 194.44 10.2187 187.199C11.0014 180.546 -3.11962 164.128 -8.48285 139.453C-15.1869 108.609 -9.01918 77.7662 -8.48285 69.7201C-7.94653 61.674 -3.65594 55.5053 3.31627 55.5053C10.2885 55.5053 12.9701 62.4786 13.2383 68.1109C13.5064 73.7432 12.4338 84.2031 20.4786 97.3451Z" fill="white"/>
<path d="M92.3679 143.583C87.9025 145.908 83.707 148.307 81.0832 150.181C76.5781 153.4 75.273 160.462 75.1836 163.591C75.1836 165.769 77.7712 164.897 81.0304 163.799C83.8166 162.86 87.0936 161.756 89.6644 162.25C93.6034 163.008 96.2586 165.392 98.3552 167.275C99.8591 168.625 101.076 169.718 102.272 169.767C100.889 186.433 86.9248 199.527 69.9017 199.527C51.9617 199.527 37.4185 184.984 37.4185 167.044C37.4185 149.104 51.9617 134.561 69.9017 134.561C78.6186 134.561 86.5336 137.994 92.3679 143.583Z" fill="#FFB800"/>
<path opacity="0.996" fill-rule="evenodd" clip-rule="evenodd" d="M56.4509 101.709C55.4992 104.137 54.5474 106.564 53.5957 108.992C55.5487 109.742 57.4911 110.519 59.4228 111.323C60.8543 111.902 62.1951 112.644 63.4453 113.546C64.2031 114.128 64.7642 114.856 65.1286 115.73C65.2141 116.107 65.2487 116.49 65.2323 116.878C65.0627 117.352 64.9249 117.821 64.819 118.286C66.0573 117.197 66.8488 115.845 67.1937 114.231C67.3083 113.236 67.4505 112.245 67.6202 111.258C67.7323 110.811 67.8596 110.369 68.0021 109.931C68.7566 108.584 69.5644 107.27 70.4255 105.987C71.9638 103.756 71.474 102.178 68.956 101.255C64.6955 99.5032 60.5271 99.6544 56.4509 101.709Z" fill="#4F5DDB"/>
<path opacity="0.996" fill-rule="evenodd" clip-rule="evenodd" d="M32.163 105.484C32.5308 104.178 33.3766 103.355 34.7003 103.016C35.854 102.876 36.9934 102.954 38.1183 103.248C38.8997 103.45 39.6781 103.663 40.4536 103.886C42.5501 104.662 44.6364 105.465 46.7123 106.294C47.6641 103.866 48.6158 101.438 49.5676 99.0103C47.705 94.2037 44.2673 91.117 39.2545 89.7502C38.0397 89.6447 37.2185 90.1692 36.7908 91.3237C36.658 91.7647 36.5307 92.2073 36.4088 92.6514C36.1684 94.1779 35.8676 95.6913 35.5062 97.1916C34.9624 98.3992 34.265 99.5109 33.414 100.527C32.3933 102.028 31.9763 103.681 32.163 105.484Z" fill="#4F5DDB"/>
<g opacity="0.998">
<path fill-rule="evenodd" clip-rule="evenodd" d="M49.5676 99.0103C48.6159 101.438 47.6641 103.866 46.7123 106.294C46.6295 106.438 46.6039 106.582 46.6355 106.725C48.6285 108.237 50.8696 109.115 53.3588 109.361C53.4794 109.277 53.5583 109.154 53.5957 108.992C54.5475 106.564 55.4992 104.137 56.451 101.709C54.3656 100.276 52.0711 99.3761 49.5676 99.0103Z" fill="#4F5DDB"/>
<path fill-rule="evenodd" clip-rule="evenodd" d="M49.5676 99.0103C48.6159 101.438 47.6641 103.866 46.7123 106.294C46.6295 106.438 46.6039 106.582 46.6355 106.725C48.6285 108.237 50.8696 109.115 53.3588 109.361C53.4794 109.277 53.5583 109.154 53.5957 108.992C54.5475 106.564 55.4992 104.137 56.451 101.709C54.3656 100.276 52.0711 99.3761 49.5676 99.0103Z" fill="black" fill-opacity="0.2"/>
</g>
<path opacity="0.993" fill-rule="evenodd" clip-rule="evenodd" d="M53.5956 108.992C53.5583 109.154 53.4793 109.277 53.3587 109.361C54.4759 110.956 55.525 112.598 56.5058 114.288C58.1605 116.457 60.3149 117.871 62.9688 118.53C63.6219 118.652 64.2386 118.57 64.819 118.286C64.9248 117.821 65.0626 117.352 65.2323 116.878C65.2487 116.49 65.2141 116.107 65.1286 115.73C64.7642 114.856 64.203 114.128 63.4452 113.546C62.195 112.644 60.8542 111.902 59.4228 111.323C57.491 110.519 55.5487 109.742 53.5956 108.992Z" fill="#3F4AAF"/>
<path opacity="0.994" fill-rule="evenodd" clip-rule="evenodd" d="M46.7122 106.294C44.6362 105.465 42.55 104.662 40.4534 103.886C39.678 103.663 38.8996 103.45 38.1182 103.248C36.9933 102.954 35.8539 102.876 34.7002 103.016C33.3765 103.355 32.5307 104.178 32.1629 105.484C32.3953 106.087 32.7925 106.566 33.3542 106.921C35.7492 108.241 38.2905 108.668 40.9781 108.201C42.8433 107.63 44.7291 107.138 46.6353 106.725C46.6037 106.582 46.6294 106.438 46.7122 106.294Z" fill="#3F4AAF"/>
</g>
</svg>
