<svg width="245" height="324" viewBox="0 0 245 324" fill="none" xmlns="http://www.w3.org/2000/svg">
<g filter="url(#filter0_d_293_12012)">
<path d="M84.5456 6.2411C85.7883 0.3283 92.9659 -2.02207 97.4653 2.01057L113.925 16.7626C121.005 16.4861 128.319 17.37 135.579 19.5534C146.354 22.7937 155.65 28.488 162.931 35.7354C163.285 35.7209 163.647 35.7297 164.014 35.7637L186.772 37.866C192.789 38.4219 195.947 45.2821 192.458 50.2147L179.707 68.2384C180.802 75.6408 180.34 83.2948 178.082 90.8016C169.177 120.413 135.709 136.524 103.33 126.787C70.9508 117.049 51.9216 85.15 60.827 55.5384C64.1662 44.4354 70.9585 35.2304 79.8519 28.5744L84.5456 6.2411Z" fill="white"/>
<path d="M81.2156 70.4125C104.877 77.5285 129.827 64.1156 136.943 40.454C138.964 33.7358 139.329 26.9138 138.275 20.4256C137.387 20.1177 136.489 19.8268 135.579 19.5534C128.319 17.37 121.005 16.4861 113.925 16.7626L97.4654 2.01057C92.966 -2.02207 85.7884 0.3283 84.5457 6.2411L79.852 28.5744C70.9586 35.2304 64.1662 44.4354 60.8271 55.5384C60.6796 56.029 60.5397 56.5203 60.4074 57.0121C65.7576 63.1463 72.8453 67.8953 81.2156 70.4125Z" fill="#FFB800"/>
<path d="M94.1552 44.6612C94.521 43.5681 95.7037 42.9786 96.7967 43.3444L112.064 48.4539C113.158 48.8198 113.747 50.0024 113.381 51.0955C113.015 52.1885 111.833 52.7781 110.74 52.4123L95.472 47.3027C94.379 46.9369 93.7894 45.7542 94.1552 44.6612Z" fill="black"/>
<path d="M142.686 62.1394C143.198 61.107 144.451 60.6856 145.483 61.1981L159.904 68.3578C160.936 68.8704 161.357 70.1229 160.845 71.1553C160.332 72.1877 159.08 72.6091 158.047 72.0965L143.627 64.9368C142.594 64.4242 142.173 63.1718 142.686 62.1394Z" fill="black"/>
<path d="M118.036 61.0288C118.607 59.4843 120.322 58.695 121.866 59.2659L131.375 62.7803C132.919 63.3511 133.708 65.066 133.137 66.6105L132.827 67.4495C131.286 71.6197 126.656 73.7508 122.486 72.2094C118.316 70.6681 116.184 66.038 117.726 61.8678L118.036 61.0288Z" fill="#C25757"/>
<path d="M70.4907 86.4029C79.0956 100.46 97.0224 108.994 104.91 111.504C135.744 122.262 170.522 116.525 179.486 115.449C188.449 114.373 192.752 116.883 194.903 122.621C197.054 128.358 195.62 135.172 185.939 139.116C176.259 143.061 159.049 151.667 151.52 157.046C145.497 161.349 143.752 170.792 143.632 174.975C143.632 180.376 155.536 171.748 162.993 173.182C172.315 174.975 176.259 183.582 180.203 183.223C184.147 182.864 188.808 174.975 190.6 172.107C192.393 169.238 199.205 159.914 208.527 164.218C217.849 168.521 220.717 184.657 204.583 217.648C188.449 250.638 163.352 254.224 141.839 262.831C120.327 271.437 108.999 287.574 76.7308 299.407C44.4626 311.241 19.7235 308.013 17.2138 300.841C14.704 293.67 16.8552 290.084 24.743 284.346C32.6308 278.609 45.7516 277.174 47.5443 272.154C49.337 267.134 37.3928 251.649 41.3368 234.795C44.4919 221.312 54.9415 216.22 56.7729 206.539C57.8194 197.644 38.9394 175.692 31.7687 142.702C22.8053 101.464 31.0516 60.2257 31.7687 49.4679C32.4858 38.7101 38.2224 30.4625 47.5443 30.4625C56.8663 30.4625 60.4516 39.7859 60.8102 47.3163C61.1687 54.8468 59.7346 68.8319 70.4907 86.4029Z" fill="white"/>
<path d="M160.034 266.685C138.096 267.216 131.687 248.965 120.001 255.912C112.211 260.543 113.787 269.299 118.329 273.666C127.413 282.4 136.857 287.794 158.109 290.536C179.361 293.278 202.333 273.152 217.925 271.976C233.518 270.8 241.755 272.183 244.686 259.817C246.15 253.635 243.19 237.641 220.789 238.758C198.388 239.874 181.971 266.155 160.034 266.685Z" fill="white"/>
<path d="M166.608 148.223C160.637 151.333 155.028 154.54 151.52 157.046C145.496 161.349 143.752 170.792 143.632 174.975C143.632 177.887 147.092 176.721 151.449 175.253C155.174 173.998 159.556 172.521 162.993 173.182C168.26 174.195 171.81 177.383 174.613 179.9C176.624 181.706 178.25 183.166 179.85 183.232C178.001 205.514 159.33 223.022 136.57 223.022C112.584 223.022 93.1394 203.577 93.1394 179.591C93.1394 155.605 112.584 136.161 136.57 136.161C148.225 136.161 158.807 140.752 166.608 148.223Z" fill="#FFB800"/>
</g>
<defs>
<filter id="filter0_d_293_12012" x="0.220276" y="0" width="244.78" height="323.267" filterUnits="userSpaceOnUse" color-interpolation-filters="sRGB">
<feFlood flood-opacity="0" result="BackgroundImageFix"/>
<feColorMatrix in="SourceAlpha" type="matrix" values="0 0 0 0 0 0 0 0 0 0 0 0 0 0 0 0 0 0 127 0" result="hardAlpha"/>
<feOffset dx="-16" dy="16"/>
<feComposite in2="hardAlpha" operator="out"/>
<feColorMatrix type="matrix" values="0 0 0 0 0.321569 0 0 0 0 0.501961 0 0 0 0 0.247059 0 0 0 1 0"/>
<feBlend mode="normal" in2="BackgroundImageFix" result="effect1_dropShadow_293_12012"/>
<feBlend mode="normal" in="SourceGraphic" in2="effect1_dropShadow_293_12012" result="shape"/>
</filter>
</defs>
</svg>
