<svg width="74" height="37" viewBox="0 0 74 37" fill="none" xmlns="http://www.w3.org/2000/svg">
<rect width="74" height="37" rx="18.5" fill="#F4F7FB"/>
<path d="M16.4972 14.593V12.8182H24.8594V14.593H21.7422V23H19.6143V14.593H16.4972ZM28.5396 23.1491C27.7673 23.1491 27.0995 22.9851 26.536 22.657C25.9759 22.3255 25.5434 21.8648 25.2385 21.2749C24.9335 20.6816 24.7811 19.9938 24.7811 19.2116C24.7811 18.4228 24.9335 17.7334 25.2385 17.1435C25.5434 16.5502 25.9759 16.0895 26.536 15.7614C27.0995 15.4299 27.7673 15.2642 28.5396 15.2642C29.3118 15.2642 29.978 15.4299 30.5382 15.7614C31.1016 16.0895 31.5358 16.5502 31.8407 17.1435C32.1457 17.7334 32.2981 18.4228 32.2981 19.2116C32.2981 19.9938 32.1457 20.6816 31.8407 21.2749C31.5358 21.8648 31.1016 22.3255 30.5382 22.657C29.978 22.9851 29.3118 23.1491 28.5396 23.1491ZM28.5495 21.5085C28.9009 21.5085 29.1942 21.4091 29.4295 21.2102C29.6648 21.008 29.8422 20.733 29.9615 20.3849C30.0841 20.0369 30.1454 19.6409 30.1454 19.1967C30.1454 18.7526 30.0841 18.3565 29.9615 18.0085C29.8422 17.6605 29.6648 17.3854 29.4295 17.1832C29.1942 16.9811 28.9009 16.88 28.5495 16.88C28.1949 16.88 27.8966 16.9811 27.6547 17.1832C27.416 17.3854 27.2354 17.6605 27.1127 18.0085C26.9934 18.3565 26.9338 18.7526 26.9338 19.1967C26.9338 19.6409 26.9934 20.0369 27.1127 20.3849C27.2354 20.733 27.416 21.008 27.6547 21.2102C27.8966 21.4091 28.1949 21.5085 28.5495 21.5085ZM36.4892 23.1243C35.9092 23.1243 35.3838 22.9751 34.9132 22.6768C34.4458 22.3752 34.0746 21.9328 33.7995 21.3494C33.5278 20.7628 33.3919 20.0436 33.3919 19.1918C33.3919 18.3168 33.5327 17.5893 33.8145 17.0092C34.0962 16.4259 34.4707 15.9901 34.938 15.7017C35.4087 15.41 35.9241 15.2642 36.4842 15.2642C36.9118 15.2642 37.2681 15.3371 37.5531 15.483C37.8414 15.6255 38.0734 15.8045 38.2491 16.0199C38.4281 16.232 38.564 16.4408 38.6568 16.6463H38.7214V12.8182H40.8343V23H38.7463V21.777H38.6568C38.5574 21.9891 38.4165 22.1996 38.2342 22.4084C38.0552 22.6139 37.8216 22.7846 37.5332 22.9205C37.2482 23.0563 36.9002 23.1243 36.4892 23.1243ZM37.1603 21.4389C37.5017 21.4389 37.7901 21.3461 38.0254 21.1605C38.264 20.9716 38.4463 20.7081 38.5723 20.37C38.7015 20.032 38.7662 19.6359 38.7662 19.1818C38.7662 18.7277 38.7032 18.3333 38.5772 17.9986C38.4513 17.6638 38.269 17.4053 38.0304 17.223C37.7917 17.0407 37.5017 16.9496 37.1603 16.9496C36.8123 16.9496 36.519 17.044 36.2804 17.233C36.0417 17.4219 35.8611 17.6837 35.7385 18.0185C35.6158 18.3532 35.5545 18.741 35.5545 19.1818C35.5545 19.6259 35.6158 20.0187 35.7385 20.3601C35.8644 20.6982 36.045 20.9633 36.2804 21.1555C36.519 21.3445 36.8123 21.4389 37.1603 21.4389ZM44.7532 23.1442C44.266 23.1442 43.8318 23.0597 43.4506 22.8906C43.0695 22.7183 42.7679 22.4647 42.5458 22.13C42.3271 21.7919 42.2177 21.371 42.2177 20.8672C42.2177 20.4429 42.2956 20.0866 42.4513 19.7983C42.6071 19.5099 42.8192 19.2779 43.0877 19.1023C43.3562 18.9266 43.6611 18.794 44.0025 18.7045C44.3472 18.6151 44.7085 18.5521 45.0863 18.5156C45.5304 18.4692 45.8884 18.4261 46.1602 18.3864C46.4319 18.3433 46.6291 18.2803 46.7518 18.1974C46.8744 18.1146 46.9357 17.992 46.9357 17.8295V17.7997C46.9357 17.4848 46.8363 17.2412 46.6374 17.0689C46.4419 16.8965 46.1635 16.8104 45.8022 16.8104C45.421 16.8104 45.1178 16.8949 44.8924 17.0639C44.667 17.2296 44.5179 17.4384 44.445 17.6903L42.4862 17.5312C42.5856 17.0672 42.7811 16.6662 43.0728 16.3281C43.3645 15.9867 43.7406 15.7249 44.2013 15.5426C44.6654 15.357 45.2023 15.2642 45.8121 15.2642C46.2364 15.2642 46.6424 15.3139 47.0302 15.4134C47.4213 15.5128 47.7676 15.6669 48.0692 15.8757C48.3742 16.0845 48.6145 16.353 48.7901 16.6811C48.9658 17.0059 49.0536 17.3954 49.0536 17.8494V23H47.0451V21.9411H46.9854C46.8628 22.1797 46.6987 22.3902 46.4933 22.5724C46.2878 22.7514 46.0408 22.8923 45.7525 22.995C45.4641 23.0945 45.131 23.1442 44.7532 23.1442ZM45.3597 21.6825C45.6713 21.6825 45.9464 21.6212 46.185 21.4986C46.4237 21.3726 46.6109 21.2036 46.7468 20.9915C46.8827 20.7794 46.9506 20.5391 46.9506 20.2706V19.4602C46.8844 19.5033 46.7932 19.5431 46.6772 19.5795C46.5645 19.6127 46.4369 19.6442 46.2944 19.674C46.1519 19.7005 46.0094 19.7254 45.8668 19.7486C45.7243 19.7685 45.5951 19.7867 45.479 19.8033C45.2305 19.8397 45.0134 19.8977 44.8278 19.9773C44.6422 20.0568 44.498 20.1645 44.3952 20.3004C44.2925 20.433 44.2411 20.5987 44.2411 20.7976C44.2411 21.0859 44.3455 21.3063 44.5543 21.4588C44.7665 21.608 45.0349 21.6825 45.3597 21.6825ZM51.7308 25.8636C51.4624 25.8636 51.2105 25.8421 50.9751 25.799C50.7431 25.7592 50.5509 25.7079 50.3984 25.6449L50.8757 24.0639C51.1243 24.1402 51.348 24.1816 51.5469 24.1882C51.7491 24.1948 51.9231 24.1484 52.0689 24.049C52.218 23.9496 52.339 23.7805 52.4318 23.5419L52.5561 23.2188L49.8168 15.3636H52.044L53.625 20.9716H53.7045L55.3004 15.3636H57.5426L54.5746 23.8253C54.4321 24.2363 54.2382 24.5942 53.9929 24.8991C53.7509 25.2074 53.4444 25.4444 53.0732 25.6101C52.7019 25.7791 52.2545 25.8636 51.7308 25.8636Z" fill="#515FE1"/>
</svg>
