<svg width="390" height="242" viewBox="0 0 390 242" fill="none" xmlns="http://www.w3.org/2000/svg">
<rect width="421" height="253" transform="translate(-8 -11)" fill="#CBEFBF"/>
<path d="M2 152.5C1.2 151.3 0.333333 149.667 0 149V-241H390V242C389 241.5 386.5 239.8 384.5 237C382 233.5 383.5 231.5 382.5 227C381.5 222.5 371.5 225.5 372 216C372.5 206.5 380.5 204.5 381 204C381.5 203.5 382.5 199 381.5 197.5C380.5 196 377.5 196 372.5 195C367.5 194 358 191.5 355.5 183C353 174.5 358 172 358 169.5C358 167.5 355.333 166 354 165.5C354 166.833 353.1 169.5 349.5 169.5C345.9 169.5 341 165.167 339 163C338.833 163 338.4 163.8 338 167C337.5 171 332 174 330 170.5C328.4 167.7 328.667 164.333 329 163C328.167 162 326 159.7 324 158.5C321.5 157 316.5 157.5 316.5 151.5C316.5 145.5 327 147.5 327 146.5C327 145.5 321.5 143 316.5 143C311.5 143 310 144 308.5 145C307 146 308 147.5 308 150.5C308 153.5 305 157 304 158C303 159 303.5 160.5 302 163C300.8 165 297.167 164.5 295.5 164C296.167 164.667 297.6 166.6 298 169C298.5 172 299 173.5 296 176C293.6 178 290 175.5 288.5 174C287.5 177 285.5 180.5 282 180C278.5 179.5 275 171 274 171C273 171 272 172.5 269.5 172.5C267 172.5 265 169 263.5 169C262 169 253.5 169.5 254 162.5C254.5 155.5 268 151.5 268.5 149.5C269 147.5 266 146.5 261.5 143.5C257.9 141.1 254 140.5 252.5 140.5C253.167 141.167 253.8 143.6 251 148C247.5 153.5 242 150 242 146.5V140C241.333 140.333 239.8 140.6 239 139C238 137 238 136 236.5 133C235.3 130.6 233 128.333 232 127.5C232.167 129.333 232.2 133.6 231 136C229.5 139 225 137.5 223 135C221 132.5 221 126.5 219.5 126.5C218 126.5 218 127.5 215 132.5C212 137.5 205 140 205 137C205 134 206 132 206 128C206 124 205 114.5 208.5 108C212 101.5 217 102 217.5 100C218 98 215.5 92.5 214 93.5C212.5 94.5 213.5 97 208.5 98C203.5 99 197.5 95 197 90.5C196.5 86 199 84.5 200.5 81.5C202 78.5 205 66.5 203.5 65C202 63.5 200 68 198 68C196 68 195.5 66 194 67C192.5 68 191 74 189 77.5C187 81 189 80.5 189 87.5C189 94.5 187 98 182.5 97.5C178.9 97.1 177.667 93.3333 177.5 91.5C176.833 91 174.9 90.2 172.5 91C169.5 92 169 97 168.5 104.5C168 112 166.5 124.5 161 125C155.5 125.5 155 121 154 121C153 121 153 122.5 151 123C149 123.5 144.5 124 144.5 119.5C144.5 115 146.5 114 146 111.5C145.5 109 139.5 110 138.5 111C137.5 112 137.5 114.5 135 118C132.5 121.5 128.5 122 128 128.5C127.5 135 134 140 134 144C134 148 128.5 151.5 125 152C122.2 152.4 121.167 147.5 121 145C120.833 148 120 155.2 118 160C115.5 166 110 177 106 177C102 177 92.5 165 93 158C93.5 151 96 147.5 95.5 146C95 144.5 90 143.5 87.5 144.5C85 145.5 85.5 146.5 84 146.5C82.5 146.5 82 145 80 145C78 145 79 146.5 77.5 148C76.3 149.2 75.3333 149.5 75 149.5C77 151 80.3 154.8 77.5 158C74 162 71 158 69.5 156C68 154 64 152.5 61.5 153C59.5 153.4 57.6667 154.5 57 155C57.3333 156 58.2 158.1 59 158.5C60 159 61 156.5 65 159C69 161.5 69 168 68 168.5C67.2 168.9 66.3333 168 66 167.5C66.3333 168 66.7 170.5 65.5 176.5C64 184 54.5 186 51 180.5C47.5 175 49 171 49 166C49 162 47 161 46 161C45.8333 162 45.5 164.3 45.5 165.5C45.5 167 43.5 170 42 170C40.5 170 38 169.5 38 165C38 161.4 39.3333 159.167 40 158.5C39.1667 158.333 37.2 157.8 36 157C34.8 156.2 34.5 155 34.5 154.5C34.3333 154.667 33.6 155.2 32 156C30.4 156.8 27.6667 156.333 26.5 156C28.3333 158.333 31.8 164.1 31 168.5C30 174 27 170 26 168.5C25 167 22 166.5 18.5 166C15.7 165.6 14 163.833 13.5 163C13.6667 164.167 14 167 14 169C14 171.5 13.5 174 14 176.5C14.5 179 16.5 180 15.5 181C14.5 182 7 180 5 171.5C3 163 5.5 156.5 5 155C4.5 153.5 3 154 2 152.5Z" fill="#93C48B"/>
<path d="M0 120C0.5 120.5 1.8 121.6 3 122C4.5 122.5 6 122.5 7 123.5C7.8 124.3 8.66667 124.167 9 124C8.66667 124.833 8.2 127.2 9 130C10 133.5 12.5 135.5 13.5 135.5C14.5 135.5 16.5 131 17 127.5C17.5 124 16.5 122.5 17.5 122C18.5 121.5 20.5 120 23 120.5C25 120.9 26.5 122.333 27 123C26.6667 124.833 26.4 129.1 28 131.5C30 134.5 32.5 135 33.5 134.5C34.5 134 35.5 132 35.5 129.5C36.5 130.5 39.6 132.3 44 131.5C49.5 130.5 49.5 129 49.5 128C49.5 127 48.5 125 45 122.5C42.2 120.5 37.5 119.333 35.5 119C36.5 118.833 38.7 118.3 39.5 117.5C40.3 116.7 40.5 115.833 40.5 115.5C41.5 117 44.9 119.9 50.5 119.5C57.5 119 59.5 117 60 115.5C60.4 114.3 58.1667 113 57 112.5C59 112.167 63.7 110.8 66.5 108C69.3 105.2 71.3333 99.8333 72 97.5C72.3333 99.6667 73.3 105 74.5 109C76 114 79 115.5 82 114.5C85 113.5 84 106 83.5 104C83.1 102.4 83 101 83 100.5C85.1667 104.5 92.2 112.3 103 111.5C116.5 110.5 118 107 115 98.5C112.931 92.6375 109.722 90.5657 107.809 90.1058C108.89 90.1742 110.815 90.0967 113.5 89.5C118 88.5 123.5 85.5 123.5 84C123.5 82.5 120 79.5 114.5 79C115 77.1667 115.8 72.6 115 69C114 64.5 110.5 63 108.5 62.5C106.9 62.1 104.833 62.3333 104 62.5C104.667 61.1667 106.3 58 107.5 56C108.7 54 110 52.5 110.5 52C111.667 52.3333 114.5 52.6 116.5 51C118.5 49.4 120 44.3333 120.5 42C121.167 43 123 45.2 125 46C127 46.8 129.5 47 130.5 47C129.167 48.1667 126.8 52.2 128 59C129.5 67.5 136.5 72 140 70.5C143.5 69 142 63.5 142 60.5C142 57.5 141.5 55 142.5 54.5C143.5 54 149.5 61.5 155.5 63C161.5 64.5 167 64.5 167.5 63C167.9 61.8 164 57.1667 162 55C162.667 55.3333 164.4 55.7 166 54.5C167.6 53.3 169.667 50.3333 170.5 49C170.667 50.3333 171.6 53.6 174 56C177 59 180.5 61 182 60C183.5 59 183.5 55.5 183.5 53C183.5 50.5 181.5 48.5 181.5 46C181.5 44 181.833 41.5 182 40.5C183 41.5 185.8 44 189 46C193 48.5 196.5 50 198.5 49C200.5 48 199 40.5 194.5 37C190.9 34.2 187.667 32.8333 186.5 32.5C187.333 31.5 189.7 29 192.5 27C196 24.5 199.5 25 201 23.5C202.2 22.3 202.167 19 202 17.5C203.5 19.5 206.2 24.1 205 26.5C203.5 29.5 201.5 32 202.5 34.5C203.5 37 209.5 36.5 212 34C214 32 215.5 28.8333 216 27.5C216.333 29 217.6 32.2 220 33C223 34 225 34 226 33C226.8 32.2 228 30.6667 228.5 30C229.333 30.6667 230.9 32.2 230.5 33C230 34 225 38 226 45.5C227 53 229.5 54 232 54C234.5 54 235 49 235.5 47.5C235.9 46.3 236.667 44.3333 237 43.5C238.5 45 241.4 48.9 241 52.5C240.5 57 228.5 55.5 228.5 65.5C228.5 73.5 237.5 71.5 242 69.5C240.333 70.5 236.8 72.9 236 74.5C235.2 76.1 235 77.5 235 78C230 79.3333 219.9 82.9 219.5 86.5C219.1 90.1 223.667 93.3333 226 94.5C225 95.6667 222.9 99.4 222.5 105C222 112 221.5 114.5 222.5 115.5C223.5 116.5 230.5 112 233.5 108C236.5 104 238 98.5 239 97.5C240 96.5 242 95 243 97C244 99 244 105.5 245 111C246 116.5 247 122 250 122C253 122 262.5 113.5 262 106C261.5 98.5 260 98.5 260.5 97.5C261 96.5 264 98 266 101.5C268 105 272.5 106 273.5 108C274.5 110 274 113.5 276 114C278 114.5 280.5 110.5 279.5 104.5C278.5 98.5 278 95.5 279.5 95C281 94.5 283.5 98.5 287 98.5C290.5 98.5 292.5 95 293.5 95C294.5 95 293 102 293.5 106C294 110 296.5 111 298 111C299.5 111 304 109.5 304.5 105.5C304.9 102.3 305.333 100.167 305.5 99.5C306 101.333 307.8 106 311 110C315 115 319.5 116 321.5 115C323.5 114 323 107.5 320 102.5C317 97.5 315.5 96.5 315.5 95C315.5 93.5 318 93 320 91.5C321.6 90.3 322.333 89 322.5 88.5C322.833 90.6667 324.4 95 328 95C332.5 95 333 90 333 87.5C333 85 332 81.5 333 81C334 80.5 335.5 84 338 85.5C340 86.7 343.833 87 345.5 87C345.5 89.6667 347 95 353 95C360.5 95 360 86.5 360.5 86C361 85.5 363 88 363 89C363 90 358 91 358 99.5C358 106.3 361 106.333 362.5 105.5C360.833 107.667 357.6 113.6 358 120C358.5 128 361.5 127 363 127C364.5 127 367 121.5 368 120C369 118.5 370 116.5 371 116.5C372 116.5 372 122 375 127C378 132 379 132.5 380 135.5C381 138.5 382 142.5 384.5 146C386.5 148.8 389 150.5 390 151V-233H0V120Z" fill="#52803F"/>
</svg>
