<svg width="153" height="153" viewBox="0 0 153 153" fill="none" xmlns="http://www.w3.org/2000/svg">
<mask id="mask0_432_553" style="mask-type:alpha" maskUnits="userSpaceOnUse" x="0" y="0" width="153" height="153">
<rect width="153" height="153" rx="16" fill="#D9D9D9"/>
</mask>
<g mask="url(#mask0_432_553)">
<path fill-rule="evenodd" clip-rule="evenodd" d="M131.897 47.1311C130.968 42.7087 125.599 40.9508 122.234 43.9669L109.923 55.0005C104.628 54.7937 99.1571 55.4548 93.7272 57.0878C85.6685 59.5114 78.7155 63.7703 73.27 69.1909C73.0052 69.18 72.7347 69.1866 72.4597 69.2121L55.4383 70.7845C50.9384 71.2002 48.5759 76.3312 51.1859 80.0204L60.7228 93.501C59.9035 99.0375 60.2493 104.762 61.9379 110.377C64.4095 118.595 69.4107 125.423 75.9613 130.389C70.2821 130.034 65.6391 129.427 62.7 129.043L62.6992 129.043C61.9945 128.951 61.3877 128.871 60.8882 128.811C54.1841 128.007 50.9662 129.884 49.3572 134.175C47.7482 138.467 48.8209 143.563 56.0612 146.513C63.3016 149.463 76.1734 155.9 81.8048 159.923C86.3099 163.141 87.6149 170.204 87.7043 173.333C87.7043 175.511 85.1167 174.639 81.8575 173.541C79.0713 172.602 75.7943 171.498 73.2236 171.992C69.2845 172.75 66.6294 175.134 64.5327 177.017C62.9183 178.466 61.6351 179.619 60.3518 179.502C57.5737 179.249 54.3198 174.001 52.8304 171.598L52.8266 171.592C52.736 171.446 52.6521 171.311 52.5751 171.188C51.2343 169.042 46.1393 162.069 39.1671 165.287C32.1949 168.506 30.0495 180.575 42.1168 205.249C52.2319 225.932 67.0575 231.163 81.0657 236.105L81.0658 236.105C83.6028 237 86.113 237.886 88.5635 238.852C85.0961 240.626 80.9135 242.059 75.437 241.926C67.1969 241.727 59.9982 236.67 52.751 231.58C45.5675 226.533 38.3363 221.454 29.9959 221.038C13.2412 220.203 11.0273 232.166 12.1229 236.789C14.0255 244.818 18.9184 245.098 27.8044 245.607C29.1554 245.685 30.5986 245.767 32.1377 245.883C36.9343 246.245 42.6643 249.004 48.8545 251.985C57.7152 256.252 67.5187 260.972 76.8765 259.765C91.7872 257.841 98.9258 254.172 105.361 248.333C106.132 248.866 106.907 249.406 107.691 249.951C115.511 255.4 124.139 261.411 137.742 266.4C161.877 275.251 180.38 272.837 182.257 267.473C184.134 262.109 182.525 259.427 176.626 255.135C174.003 253.228 170.608 251.957 167.527 250.803C163.676 249.361 160.317 248.102 159.572 246.016C159.07 244.611 160.008 242.108 161.223 238.865C163.254 233.446 166.06 225.961 164.215 218.075C162.96 212.715 160.165 209.128 157.615 205.856C155.368 202.972 153.311 200.333 152.669 196.941C152.333 194.079 154.753 189.411 158.048 183.057C162.413 174.637 168.314 163.257 171.371 149.195C176.896 123.772 173.678 98.3503 172.075 85.6936C171.733 82.9946 171.465 80.8761 171.371 79.4618C170.834 71.4157 166.544 65.247 159.572 65.247C152.599 65.247 149.918 72.2203 149.65 77.8526C149.614 78.609 149.602 79.4524 149.589 80.3777V80.3781C149.575 81.3613 149.56 82.4368 149.513 83.5986C146.974 75.4747 141.951 68.7323 135.408 63.8349L131.897 47.1311Z" fill="#ECECEC"/>
<path fill-rule="evenodd" clip-rule="evenodd" d="M131.897 47.1311C130.968 42.7087 125.599 40.9508 122.234 43.9669L109.923 55.0005C104.628 54.7937 99.1571 55.4548 93.7272 57.0878C85.6685 59.5114 78.7155 63.7703 73.27 69.1909C73.0052 69.18 72.7347 69.1866 72.4597 69.2121L55.4383 70.7845C50.9384 71.2002 48.5759 76.3312 51.1859 80.0204L60.7228 93.501C59.9035 99.0375 60.2493 104.762 61.9379 110.377C64.4095 118.595 69.4107 125.423 75.9613 130.389C70.2821 130.034 65.6391 129.427 62.7 129.043L62.6992 129.043C61.9945 128.951 61.3877 128.871 60.8882 128.811C54.1841 128.007 50.9662 129.884 49.3572 134.175C47.7482 138.467 48.8209 143.563 56.0612 146.513C63.3016 149.463 76.1734 155.9 81.8048 159.923C86.3099 163.141 87.6149 170.204 87.7043 173.333C87.7043 175.511 85.1167 174.639 81.8575 173.541C79.0713 172.602 75.7943 171.498 73.2236 171.992C69.2845 172.75 66.6294 175.134 64.5327 177.017C62.9183 178.466 61.6351 179.619 60.3518 179.502C57.5737 179.249 54.3198 174.001 52.8304 171.598L52.8266 171.592C52.736 171.446 52.6521 171.311 52.5751 171.188C51.2343 169.042 46.1393 162.069 39.1671 165.287C32.1949 168.506 30.0495 180.575 42.1168 205.249C52.2319 225.932 67.0575 231.163 81.0657 236.105L81.0658 236.105C83.6028 237 86.113 237.886 88.5635 238.852C85.0961 240.626 80.9135 242.059 75.437 241.926C67.1969 241.727 59.9982 236.67 52.751 231.58C45.5675 226.533 38.3363 221.454 29.9959 221.038C13.2412 220.203 11.0273 232.166 12.1229 236.789C14.0255 244.818 18.9184 245.098 27.8044 245.607C29.1554 245.685 30.5986 245.767 32.1377 245.883C36.9343 246.245 42.6643 249.004 48.8545 251.985C57.7152 256.252 67.5187 260.972 76.8765 259.765C91.7872 257.841 98.9258 254.172 105.361 248.333C106.132 248.866 106.907 249.406 107.691 249.951C115.511 255.4 124.139 261.411 137.742 266.4C161.877 275.251 180.38 272.837 182.257 267.473C184.134 262.109 182.525 259.427 176.626 255.135C174.003 253.228 170.608 251.957 167.527 250.803C163.676 249.361 160.317 248.102 159.572 246.016C159.07 244.611 160.008 242.108 161.223 238.865C163.254 233.446 166.06 225.961 164.215 218.075C162.96 212.715 160.165 209.128 157.615 205.856C155.368 202.972 153.311 200.333 152.669 196.941C152.333 194.079 154.753 189.411 158.048 183.057C162.413 174.637 168.314 163.257 171.371 149.195C176.896 123.772 173.678 98.3503 172.075 85.6936C171.733 82.9946 171.465 80.8761 171.371 79.4618C170.834 71.4157 166.544 65.247 159.572 65.247C152.599 65.247 149.918 72.2203 149.65 77.8526C149.614 78.609 149.602 79.4524 149.589 80.3777V80.3781C149.575 81.3613 149.56 82.4368 149.513 83.5986C146.974 75.4747 141.951 68.7323 135.408 63.8349L131.897 47.1311Z" fill="black" fill-opacity="0.2"/>
<path d="M122.009 37.3893C121.08 32.9669 115.711 31.209 112.346 34.2252L100.036 45.2587C94.7402 45.0519 89.2694 45.713 83.8395 47.346C75.7808 49.7696 68.8277 54.0286 63.3822 59.4491C63.1174 59.4383 62.847 59.4449 62.572 59.4703L45.5506 61.0427C41.0506 61.4584 38.6882 66.5894 41.2981 70.2786L50.835 83.7592C50.0158 89.2958 50.3616 95.0204 52.0501 100.635C58.7108 122.783 83.7424 134.833 107.96 127.549C132.177 120.266 146.41 96.408 139.749 74.2605C137.252 65.9561 132.172 59.0714 125.52 54.0932L122.009 37.3893Z" fill="white"/>
<path d="M124.5 85.3853C106.803 90.7076 88.1416 80.6757 82.8193 62.9783C81.3082 57.9536 81.0348 52.8512 81.8232 47.9984C82.4873 47.7681 83.1595 47.5505 83.8396 47.346C89.2695 45.713 94.7403 45.0519 100.036 45.2587L112.346 34.2252C115.712 31.209 121.08 32.9669 122.009 37.3893L125.52 54.0932C132.172 59.0714 137.252 65.9561 139.749 74.2605C139.86 74.6274 139.964 74.9949 140.063 75.3627C136.062 79.9507 130.76 83.5026 124.5 85.3853Z" fill="#FFB800"/>
<path d="M114.822 66.125C114.548 65.3075 113.664 64.8665 112.846 65.1401L101.427 68.9618C100.609 69.2354 100.169 70.1199 100.442 70.9374C100.716 71.755 101.6 72.1959 102.418 71.9223L113.837 68.1007C114.655 67.8271 115.096 66.9425 114.822 66.125Z" fill="black"/>
<path d="M78.5244 79.1975C78.141 78.4254 77.2042 78.1102 76.4321 78.4936L65.6465 83.8486C64.8743 84.2319 64.5591 85.1687 64.9425 85.9408C65.3259 86.713 66.2627 87.0282 67.0348 86.6448L77.8204 81.2898C78.5926 80.9065 78.9078 79.9697 78.5244 79.1975Z" fill="black"/>
<path d="M96.9607 78.3669C96.5337 77.2118 95.2511 76.6214 94.0959 77.0484L86.9842 79.6769C85.8291 80.1039 85.2387 81.3865 85.6657 82.5417L85.8976 83.1692C87.0504 86.2882 90.5134 87.8821 93.6325 86.7293C96.7515 85.5765 98.3454 82.1135 97.1926 78.9944L96.9607 78.3669Z" fill="#C25757"/>
<path d="M132.521 97.3451C126.085 107.859 112.677 114.242 106.778 116.119C83.716 124.165 57.7043 119.874 51.0002 119.07C44.2962 118.265 41.0782 120.142 39.4693 124.434C37.8603 128.725 38.9329 133.821 46.1733 136.771C53.4137 139.721 66.2854 146.158 71.9168 150.181C76.4219 153.4 77.727 160.462 77.8164 163.591C77.8164 167.631 68.9134 161.178 63.3357 162.25C56.3634 163.591 53.4137 170.028 50.4639 169.76C47.5141 169.492 44.028 163.591 42.6872 161.446C41.3464 159.3 36.2513 152.327 29.2791 155.545C22.3069 158.764 20.1616 170.833 32.2289 195.508C44.2962 220.182 63.0675 222.864 79.1572 229.301C95.2469 235.738 103.72 247.807 127.854 256.658C151.989 265.509 170.492 263.095 172.369 257.731C174.246 252.367 172.637 249.685 166.738 245.394C160.838 241.102 151.025 240.03 149.684 236.275C148.343 232.52 157.276 220.939 154.327 208.333C151.967 198.248 144.151 194.44 142.781 187.199C141.999 180.546 156.12 164.128 161.483 139.453C168.187 108.609 162.019 77.7662 161.483 69.7201C160.947 61.674 156.656 55.5053 149.684 55.5053C142.712 55.5053 140.03 62.4786 139.762 68.1109C139.494 73.7432 140.566 84.2031 132.521 97.3451Z" fill="white"/>
<path d="M60.6321 143.583C65.0975 145.908 69.293 148.307 71.9168 150.181C76.4219 153.4 77.727 160.462 77.8164 163.591C77.8164 165.769 75.2288 164.897 71.9696 163.799C69.1834 162.86 65.9064 161.756 63.3356 162.25C59.3966 163.008 56.7414 165.392 54.6448 167.275C53.1409 168.625 51.9244 169.718 50.7276 169.767C52.1105 186.433 66.0752 199.527 83.0983 199.527C101.038 199.527 115.582 184.984 115.582 167.044C115.582 149.104 101.038 134.561 83.0983 134.561C74.3814 134.561 66.4664 137.994 60.6321 143.583Z" fill="#FFB800"/>
<path opacity="0.996" fill-rule="evenodd" clip-rule="evenodd" d="M108.19 46.346C107.376 48.8231 106.561 51.3004 105.746 53.7776C103.763 53.1103 101.772 52.4703 99.7711 51.8576C98.2987 51.3916 96.7933 51.1077 95.2548 51.0057C94.3 50.9708 93.4037 51.1738 92.5658 51.6146C92.2595 51.8506 91.9887 52.1235 91.7535 52.4334C91.5823 52.9064 91.3892 53.3557 91.1744 53.7815C90.9148 52.1529 91.1669 50.6068 91.9306 49.1432C92.4765 48.3039 92.9987 47.4499 93.4972 46.5814C93.6958 46.1656 93.8799 45.7435 94.0494 45.3151C94.3265 43.797 94.5424 42.2691 94.6972 40.7316C94.9345 38.0321 96.3174 37.1294 98.8458 38.0236C103.245 39.3903 106.36 42.1645 108.19 46.346Z" fill="#FF4343"/>
<path opacity="0.996" fill-rule="evenodd" clip-rule="evenodd" d="M124.494 64.7402C125.044 63.4992 124.917 62.3261 124.113 61.2211C123.313 60.3779 122.386 59.711 121.332 59.2205C120.601 58.8777 119.866 58.5454 119.126 58.2234C117.016 57.4843 114.897 56.7723 112.769 56.0875C113.584 53.6103 114.399 51.1331 115.214 48.6559C119.713 46.1406 124.33 45.9545 129.063 48.0976C130.066 48.7908 130.364 49.7185 129.957 50.8806C129.779 51.305 129.595 51.7271 129.405 52.147C128.617 53.4762 127.884 54.834 127.206 56.2201C126.855 57.4972 126.683 58.7983 126.691 60.1234C126.52 61.9309 125.788 63.4699 124.494 64.7402Z" fill="#FF4343"/>
<g opacity="0.998">
<path fill-rule="evenodd" clip-rule="evenodd" d="M115.214 48.6559C114.399 51.1331 113.584 53.6103 112.769 56.0875C112.741 56.2515 112.669 56.3786 112.553 56.469C110.055 56.3625 107.768 55.6104 105.693 54.2128C105.654 54.0713 105.671 53.9263 105.746 53.7776C106.561 51.3004 107.376 48.8231 108.19 46.346C110.711 46.5715 113.052 47.3415 115.214 48.6559Z" fill="#FF4343"/>
<path fill-rule="evenodd" clip-rule="evenodd" d="M115.214 48.6559C114.399 51.1331 113.584 53.6103 112.769 56.0875C112.741 56.2515 112.669 56.3786 112.553 56.469C110.055 56.3625 107.768 55.6104 105.693 54.2128C105.654 54.0713 105.671 53.9263 105.746 53.7776C106.561 51.3004 107.376 48.8231 108.19 46.346C110.711 46.5715 113.052 47.3415 115.214 48.6559Z" fill="black" fill-opacity="0.2"/>
</g>
<path opacity="0.993" fill-rule="evenodd" clip-rule="evenodd" d="M105.746 53.7776C105.672 53.9263 105.654 54.0713 105.694 54.2128C103.816 54.729 101.961 55.3255 100.127 56.0021C97.4701 56.6177 94.9089 56.3334 92.444 55.1493C91.8633 54.8265 91.4401 54.3706 91.1744 53.7815C91.3892 53.3557 91.5823 52.9064 91.7535 52.4334C91.9887 52.1235 92.2595 51.8506 92.5658 51.6146C93.4037 51.1738 94.3 50.9708 95.2548 51.0057C96.7933 51.1077 98.2987 51.3916 99.7711 51.8576C101.772 52.4703 103.763 53.1103 105.746 53.7776Z" fill="#CC3636"/>
<path opacity="0.994" fill-rule="evenodd" clip-rule="evenodd" d="M112.769 56.0875C114.897 56.7723 117.016 57.4843 119.126 58.2234C119.866 58.5454 120.601 58.8777 121.332 59.2205C122.386 59.711 123.313 60.3779 124.113 61.2211C124.917 62.3261 125.044 63.4992 124.494 64.7402C123.931 65.0566 123.319 65.1723 122.66 65.0874C119.974 64.5772 117.744 63.2857 115.971 61.2129C114.898 59.5835 113.759 58.0022 112.553 56.469C112.669 56.3787 112.741 56.2515 112.769 56.0875Z" fill="#CC3636"/>
</g>
</svg>
