<svg width="32" height="32" viewBox="0 0 32 32" fill="none" xmlns="http://www.w3.org/2000/svg">
<path d="M8.74451 22.1258C5.81558 19.1969 5.58945 14.6743 8.23943 12.0243L12.078 8.18574C14.728 5.53575 19.2506 5.76188 22.1795 8.69081C25.1085 11.6197 25.3346 16.1424 22.6846 18.7923L18.846 22.6309C16.196 25.2809 11.6734 25.0548 8.74451 22.1258Z" fill="#5D80DB"/>
<path fill-rule="evenodd" clip-rule="evenodd" d="M4.00131 20.2618C4.94992 20.1613 5.81621 20.7589 6.26752 21.5994C6.66277 22.3354 7.17246 23.0287 7.79615 23.6524C8.41983 24.276 9.11313 24.7857 9.84915 25.181C10.6896 25.6323 11.2872 26.4986 11.1867 27.4472L10.9553 29.6297C10.778 31.302 8.74137 32.0222 7.55222 30.8331L0.615444 23.8963C-0.573697 22.7071 0.146477 20.6705 1.81881 20.4932L4.00131 20.2618Z" fill="#5D80DB"/>
<path fill-rule="evenodd" clip-rule="evenodd" d="M20.1322 4.13097C20.0316 5.07958 20.6293 5.94587 21.4697 6.39717C22.2057 6.79242 22.899 7.30212 23.5227 7.9258C24.1464 8.54949 24.6561 9.24279 25.0513 9.9788C25.5026 10.8192 26.3689 11.4169 27.3175 11.3163L29.5001 11.0849C31.1724 10.9077 31.8926 8.87102 30.7034 7.68188L23.7666 0.745098C22.5775 -0.444043 20.5409 0.276131 20.3636 1.94846L20.1322 4.13097Z" fill="#5D80DB"/>
</svg>
