<svg width="32" height="32" viewBox="0 0 32 32" fill="none" xmlns="http://www.w3.org/2000/svg">
<path fill-rule="evenodd" clip-rule="evenodd" d="M5 20.7676C5 18.201 5.66 11.7476 8.3 6.46762C11.6 -0.132381 13.8 -0.132381 13.8 3.16762V11.9678C13.8 14.1678 14.9 15.2678 16 15.2678C17.1 15.2678 18.2 14.1678 18.2 11.9678V8.66777C18.2 2.86675 27 11.9675 27 20.7676C27 29.5678 18.75 31.7678 16 31.7678C13.25 31.7678 5 30.1175 5 20.7676ZM16 18.5678C14.785 18.5678 13.8 19.5528 13.8 20.7678V25.1678C13.8 26.3828 14.785 27.3678 16 27.3678C17.215 27.3678 18.2 26.3828 18.2 25.1678V20.7678C18.2 19.5528 17.215 18.5678 16 18.5678Z" fill="#B40000"/>
</svg>
