<svg width="27" height="28" viewBox="0 0 27 28" fill="none" xmlns="http://www.w3.org/2000/svg">
<path d="M22.776 16.3945C22.776 21.4722 18.6597 25.5885 13.582 25.5885C8.50425 25.5885 4.38794 21.4722 4.38794 16.3945C4.38794 8.222 13.582 0.560303 13.582 0.560303C13.582 0.560303 22.776 8.222 22.776 16.3945Z" fill="#FF7033"/>
<path d="M15.1686 22.8266C15.0227 22.2819 15.3532 21.7307 15.8579 21.4791C17.5366 20.6422 18.6898 18.9083 18.6898 16.9051C18.6898 16.7988 18.6865 16.6933 18.6801 16.5886C18.6457 16.0258 18.9582 15.4646 19.5028 15.3187C20.0476 15.1727 20.6154 15.4963 20.6823 16.0563C20.753 16.6472 20.7497 17.2459 20.6717 17.8385C20.5491 18.7696 20.2444 19.6673 19.7748 20.4806C19.3053 21.2938 18.6802 22.0067 17.9352 22.5783C17.4608 22.9423 16.9437 23.2446 16.3964 23.4789C15.8783 23.7007 15.3145 23.371 15.1686 22.8266Z" fill="white"/>
</svg>
