<svg width="390" height="844" viewBox="0 0 390 844" fill="none" xmlns="http://www.w3.org/2000/svg">
<path d="M2 464.5C1.2 465.7 0.333333 467.333 0 468V858H390V375C389 375.5 386.5 377.2 384.5 380C382 383.5 383.5 385.5 382.5 390C381.5 394.5 371.5 391.5 372 401C372.5 410.5 380.5 412.5 381 413C381.5 413.5 382.5 418 381.5 419.5C380.5 421 377.5 421 372.5 422C367.5 423 358 425.5 355.5 434C353 442.5 358 445 358 447.5C358 449.5 355.333 451 354 451.5C354 450.167 353.1 447.5 349.5 447.5C345.9 447.5 341 451.833 339 454C338.833 454 338.4 453.2 338 450C337.5 446 332 443 330 446.5C328.4 449.3 328.667 452.667 329 454C328.167 455 326 457.3 324 458.5C321.5 460 316.5 459.5 316.5 465.5C316.5 471.5 327 469.5 327 470.5C327 471.5 321.5 474 316.5 474C311.5 474 310 473 308.5 472C307 471 308 469.5 308 466.5C308 463.5 305 460 304 459C303 458 303.5 456.5 302 454C300.8 452 297.167 452.5 295.5 453C296.167 452.333 297.6 450.4 298 448C298.5 445 299 443.5 296 441C293.6 439 290 441.5 288.5 443C287.5 440 285.5 436.5 282 437C278.5 437.5 275 446 274 446C273 446 272 444.5 269.5 444.5C267 444.5 265 448 263.5 448C262 448 253.5 447.5 254 454.5C254.5 461.5 268 465.5 268.5 467.5C269 469.5 266 470.5 261.5 473.5C257.9 475.9 254 476.5 252.5 476.5C253.167 475.833 253.8 473.4 251 469C247.5 463.5 242 467 242 470.5V477C241.333 476.667 239.8 476.4 239 478C238 480 238 481 236.5 484C235.3 486.4 233 488.667 232 489.5C232.167 487.667 232.2 483.4 231 481C229.5 478 225 479.5 223 482C221 484.5 221 490.5 219.5 490.5C218 490.5 218 489.5 215 484.5C212 479.5 205 477 205 480C205 483 206 485 206 489C206 493 205 502.5 208.5 509C212 515.5 217 515 217.5 517C218 519 215.5 524.5 214 523.5C212.5 522.5 213.5 520 208.5 519C203.5 518 197.5 522 197 526.5C196.5 531 199 532.5 200.5 535.5C202 538.5 205 550.5 203.5 552C202 553.5 200 549 198 549C196 549 195.5 551 194 550C192.5 549 191 543 189 539.5C187 536 189 536.5 189 529.5C189 522.5 187 519 182.5 519.5C178.9 519.9 177.667 523.667 177.5 525.5C176.833 526 174.9 526.8 172.5 526C169.5 525 169 520 168.5 512.5C168 505 166.5 492.5 161 492C155.5 491.5 155 496 154 496C153 496 153 494.5 151 494C149 493.5 144.5 493 144.5 497.5C144.5 502 146.5 503 146 505.5C145.5 508 139.5 507 138.5 506C137.5 505 137.5 502.5 135 499C132.5 495.5 128.5 495 128 488.5C127.5 482 134 477 134 473C134 469 128.5 465.5 125 465C122.2 464.6 121.167 469.5 121 472C120.833 469 120 461.8 118 457C115.5 451 110 440 106 440C102 440 92.5 452 93 459C93.5 466 96 469.5 95.5 471C95 472.5 90 473.5 87.5 472.5C85 471.5 85.5 470.5 84 470.5C82.5 470.5 82 472 80 472C78 472 79 470.5 77.5 469C76.3 467.8 75.3333 467.5 75 467.5C77 466 80.3 462.2 77.5 459C74 455 71 459 69.5 461C68 463 64 464.5 61.5 464C59.5 463.6 57.6667 462.5 57 462C57.3333 461 58.2 458.9 59 458.5C60 458 61 460.5 65 458C69 455.5 69 449 68 448.5C67.2 448.1 66.3333 449 66 449.5C66.3333 449 66.7 446.5 65.5 440.5C64 433 54.5 431 51 436.5C47.5 442 49 446 49 451C49 455 47 456 46 456C45.8333 455 45.5 452.7 45.5 451.5C45.5 450 43.5 447 42 447C40.5 447 38 447.5 38 452C38 455.6 39.3333 457.833 40 458.5C39.1667 458.667 37.2 459.2 36 460C34.8 460.8 34.5 462 34.5 462.5C34.3333 462.333 33.6 461.8 32 461C30.4 460.2 27.6667 460.667 26.5 461C28.3333 458.667 31.8 452.9 31 448.5C30 443 27 447 26 448.5C25 450 22 450.5 18.5 451C15.7 451.4 14 453.167 13.5 454C13.6667 452.833 14 450 14 448C14 445.5 13.5 443 14 440.5C14.5 438 16.5 437 15.5 436C14.5 435 7 437 5 445.5C3 454 5.5 460.5 5 462C4.5 463.5 3 463 2 464.5Z" fill="#93C48B"/>
<path d="M2 152.5C1.2 151.3 0.333333 149.667 0 149V-241H390V242C389 241.5 386.5 239.8 384.5 237C382 233.5 383.5 231.5 382.5 227C381.5 222.5 371.5 225.5 372 216C372.5 206.5 380.5 204.5 381 204C381.5 203.5 382.5 199 381.5 197.5C380.5 196 377.5 196 372.5 195C367.5 194 358 191.5 355.5 183C353 174.5 358 172 358 169.5C358 167.5 355.333 166 354 165.5C354 166.833 353.1 169.5 349.5 169.5C345.9 169.5 341 165.167 339 163C338.833 163 338.4 163.8 338 167C337.5 171 332 174 330 170.5C328.4 167.7 328.667 164.333 329 163C328.167 162 326 159.7 324 158.5C321.5 157 316.5 157.5 316.5 151.5C316.5 145.5 327 147.5 327 146.5C327 145.5 321.5 143 316.5 143C311.5 143 310 144 308.5 145C307 146 308 147.5 308 150.5C308 153.5 305 157 304 158C303 159 303.5 160.5 302 163C300.8 165 297.167 164.5 295.5 164C296.167 164.667 297.6 166.6 298 169C298.5 172 299 173.5 296 176C293.6 178 290 175.5 288.5 174C287.5 177 285.5 180.5 282 180C278.5 179.5 275 171 274 171C273 171 272 172.5 269.5 172.5C267 172.5 265 169 263.5 169C262 169 253.5 169.5 254 162.5C254.5 155.5 268 151.5 268.5 149.5C269 147.5 266 146.5 261.5 143.5C257.9 141.1 254 140.5 252.5 140.5C253.167 141.167 253.8 143.6 251 148C247.5 153.5 242 150 242 146.5V140C241.333 140.333 239.8 140.6 239 139C238 137 238 136 236.5 133C235.3 130.6 233 128.333 232 127.5C232.167 129.333 232.2 133.6 231 136C229.5 139 225 137.5 223 135C221 132.5 221 126.5 219.5 126.5C218 126.5 218 127.5 215 132.5C212 137.5 205 140 205 137C205 134 206 132 206 128C206 124 205 114.5 208.5 108C212 101.5 217 102 217.5 100C218 98 215.5 92.5 214 93.5C212.5 94.5 213.5 97 208.5 98C203.5 99 197.5 95 197 90.5C196.5 86 199 84.5 200.5 81.5C202 78.5 205 66.5 203.5 65C202 63.5 200 68 198 68C196 68 195.5 66 194 67C192.5 68 191 74 189 77.5C187 81 189 80.5 189 87.5C189 94.5 187 98 182.5 97.5C178.9 97.1 177.667 93.3333 177.5 91.5C176.833 91 174.9 90.2 172.5 91C169.5 92 169 97 168.5 104.5C168 112 166.5 124.5 161 125C155.5 125.5 155 121 154 121C153 121 153 122.5 151 123C149 123.5 144.5 124 144.5 119.5C144.5 115 146.5 114 146 111.5C145.5 109 139.5 110 138.5 111C137.5 112 137.5 114.5 135 118C132.5 121.5 128.5 122 128 128.5C127.5 135 134 140 134 144C134 148 128.5 151.5 125 152C122.2 152.4 121.167 147.5 121 145C120.833 148 120 155.2 118 160C115.5 166 110 177 106 177C102 177 92.5 165 93 158C93.5 151 96 147.5 95.5 146C95 144.5 90 143.5 87.5 144.5C85 145.5 85.5 146.5 84 146.5C82.5 146.5 82 145 80 145C78 145 79 146.5 77.5 148C76.3 149.2 75.3333 149.5 75 149.5C77 151 80.3 154.8 77.5 158C74 162 71 158 69.5 156C68 154 64 152.5 61.5 153C59.5 153.4 57.6667 154.5 57 155C57.3333 156 58.2 158.1 59 158.5C60 159 61 156.5 65 159C69 161.5 69 168 68 168.5C67.2 168.9 66.3333 168 66 167.5C66.3333 168 66.7 170.5 65.5 176.5C64 184 54.5 186 51 180.5C47.5 175 49 171 49 166C49 162 47 161 46 161C45.8333 162 45.5 164.3 45.5 165.5C45.5 167 43.5 170 42 170C40.5 170 38 169.5 38 165C38 161.4 39.3333 159.167 40 158.5C39.1667 158.333 37.2 157.8 36 157C34.8 156.2 34.5 155 34.5 154.5C34.3333 154.667 33.6 155.2 32 156C30.4 156.8 27.6667 156.333 26.5 156C28.3333 158.333 31.8 164.1 31 168.5C30 174 27 170 26 168.5C25 167 22 166.5 18.5 166C15.7 165.6 14 163.833 13.5 163C13.6667 164.167 14 167 14 169C14 171.5 13.5 174 14 176.5C14.5 179 16.5 180 15.5 181C14.5 182 7 180 5 171.5C3 163 5.5 156.5 5 155C4.5 153.5 3 154 2 152.5Z" fill="#93C48B"/>
<path d="M0 519C0.5 518.5 1.8 517.4 3 517C4.5 516.5 6 516.5 7 515.5C7.8 514.7 8.66667 514.833 9 515C8.66667 514.167 8.2 511.8 9 509C10 505.5 12.5 503.5 13.5 503.5C14.5 503.5 16.5 508 17 511.5C17.5 515 16.5 516.5 17.5 517C18.5 517.5 20.5 519 23 518.5C25 518.1 26.5 516.667 27 516C26.6667 514.167 26.4 509.9 28 507.5C30 504.5 32.5 504 33.5 504.5C34.5 505 35.5 507 35.5 509.5C36.5 508.5 39.6 506.7 44 507.5C49.5 508.5 49.5 510 49.5 511C49.5 512 48.5 514 45 516.5C42.2 518.5 37.5 519.667 35.5 520C36.5 520.167 38.7 520.7 39.5 521.5C40.3 522.3 40.5 523.167 40.5 523.5C41.5 522 44.9 519.1 50.5 519.5C57.5 520 59.5 522 60 523.5C60.4 524.7 58.1667 526 57 526.5C59 526.833 63.7 528.2 66.5 531C69.3 533.8 71.3333 539.167 72 541.5C72.3333 539.333 73.3 534 74.5 530C76 525 79 523.5 82 524.5C85 525.5 84 533 83.5 535C83.1 536.6 83 538 83 538.5C85.1667 534.5 92.2 526.7 103 527.5C116.5 528.5 118 532 115 540.5C112.931 546.363 109.722 548.434 107.809 548.894C108.89 548.826 110.815 548.903 113.5 549.5C118 550.5 123.5 553.5 123.5 555C123.5 556.5 120 559.5 114.5 560C115 561.833 115.8 566.4 115 570C114 574.5 110.5 576 108.5 576.5C106.9 576.9 104.833 576.667 104 576.5C104.667 577.833 106.3 581 107.5 583C108.7 585 110 586.5 110.5 587C111.667 586.667 114.5 586.4 116.5 588C118.5 589.6 120 594.667 120.5 597C121.167 596 123 593.8 125 593C127 592.2 129.5 592 130.5 592C129.167 590.833 126.8 586.8 128 580C129.5 571.5 136.5 567 140 568.5C143.5 570 142 575.5 142 578.5C142 581.5 141.5 584 142.5 584.5C143.5 585 149.5 577.5 155.5 576C161.5 574.5 167 574.5 167.5 576C167.9 577.2 164 581.833 162 584C162.667 583.667 164.4 583.3 166 584.5C167.6 585.7 169.667 588.667 170.5 590C170.667 588.667 171.6 585.4 174 583C177 580 180.5 578 182 579C183.5 580 183.5 583.5 183.5 586C183.5 588.5 181.5 590.5 181.5 593C181.5 595 181.833 597.5 182 598.5C183 597.5 185.8 595 189 593C193 590.5 196.5 589 198.5 590C200.5 591 199 598.5 194.5 602C190.9 604.8 187.667 606.167 186.5 606.5C187.333 607.5 189.7 610 192.5 612C196 614.5 199.5 614 201 615.5C202.2 616.7 202.167 620 202 621.5C203.5 619.5 206.2 614.9 205 612.5C203.5 609.5 201.5 607 202.5 604.5C203.5 602 209.5 602.5 212 605C214 607 215.5 610.167 216 611.5C216.333 610 217.6 606.8 220 606C223 605 225 605 226 606C226.8 606.8 228 608.333 228.5 609C229.333 608.333 230.9 606.8 230.5 606C230 605 225 601 226 593.5C227 586 229.5 585 232 585C234.5 585 235 590 235.5 591.5C235.9 592.7 236.667 594.667 237 595.5C238.5 594 241.4 590.1 241 586.5C240.5 582 228.5 583.5 228.5 573.5C228.5 565.5 237.5 567.5 242 569.5C240.333 568.5 236.8 566.1 236 564.5C235.2 562.9 235 561.5 235 561C230 559.667 219.9 556.1 219.5 552.5C219.1 548.9 223.667 545.667 226 544.5C225 543.333 222.9 539.6 222.5 534C222 527 221.5 524.5 222.5 523.5C223.5 522.5 230.5 527 233.5 531C236.5 535 238 540.5 239 541.5C240 542.5 242 544 243 542C244 540 244 533.5 245 528C246 522.5 247 517 250 517C253 517 262.5 525.5 262 533C261.5 540.5 260 540.5 260.5 541.5C261 542.5 264 541 266 537.5C268 534 272.5 533 273.5 531C274.5 529 274 525.5 276 525C278 524.5 280.5 528.5 279.5 534.5C278.5 540.5 278 543.5 279.5 544C281 544.5 283.5 540.5 287 540.5C290.5 540.5 292.5 544 293.5 544C294.5 544 293 537 293.5 533C294 529 296.5 528 298 528C299.5 528 304 529.5 304.5 533.5C304.9 536.7 305.333 538.833 305.5 539.5C306 537.667 307.8 533 311 529C315 524 319.5 523 321.5 524C323.5 525 323 531.5 320 536.5C317 541.5 315.5 542.5 315.5 544C315.5 545.5 318 546 320 547.5C321.6 548.7 322.333 550 322.5 550.5C322.833 548.333 324.4 544 328 544C332.5 544 333 549 333 551.5C333 554 332 557.5 333 558C334 558.5 335.5 555 338 553.5C340 552.3 343.833 552 345.5 552C345.5 549.333 347 544 353 544C360.5 544 360 552.5 360.5 553C361 553.5 363 551 363 550C363 549 358 548 358 539.5C358 532.7 361 532.667 362.5 533.5C360.833 531.333 357.6 525.4 358 519C358.5 511 361.5 512 363 512C364.5 512 367 517.5 368 519C369 520.5 370 522.5 371 522.5C372 522.5 372 517 375 512C378 507 379 506.5 380 503.5C381 500.5 382 496.5 384.5 493C386.5 490.2 389 488.5 390 488V872H0V519Z" fill="#52803F"/>
<path d="M0 120C0.5 120.5 1.8 121.6 3 122C4.5 122.5 6 122.5 7 123.5C7.8 124.3 8.66667 124.167 9 124C8.66667 124.833 8.2 127.2 9 130C10 133.5 12.5 135.5 13.5 135.5C14.5 135.5 16.5 131 17 127.5C17.5 124 16.5 122.5 17.5 122C18.5 121.5 20.5 120 23 120.5C25 120.9 26.5 122.333 27 123C26.6667 124.833 26.4 129.1 28 131.5C30 134.5 32.5 135 33.5 134.5C34.5 134 35.5 132 35.5 129.5C36.5 130.5 39.6 132.3 44 131.5C49.5 130.5 49.5 129 49.5 128C49.5 127 48.5 125 45 122.5C42.2 120.5 37.5 119.333 35.5 119C36.5 118.833 38.7 118.3 39.5 117.5C40.3 116.7 40.5 115.833 40.5 115.5C41.5 117 44.9 119.9 50.5 119.5C57.5 119 59.5 117 60 115.5C60.4 114.3 58.1667 113 57 112.5C59 112.167 63.7 110.8 66.5 108C69.3 105.2 71.3333 99.8333 72 97.5C72.3333 99.6667 73.3 105 74.5 109C76 114 79 115.5 82 114.5C85 113.5 84 106 83.5 104C83.1 102.4 83 101 83 100.5C85.1667 104.5 92.2 112.3 103 111.5C116.5 110.5 118 107 115 98.5C112.931 92.6375 109.722 90.5657 107.809 90.1058C108.89 90.1742 110.815 90.0967 113.5 89.5C118 88.5 123.5 85.5 123.5 84C123.5 82.5 120 79.5 114.5 79C115 77.1667 115.8 72.6 115 69C114 64.5 110.5 63 108.5 62.5C106.9 62.1 104.833 62.3333 104 62.5C104.667 61.1667 106.3 58 107.5 56C108.7 54 110 52.5 110.5 52C111.667 52.3333 114.5 52.6 116.5 51C118.5 49.4 120 44.3333 120.5 42C121.167 43 123 45.2 125 46C127 46.8 129.5 47 130.5 47C129.167 48.1667 126.8 52.2 128 59C129.5 67.5 136.5 72 140 70.5C143.5 69 142 63.5 142 60.5C142 57.5 141.5 55 142.5 54.5C143.5 54 149.5 61.5 155.5 63C161.5 64.5 167 64.5 167.5 63C167.9 61.8 164 57.1667 162 55C162.667 55.3333 164.4 55.7 166 54.5C167.6 53.3 169.667 50.3333 170.5 49C170.667 50.3333 171.6 53.6 174 56C177 59 180.5 61 182 60C183.5 59 183.5 55.5 183.5 53C183.5 50.5 181.5 48.5 181.5 46C181.5 44 181.833 41.5 182 40.5C183 41.5 185.8 44 189 46C193 48.5 196.5 50 198.5 49C200.5 48 199 40.5 194.5 37C190.9 34.2 187.667 32.8333 186.5 32.5C187.333 31.5 189.7 29 192.5 27C196 24.5 199.5 25 201 23.5C202.2 22.3 202.167 19 202 17.5C203.5 19.5 206.2 24.1 205 26.5C203.5 29.5 201.5 32 202.5 34.5C203.5 37 209.5 36.5 212 34C214 32 215.5 28.8333 216 27.5C216.333 29 217.6 32.2 220 33C223 34 225 34 226 33C226.8 32.2 228 30.6667 228.5 30C229.333 30.6667 230.9 32.2 230.5 33C230 34 225 38 226 45.5C227 53 229.5 54 232 54C234.5 54 235 49 235.5 47.5C235.9 46.3 236.667 44.3333 237 43.5C238.5 45 241.4 48.9 241 52.5C240.5 57 228.5 55.5 228.5 65.5C228.5 73.5 237.5 71.5 242 69.5C240.333 70.5 236.8 72.9 236 74.5C235.2 76.1 235 77.5 235 78C230 79.3333 219.9 82.9 219.5 86.5C219.1 90.1 223.667 93.3333 226 94.5C225 95.6667 222.9 99.4 222.5 105C222 112 221.5 114.5 222.5 115.5C223.5 116.5 230.5 112 233.5 108C236.5 104 238 98.5 239 97.5C240 96.5 242 95 243 97C244 99 244 105.5 245 111C246 116.5 247 122 250 122C253 122 262.5 113.5 262 106C261.5 98.5 260 98.5 260.5 97.5C261 96.5 264 98 266 101.5C268 105 272.5 106 273.5 108C274.5 110 274 113.5 276 114C278 114.5 280.5 110.5 279.5 104.5C278.5 98.5 278 95.5 279.5 95C281 94.5 283.5 98.5 287 98.5C290.5 98.5 292.5 95 293.5 95C294.5 95 293 102 293.5 106C294 110 296.5 111 298 111C299.5 111 304 109.5 304.5 105.5C304.9 102.3 305.333 100.167 305.5 99.5C306 101.333 307.8 106 311 110C315 115 319.5 116 321.5 115C323.5 114 323 107.5 320 102.5C317 97.5 315.5 96.5 315.5 95C315.5 93.5 318 93 320 91.5C321.6 90.3 322.333 89 322.5 88.5C322.833 90.6667 324.4 95 328 95C332.5 95 333 90 333 87.5C333 85 332 81.5 333 81C334 80.5 335.5 84 338 85.5C340 86.7 343.833 87 345.5 87C345.5 89.6667 347 95 353 95C360.5 95 360 86.5 360.5 86C361 85.5 363 88 363 89C363 90 358 91 358 99.5C358 106.3 361 106.333 362.5 105.5C360.833 107.667 357.6 113.6 358 120C358.5 128 361.5 127 363 127C364.5 127 367 121.5 368 120C369 118.5 370 116.5 371 116.5C372 116.5 372 122 375 127C378 132 379 132.5 380 135.5C381 138.5 382 142.5 384.5 146C386.5 148.8 389 150.5 390 151V-233H0V120Z" fill="#52803F"/>
<path d="M353.874 333.039C353.665 330.321 355.814 328 358.541 328C361.267 328 363.416 330.321 363.207 333.039L362.498 342.254C362.339 344.322 360.615 345.919 358.541 345.919C356.467 345.919 354.742 344.322 354.583 342.254L353.874 333.039Z" fill="#52803F"/>
<path d="M343.248 337.049C342.575 334.918 343.858 332.665 346.034 332.157C348.21 331.65 350.358 333.102 350.697 335.311L351.847 342.798C352.106 344.478 351.027 346.074 349.371 346.46C347.715 346.846 346.042 345.893 345.53 344.272L343.248 337.049Z" fill="#52803F"/>
<path d="M373.752 337.049C374.425 334.918 373.142 332.665 370.966 332.157C368.79 331.65 366.642 333.102 366.303 335.311L365.153 342.798C364.894 344.478 365.973 346.074 367.629 346.46C369.285 346.846 370.958 345.893 371.47 344.272L373.752 337.049Z" fill="#52803F"/>
<path d="M27.8743 271.039C27.6652 268.321 29.8145 266 32.5408 266C35.2671 266 37.4163 268.321 37.2073 271.039L36.4984 280.254C36.3393 282.322 34.6149 283.919 32.5408 283.919C30.4666 283.919 28.7422 282.322 28.5831 280.254L27.8743 271.039Z" fill="#52803F"/>
<path d="M17.2478 275.049C16.5747 272.918 17.858 270.665 20.0342 270.157C22.2103 269.65 24.358 271.102 24.6973 273.311L25.8475 280.798C26.1056 282.478 25.0265 284.074 23.371 284.46C21.7154 284.846 20.0416 283.893 19.5296 282.272L17.2478 275.049Z" fill="#52803F"/>
<path d="M47.7522 275.049C48.4253 272.918 47.142 270.665 44.9658 270.157C42.7897 269.65 40.642 271.102 40.3027 273.311L39.1525 280.798C38.8944 282.478 39.9735 284.074 41.629 284.46C43.2846 284.846 44.9584 283.893 45.4704 282.272L47.7522 275.049Z" fill="#52803F"/>
<path d="M314.874 155.039C314.665 152.321 316.814 150 319.541 150C322.267 150 324.416 152.321 324.207 155.039L323.498 164.254C323.339 166.322 321.615 167.919 319.541 167.919C317.467 167.919 315.742 166.322 315.583 164.254L314.874 155.039Z" fill="#52803F"/>
<path d="M304.248 159.049C303.575 156.918 304.858 154.665 307.034 154.157C309.21 153.65 311.358 155.102 311.697 157.311L312.847 164.798C313.106 166.478 312.027 168.074 310.371 168.46C308.715 168.846 307.042 167.893 306.53 166.272L304.248 159.049Z" fill="#52803F"/>
<path d="M334.752 159.049C335.425 156.918 334.142 154.665 331.966 154.157C329.79 153.65 327.642 155.102 327.303 157.311L326.153 164.798C325.894 166.478 326.973 168.074 328.629 168.46C330.285 168.846 331.958 167.893 332.47 166.272L334.752 159.049Z" fill="#52803F"/>
</svg>
