<svg width="326" height="68" viewBox="0 0 326 68" fill="none" xmlns="http://www.w3.org/2000/svg">
<rect x="-1" y="1" width="324" height="66" rx="15" transform="matrix(-1 0 0 1 324 0)" stroke="#4F5DDB" stroke-width="2"/>
<path d="M122.045 43V26.0898H133.248V29.0078H125.584V33.0742H132.814V35.8281H125.584V40.082H133.248V43H122.045ZM140.35 43.2461C139.295 43.2461 138.381 42.9844 137.607 42.4609C136.842 41.9375 136.252 41.1875 135.838 40.2109C135.424 39.2266 135.217 38.0547 135.217 36.6953V36.6719C135.217 35.3047 135.424 34.1328 135.838 33.1562C136.252 32.1797 136.842 31.4336 137.607 30.918C138.381 30.3945 139.295 30.1328 140.35 30.1328C140.943 30.1328 141.49 30.2305 141.99 30.4258C142.498 30.6133 142.939 30.8867 143.314 31.2461C143.697 31.6055 143.998 32.0352 144.217 32.5352H144.322V25.9258H147.744V43H144.322V40.8906H144.217C143.998 41.3828 143.701 41.8047 143.326 42.1562C142.951 42.5 142.514 42.7695 142.014 42.9648C141.514 43.1523 140.959 43.2461 140.35 43.2461ZM141.498 40.4102C142.061 40.4102 142.553 40.2617 142.975 39.9648C143.404 39.6602 143.736 39.2305 143.971 38.6758C144.205 38.1133 144.322 37.4531 144.322 36.6953V36.6836C144.322 35.918 144.201 35.2578 143.959 34.7031C143.725 34.1484 143.396 33.7227 142.975 33.4258C142.553 33.1211 142.061 32.9688 141.498 32.9688C140.928 32.9688 140.432 33.1172 140.01 33.4141C139.588 33.7109 139.264 34.1367 139.037 34.6914C138.811 35.2461 138.697 35.9062 138.697 36.6719V36.6953C138.697 37.4609 138.811 38.1211 139.037 38.6758C139.264 39.2305 139.588 39.6602 140.01 39.9648C140.432 40.2617 140.928 40.4102 141.498 40.4102ZM150.299 43V30.3789H153.721V43H150.299ZM152.01 28.7031C151.494 28.7031 151.057 28.5273 150.697 28.1758C150.346 27.8164 150.17 27.3906 150.17 26.8984C150.17 26.3984 150.346 25.9727 150.697 25.6211C151.057 25.2695 151.494 25.0938 152.01 25.0938C152.533 25.0938 152.971 25.2695 153.322 25.6211C153.682 25.9727 153.861 26.3984 153.861 26.8984C153.861 27.3906 153.682 27.8164 153.322 28.1758C152.971 28.5273 152.533 28.7031 152.01 28.7031ZM161.279 43.2227C159.85 43.2227 158.799 42.9336 158.127 42.3555C157.455 41.7773 157.119 40.8242 157.119 39.4961V32.957H155.326V30.3789H157.119V27.3086H160.576V30.3789H162.943V32.957H160.576V39.0508C160.576 39.6289 160.705 40.0391 160.963 40.2812C161.229 40.5156 161.627 40.6328 162.158 40.6328C162.322 40.6328 162.463 40.6289 162.58 40.6211C162.705 40.6055 162.826 40.5898 162.943 40.5742V43.082C162.748 43.1211 162.51 43.1523 162.229 43.1758C161.947 43.207 161.631 43.2227 161.279 43.2227Z" fill="#4F5DDB"/>
<path d="M209.731 28.6132L205.541 24.4245C205.19 24.073 204.713 23.8755 204.216 23.8755C203.718 23.8755 203.242 24.073 202.89 24.4245L191.329 35.9848C191.154 36.1584 191.015 36.365 190.921 36.5925C190.827 36.8201 190.779 37.0641 190.779 37.3104V41.5001C190.779 41.9974 190.977 42.4743 191.328 42.8259C191.68 43.1775 192.157 43.3751 192.654 43.3751H208.404C208.703 43.3751 208.989 43.2566 209.2 43.0456C209.411 42.8346 209.529 42.5485 209.529 42.2501C209.529 41.9517 209.411 41.6656 209.2 41.4546C208.989 41.2436 208.703 41.1251 208.404 41.1251H199.873L209.731 31.2654C209.905 31.0913 210.043 30.8845 210.138 30.657C210.232 30.4295 210.28 30.1856 210.28 29.9393C210.28 29.693 210.232 29.4491 210.138 29.2216C210.043 28.9941 209.905 28.7873 209.731 28.6132ZM196.686 41.1251H193.029V37.4688L200.904 29.5938L204.561 33.2501L196.686 41.1251ZM206.154 31.6563L202.498 28.0001L204.217 26.2807L207.874 29.937L206.154 31.6563Z" fill="#4F5DDB"/>
</svg>
