<svg width="125" height="110" viewBox="0 0 125 110" fill="none" xmlns="http://www.w3.org/2000/svg">
<path d="M16.4394 40.956L16.4794 40.8785M16.4394 40.956L17.0303 41.1637L16.4794 40.8785M16.4394 40.956L16.4794 40.8785M16.4394 40.956L16.4794 40.8785M65.1263 104.693C93.6801 102.692 115.835 79.0083 114.033 51.2845C113.855 48.5465 113.448 45.8734 112.83 43.2818L113.244 42.9894C116.999 40.3391 119.31 36.3252 119.492 32.1974C119.681 27.8854 117.432 23.5152 112.586 21.7875L111.048 26.0998L112.586 21.7875L93.8509 15.1081C84.1363 8.0265 71.7648 4.21386 58.603 5.13608C47.8839 5.88714 38.0965 9.67679 30.1355 15.5744L11.1612 23.3786C11.1612 23.3787 11.1611 23.3787 11.1611 23.3787C8.79492 24.3519 6.87836 26.0553 5.83002 28.3959C4.8084 30.6769 4.8189 33.0936 5.38225 35.2168C6.21205 38.3442 8.29509 41.1975 11.131 43.3818C9.87381 48.2242 9.35699 53.3219 9.69656 58.5446C11.5006 86.2917 36.5566 106.695 65.1263 104.693Z" fill="white" stroke="#FAD1D1" stroke-width="10"/>
<path d="M56.1039 10.4043C65.3996 20.2221 68.2015 35.4316 62.028 48.4913C54.2095 65.031 34.9554 71.8593 19.023 63.7427C17.6062 63.0209 16.2633 62.2053 14.998 61.3065C14.8581 60.2893 14.7536 59.2602 14.686 58.2201C14.2994 52.273 15.1511 46.5111 17.0303 41.1635L16.4794 40.8784C9.64528 37.3423 7.74731 30.189 13.0631 28.0027L32.6268 19.956C39.2197 14.9415 47.2551 11.5297 56.1039 10.4043Z" fill="#FFB800"/>
<path d="M79.6238 36.6591C78.3392 37.0061 77.0119 38.4828 77.9708 39.5417C78.6681 40.3118 79.4083 39.9521 79.8799 39.4919C80.3514 39.0318 80.8958 39.0445 81.3245 39.7141C81.7532 40.3836 81.0931 41.0279 80.0701 41.6636C79.047 42.2994 77.428 41.8848 76.3891 40.5414C75.3502 39.198 75.5958 37.5076 76.4516 36.491C77.3075 35.4744 79.165 34.3869 80.704 34.517C82.2429 34.6471 83.8548 35.25 85.1481 37.0705C86.4414 38.891 86.0801 41.2383 85.3914 42.6357C84.7028 44.0331 84.0213 45.2421 84.6315 45.916C85.2417 46.5898 86.3305 46.6152 87.795 43.9166C89.2594 41.2181 88.6761 37.4354 87.0412 35.0415C85.4064 32.6477 81.4781 30.8601 77.9731 32.2861C74.4681 33.7121 73.5694 35.8585 73.1938 38.5824C72.8182 41.3062 74.8303 43.3319 77.1538 44.3283C79.4773 45.3248 82.0678 44.0659 83.4966 42.3089C84.9254 40.5518 83.8278 38.359 83.1304 37.5889C82.4331 36.8188 80.9084 36.3121 79.6238 36.6591Z" fill="black"/>
<path d="M44.0782 37.5063C45.3925 37.699 46.8733 39.0091 46.0369 40.1745C45.4287 41.0221 44.6538 40.7523 44.1348 40.3509C43.6159 39.9495 43.0764 40.0265 42.7239 40.7425C42.3715 41.4584 43.098 42.0204 44.1842 42.531C45.2704 43.0416 46.8333 42.4381 47.718 40.9806C48.6027 39.523 48.1731 37.8727 47.2113 36.964C46.2494 36.0552 44.2846 35.1946 42.77 35.5059C41.2553 35.8172 39.7201 36.6069 38.6351 38.5685C37.55 40.5301 38.1667 42.8194 39.0042 44.1262C39.8418 45.433 40.6516 46.5536 40.1193 47.2952C39.587 48.0368 38.5081 48.1908 36.757 45.6831C35.0058 43.1754 35.1701 39.3483 36.5315 36.7767C37.893 34.2051 41.5994 31.9644 45.2381 32.9665C48.8769 33.9685 50.0053 35.9946 50.6775 38.6563C51.3496 41.318 49.573 43.5685 47.374 44.8333C45.175 46.0981 42.4632 45.1539 40.8508 43.5773C39.2385 42.0007 40.0882 39.6924 40.6965 38.8448C41.3048 37.9972 42.7639 37.3135 44.0782 37.5063Z" fill="black"/>
<path d="M58.2651 46.0893C58.2418 45.3037 58.8365 44.6472 59.5933 44.6231L67.3681 44.3754C68.1249 44.3513 68.7572 44.9687 68.7805 45.7543C68.8037 46.54 68.209 47.1964 67.4522 47.2205L59.6774 47.4682C58.9206 47.4923 58.2883 46.8749 58.2651 46.0893Z" fill="black"/>
</svg>
