<svg width="393" height="852" viewBox="0 0 393 852" fill="none" xmlns="http://www.w3.org/2000/svg">
<g clip-path="url(#clip0_352_632)">
<rect width="393" height="852" fill="#CBEFBF"/>
<path d="M2.01538 444.5C1.20923 445.7 0.335897 447.333 0 448V838H393V355C391.992 355.5 389.473 357.2 387.458 360C384.938 363.5 386.45 365.5 385.442 370C384.435 374.5 374.358 371.5 374.862 381C375.365 390.5 383.427 392.5 383.931 393C384.435 393.5 385.442 398 384.435 399.5C383.427 401 380.404 401 375.365 402C370.327 403 360.754 405.5 358.235 414C355.715 422.5 360.754 425 360.754 427.5C360.754 429.5 358.067 431 356.723 431.5C356.723 430.167 355.816 427.5 352.188 427.5C348.561 427.5 343.623 431.833 341.608 434C341.44 434 341.003 433.2 340.6 430C340.096 426 334.554 423 332.538 426.5C330.926 429.3 331.195 432.667 331.531 434C330.691 435 328.508 437.3 326.492 438.5C323.973 440 318.935 439.5 318.935 445.5C318.935 451.5 329.515 449.5 329.515 450.5C329.515 451.5 323.973 454 318.935 454C313.896 454 312.385 453 310.873 452C309.362 451 310.369 449.5 310.369 446.5C310.369 443.5 307.346 440 306.338 439C305.331 438 305.835 436.5 304.323 434C303.114 432 299.453 432.5 297.773 433C298.445 432.333 299.889 430.4 300.292 428C300.796 425 301.3 423.5 298.277 421C295.858 419 292.231 421.5 290.719 423C289.712 420 287.696 416.5 284.169 417C280.642 417.5 277.115 426 276.108 426C275.1 426 274.092 424.5 271.573 424.5C269.054 424.5 267.038 428 265.527 428C264.015 428 255.45 427.5 255.954 434.5C256.458 441.5 270.062 445.5 270.565 447.5C271.069 449.5 268.046 450.5 263.512 453.5C259.884 455.9 255.954 456.5 254.442 456.5C255.114 455.833 255.752 453.4 252.931 449C249.404 443.5 243.862 447 243.862 450.5V457C243.19 456.667 241.645 456.4 240.838 458C239.831 460 239.831 461 238.319 464C237.11 466.4 234.792 468.667 233.785 469.5C233.953 467.667 233.986 463.4 232.777 461C231.265 458 226.731 459.5 224.715 462C222.7 464.5 222.7 470.5 221.188 470.5C219.677 470.5 219.677 469.5 216.654 464.5C213.631 459.5 206.577 457 206.577 460C206.577 463 207.585 465 207.585 469C207.585 473 206.577 482.5 210.104 489C213.631 495.5 218.669 495 219.173 497C219.677 499 217.158 504.5 215.646 503.5C214.135 502.5 215.142 500 210.104 499C205.065 498 199.019 502 198.515 506.5C198.012 511 200.531 512.5 202.042 515.5C203.554 518.5 206.577 530.5 205.065 532C203.554 533.5 201.538 529 199.523 529C197.508 529 197.004 531 195.492 530C193.981 529 192.469 523 190.454 519.5C188.438 516 190.454 516.5 190.454 509.5C190.454 502.5 188.438 499 183.904 499.5C180.276 499.9 179.033 503.667 178.865 505.5C178.194 506 176.245 506.8 173.827 506C170.804 505 170.3 500 169.796 492.5C169.292 485 167.781 472.5 162.238 472C156.696 471.5 156.192 476 155.185 476C154.177 476 154.177 474.5 152.162 474C150.146 473.5 145.612 473 145.612 477.5C145.612 482 147.627 483 147.123 485.5C146.619 488 140.573 487 139.565 486C138.558 485 138.558 482.5 136.038 479C133.519 475.5 129.488 475 128.985 468.5C128.481 462 135.031 457 135.031 453C135.031 449 129.488 445.5 125.962 445C123.14 444.6 122.099 449.5 121.931 452C121.763 449 120.923 441.8 118.908 437C116.388 431 110.846 420 106.815 420C102.785 420 93.2115 432 93.7154 439C94.2192 446 96.7385 449.5 96.2346 451C95.7308 452.5 90.6923 453.5 88.1731 452.5C85.6538 451.5 86.1577 450.5 84.6462 450.5C83.1346 450.5 82.6308 452 80.6154 452C78.6 452 79.6077 450.5 78.0962 449C76.8869 447.8 75.9128 447.5 75.5769 447.5C77.5923 446 80.9177 442.2 78.0962 439C74.5692 435 71.5462 439 70.0346 441C68.5231 443 64.4923 444.5 61.9731 444C59.9577 443.6 58.1103 442.5 57.4385 442C57.7744 441 58.6477 438.9 59.4538 438.5C60.4615 438 61.4692 440.5 65.5 438C69.5308 435.5 69.5308 429 68.5231 428.5C67.7169 428.1 66.8436 429 66.5077 429.5C66.8436 429 67.2131 426.5 66.0038 420.5C64.4923 413 54.9192 411 51.3923 416.5C47.8654 422 49.3769 426 49.3769 431C49.3769 435 47.3615 436 46.3538 436C46.1859 435 45.85 432.7 45.85 431.5C45.85 430 43.8346 427 42.3231 427C40.8115 427 38.2923 427.5 38.2923 432C38.2923 435.6 39.6359 437.833 40.3077 438.5C39.4679 438.667 37.4862 439.2 36.2769 440C35.0677 440.8 34.7654 442 34.7654 442.5C34.5974 442.333 33.8585 441.8 32.2462 441C30.6338 440.2 27.8795 440.667 26.7038 441C28.5513 438.667 32.0446 432.9 31.2385 428.5C30.2308 423 27.2077 427 26.2 428.5C25.1923 430 22.1692 430.5 18.6423 431C15.8208 431.4 14.1077 433.167 13.6038 434C13.7718 432.833 14.1077 430 14.1077 428C14.1077 425.5 13.6038 423 14.1077 420.5C14.6115 418 16.6269 417 15.6192 416C14.6115 415 7.05385 417 5.03846 425.5C3.02308 434 5.54231 440.5 5.03846 442C4.53462 443.5 3.02308 443 2.01538 444.5Z" fill="#93C48B"/>
<path d="M2.01538 152.5C1.20923 151.3 0.335897 149.667 0 149V-241H393V242C391.992 241.5 389.473 239.8 387.458 237C384.938 233.5 386.45 231.5 385.442 227C384.435 222.5 374.358 225.5 374.862 216C375.365 206.5 383.427 204.5 383.931 204C384.435 203.5 385.442 199 384.435 197.5C383.427 196 380.404 196 375.365 195C370.327 194 360.754 191.5 358.235 183C355.715 174.5 360.754 172 360.754 169.5C360.754 167.5 358.067 166 356.723 165.5C356.723 166.833 355.816 169.5 352.188 169.5C348.561 169.5 343.623 165.167 341.608 163C341.44 163 341.003 163.8 340.6 167C340.096 171 334.554 174 332.538 170.5C330.926 167.7 331.195 164.333 331.531 163C330.691 162 328.508 159.7 326.492 158.5C323.973 157 318.935 157.5 318.935 151.5C318.935 145.5 329.515 147.5 329.515 146.5C329.515 145.5 323.973 143 318.935 143C313.896 143 312.385 144 310.873 145C309.362 146 310.369 147.5 310.369 150.5C310.369 153.5 307.346 157 306.338 158C305.331 159 305.835 160.5 304.323 163C303.114 165 299.453 164.5 297.773 164C298.445 164.667 299.889 166.6 300.292 169C300.796 172 301.3 173.5 298.277 176C295.858 178 292.231 175.5 290.719 174C289.712 177 287.696 180.5 284.169 180C280.642 179.5 277.115 171 276.108 171C275.1 171 274.092 172.5 271.573 172.5C269.054 172.5 267.038 169 265.527 169C264.015 169 255.45 169.5 255.954 162.5C256.458 155.5 270.062 151.5 270.565 149.5C271.069 147.5 268.046 146.5 263.512 143.5C259.884 141.1 255.954 140.5 254.442 140.5C255.114 141.167 255.752 143.6 252.931 148C249.404 153.5 243.862 150 243.862 146.5V140C243.19 140.333 241.645 140.6 240.838 139C239.831 137 239.831 136 238.319 133C237.11 130.6 234.792 128.333 233.785 127.5C233.953 129.333 233.986 133.6 232.777 136C231.265 139 226.731 137.5 224.715 135C222.7 132.5 222.7 126.5 221.188 126.5C219.677 126.5 219.677 127.5 216.654 132.5C213.631 137.5 206.577 140 206.577 137C206.577 134 207.585 132 207.585 128C207.585 124 206.577 114.5 210.104 108C213.631 101.5 218.669 102 219.173 100C219.677 98 217.158 92.5 215.646 93.5C214.135 94.5 215.142 97 210.104 98C205.065 99 199.019 95 198.515 90.5C198.012 86 200.531 84.5 202.042 81.5C203.554 78.5 206.577 66.5 205.065 65C203.554 63.5 201.538 68 199.523 68C197.508 68 197.004 66 195.492 67C193.981 68 192.469 74 190.454 77.5C188.438 81 190.454 80.5 190.454 87.5C190.454 94.5 188.438 98 183.904 97.5C180.276 97.1 179.033 93.3333 178.865 91.5C178.194 91 176.245 90.2 173.827 91C170.804 92 170.3 97 169.796 104.5C169.292 112 167.781 124.5 162.238 125C156.696 125.5 156.192 121 155.185 121C154.177 121 154.177 122.5 152.162 123C150.146 123.5 145.612 124 145.612 119.5C145.612 115 147.627 114 147.123 111.5C146.619 109 140.573 110 139.565 111C138.558 112 138.558 114.5 136.038 118C133.519 121.5 129.488 122 128.985 128.5C128.481 135 135.031 140 135.031 144C135.031 148 129.488 151.5 125.962 152C123.14 152.4 122.099 147.5 121.931 145C121.763 148 120.923 155.2 118.908 160C116.388 166 110.846 177 106.815 177C102.785 177 93.2115 165 93.7154 158C94.2192 151 96.7385 147.5 96.2346 146C95.7308 144.5 90.6923 143.5 88.1731 144.5C85.6538 145.5 86.1577 146.5 84.6462 146.5C83.1346 146.5 82.6308 145 80.6154 145C78.6 145 79.6077 146.5 78.0962 148C76.8869 149.2 75.9128 149.5 75.5769 149.5C77.5923 151 80.9177 154.8 78.0962 158C74.5692 162 71.5462 158 70.0346 156C68.5231 154 64.4923 152.5 61.9731 153C59.9577 153.4 58.1103 154.5 57.4385 155C57.7744 156 58.6477 158.1 59.4538 158.5C60.4615 159 61.4692 156.5 65.5 159C69.5308 161.5 69.5308 168 68.5231 168.5C67.7169 168.9 66.8436 168 66.5077 167.5C66.8436 168 67.2131 170.5 66.0038 176.5C64.4923 184 54.9192 186 51.3923 180.5C47.8654 175 49.3769 171 49.3769 166C49.3769 162 47.3615 161 46.3538 161C46.1859 162 45.85 164.3 45.85 165.5C45.85 167 43.8346 170 42.3231 170C40.8115 170 38.2923 169.5 38.2923 165C38.2923 161.4 39.6359 159.167 40.3077 158.5C39.4679 158.333 37.4862 157.8 36.2769 157C35.0677 156.2 34.7654 155 34.7654 154.5C34.5974 154.667 33.8585 155.2 32.2462 156C30.6338 156.8 27.8795 156.333 26.7038 156C28.5513 158.333 32.0446 164.1 31.2385 168.5C30.2308 174 27.2077 170 26.2 168.5C25.1923 167 22.1692 166.5 18.6423 166C15.8208 165.6 14.1077 163.833 13.6038 163C13.7718 164.167 14.1077 167 14.1077 169C14.1077 171.5 13.6038 174 14.1077 176.5C14.6115 179 16.6269 180 15.6192 181C14.6115 182 7.05385 180 5.03846 171.5C3.02308 163 5.54231 156.5 5.03846 155C4.53462 153.5 3.02308 154 2.01538 152.5Z" fill="#93C48B"/>
<path d="M0 499C0.503846 498.5 1.81385 497.4 3.02308 497C4.53462 496.5 6.04615 496.5 7.05385 495.5C7.86 494.7 8.73333 494.833 9.06923 495C8.73333 494.167 8.26308 491.8 9.06923 489C10.0769 485.5 12.5962 483.5 13.6038 483.5C14.6115 483.5 16.6269 488 17.1308 491.5C17.6346 495 16.6269 496.5 17.6346 497C18.6423 497.5 20.6577 499 23.1769 498.5C25.1923 498.1 26.7038 496.667 27.2077 496C26.8718 494.167 26.6031 489.9 28.2154 487.5C30.2308 484.5 32.75 484 33.7577 484.5C34.7654 485 35.7731 487 35.7731 489.5C36.7808 488.5 39.9046 486.7 44.3385 487.5C49.8808 488.5 49.8808 490 49.8808 491C49.8808 492 48.8731 494 45.3462 496.5C42.5246 498.5 37.7885 499.667 35.7731 500C36.7808 500.167 38.9977 500.7 39.8038 501.5C40.61 502.3 40.8115 503.167 40.8115 503.5C41.8192 502 45.2454 499.1 50.8885 499.5C57.9423 500 59.9577 502 60.4615 503.5C60.8646 504.7 58.6141 506 57.4385 506.5C59.4538 506.833 64.19 508.2 67.0115 511C69.8331 513.8 71.882 519.167 72.5538 521.5C72.8897 519.333 73.8638 514 75.0731 510C76.5846 505 79.6077 503.5 82.6308 504.5C85.6538 505.5 84.6462 513 84.1423 515C83.7392 516.6 83.6385 518 83.6385 518.5C85.8218 514.5 92.9092 506.7 103.792 507.5C117.396 508.5 118.908 512 115.885 520.5C113.8 526.363 110.566 528.434 108.638 528.894C109.728 528.826 111.667 528.903 114.373 529.5C118.908 530.5 124.45 533.5 124.45 535C124.45 536.5 120.923 539.5 115.381 540C115.885 541.833 116.691 546.4 115.885 550C114.877 554.5 111.35 556 109.335 556.5C107.722 556.9 105.64 556.667 104.8 556.5C105.472 557.833 107.118 561 108.327 563C109.536 565 110.846 566.5 111.35 567C112.526 566.667 115.381 566.4 117.396 568C119.412 569.6 120.923 574.667 121.427 577C122.099 576 123.946 573.8 125.962 573C127.977 572.2 130.496 572 131.504 572C130.16 570.833 127.775 566.8 128.985 560C130.496 551.5 137.55 547 141.077 548.5C144.604 550 143.092 555.5 143.092 558.5C143.092 561.5 142.588 564 143.596 564.5C144.604 565 150.65 557.5 156.696 556C162.742 554.5 168.285 554.5 168.788 556C169.192 557.2 165.262 561.833 163.246 564C163.918 563.667 165.665 563.3 167.277 564.5C168.889 565.7 170.972 568.667 171.812 570C171.979 568.667 172.92 565.4 175.338 563C178.362 560 181.888 558 183.4 559C184.912 560 184.912 563.5 184.912 566C184.912 568.5 182.896 570.5 182.896 573C182.896 575 183.232 577.5 183.4 578.5C184.408 577.5 187.229 575 190.454 573C194.485 570.5 198.012 569 200.027 570C202.042 571 200.531 578.5 195.996 582C192.368 584.8 189.11 586.167 187.935 586.5C188.774 587.5 191.159 590 193.981 592C197.508 594.5 201.035 594 202.546 595.5C203.755 596.7 203.722 600 203.554 601.5C205.065 599.5 207.786 594.9 206.577 592.5C205.065 589.5 203.05 587 204.058 584.5C205.065 582 211.112 582.5 213.631 585C215.646 587 217.158 590.167 217.662 591.5C217.997 590 219.274 586.8 221.692 586C224.715 585 226.731 585 227.738 586C228.545 586.8 229.754 588.333 230.258 589C231.097 588.333 232.676 586.8 232.273 586C231.769 585 226.731 581 227.738 573.5C228.746 566 231.265 565 233.785 565C236.304 565 236.808 570 237.312 571.5C237.715 572.7 238.487 574.667 238.823 575.5C240.335 574 243.257 570.1 242.854 566.5C242.35 562 230.258 563.5 230.258 553.5C230.258 545.5 239.327 547.5 243.862 549.5C242.182 548.5 238.622 546.1 237.815 544.5C237.009 542.9 236.808 541.5 236.808 541C231.769 539.667 221.592 536.1 221.188 532.5C220.785 528.9 225.387 525.667 227.738 524.5C226.731 523.333 224.615 519.6 224.212 514C223.708 507 223.204 504.5 224.212 503.5C225.219 502.5 232.273 507 235.296 511C238.319 515 239.831 520.5 240.838 521.5C241.846 522.5 243.862 524 244.869 522C245.877 520 245.877 513.5 246.885 508C247.892 502.5 248.9 497 251.923 497C254.946 497 264.519 505.5 264.015 513C263.512 520.5 262 520.5 262.504 521.5C263.008 522.5 266.031 521 268.046 517.5C270.062 514 274.596 513 275.604 511C276.612 509 276.108 505.5 278.123 505C280.138 504.5 282.658 508.5 281.65 514.5C280.642 520.5 280.138 523.5 281.65 524C283.162 524.5 285.681 520.5 289.208 520.5C292.735 520.5 294.75 524 295.758 524C296.765 524 295.254 517 295.758 513C296.262 509 298.781 508 300.292 508C301.804 508 306.338 509.5 306.842 513.5C307.245 516.7 307.682 518.833 307.85 519.5C308.354 517.667 310.168 513 313.392 509C317.423 504 321.958 503 323.973 504C325.988 505 325.485 511.5 322.462 516.5C319.438 521.5 317.927 522.5 317.927 524C317.927 525.5 320.446 526 322.462 527.5C324.074 528.7 324.813 530 324.981 530.5C325.317 528.333 326.895 524 330.523 524C335.058 524 335.562 529 335.562 531.5C335.562 534 334.554 537.5 335.562 538C336.569 538.5 338.081 535 340.6 533.5C342.615 532.3 346.478 532 348.158 532C348.158 529.333 349.669 524 355.715 524C363.273 524 362.769 532.5 363.273 533C363.777 533.5 365.792 531 365.792 530C365.792 529 360.754 528 360.754 519.5C360.754 512.7 363.777 512.667 365.288 513.5C363.609 511.333 360.351 505.4 360.754 499C361.258 491 364.281 492 365.792 492C367.304 492 369.823 497.5 370.831 499C371.838 500.5 372.846 502.5 373.854 502.5C374.862 502.5 374.862 497 377.885 492C380.908 487 381.915 486.5 382.923 483.5C383.931 480.5 384.938 476.5 387.458 473C389.473 470.2 391.992 468.5 393 468V852H0V499Z" fill="#52803F"/>
<path d="M0 120C0.503846 120.5 1.81385 121.6 3.02308 122C4.53462 122.5 6.04615 122.5 7.05385 123.5C7.86 124.3 8.73333 124.167 9.06923 124C8.73333 124.833 8.26308 127.2 9.06923 130C10.0769 133.5 12.5962 135.5 13.6038 135.5C14.6115 135.5 16.6269 131 17.1308 127.5C17.6346 124 16.6269 122.5 17.6346 122C18.6423 121.5 20.6577 120 23.1769 120.5C25.1923 120.9 26.7038 122.333 27.2077 123C26.8718 124.833 26.6031 129.1 28.2154 131.5C30.2308 134.5 32.75 135 33.7577 134.5C34.7654 134 35.7731 132 35.7731 129.5C36.7808 130.5 39.9046 132.3 44.3385 131.5C49.8808 130.5 49.8808 129 49.8808 128C49.8808 127 48.8731 125 45.3462 122.5C42.5246 120.5 37.7885 119.333 35.7731 119C36.7808 118.833 38.9977 118.3 39.8038 117.5C40.61 116.7 40.8115 115.833 40.8115 115.5C41.8192 117 45.2454 119.9 50.8885 119.5C57.9423 119 59.9577 117 60.4615 115.5C60.8646 114.3 58.6141 113 57.4385 112.5C59.4538 112.167 64.19 110.8 67.0115 108C69.8331 105.2 71.882 99.8333 72.5538 97.5C72.8897 99.6667 73.8638 105 75.0731 109C76.5846 114 79.6077 115.5 82.6308 114.5C85.6538 113.5 84.6462 106 84.1423 104C83.7392 102.4 83.6385 101 83.6385 100.5C85.8218 104.5 92.9092 112.3 103.792 111.5C117.396 110.5 118.908 107 115.885 98.5C113.8 92.6375 110.566 90.5657 108.638 90.1058C109.728 90.1742 111.667 90.0967 114.373 89.5C118.908 88.5 124.45 85.5 124.45 84C124.45 82.5 120.923 79.5 115.381 79C115.885 77.1667 116.691 72.6 115.885 69C114.877 64.5 111.35 63 109.335 62.5C107.722 62.1 105.64 62.3333 104.8 62.5C105.472 61.1667 107.118 58 108.327 56C109.536 54 110.846 52.5 111.35 52C112.526 52.3333 115.381 52.6 117.396 51C119.412 49.4 120.923 44.3333 121.427 42C122.099 43 123.946 45.2 125.962 46C127.977 46.8 130.496 47 131.504 47C130.16 48.1667 127.775 52.2 128.985 59C130.496 67.5 137.55 72 141.077 70.5C144.604 69 143.092 63.5 143.092 60.5C143.092 57.5 142.588 55 143.596 54.5C144.604 54 150.65 61.5 156.696 63C162.742 64.5 168.285 64.5 168.788 63C169.192 61.8 165.262 57.1667 163.246 55C163.918 55.3333 165.665 55.7 167.277 54.5C168.889 53.3 170.972 50.3333 171.812 49C171.979 50.3333 172.92 53.6 175.338 56C178.362 59 181.888 61 183.4 60C184.912 59 184.912 55.5 184.912 53C184.912 50.5 182.896 48.5 182.896 46C182.896 44 183.232 41.5 183.4 40.5C184.408 41.5 187.229 44 190.454 46C194.485 48.5 198.012 50 200.027 49C202.042 48 200.531 40.5 195.996 37C192.368 34.2 189.11 32.8333 187.935 32.5C188.774 31.5 191.159 29 193.981 27C197.508 24.5 201.035 25 202.546 23.5C203.755 22.3 203.722 19 203.554 17.5C205.065 19.5 207.786 24.1 206.577 26.5C205.065 29.5 203.05 32 204.058 34.5C205.065 37 211.112 36.5 213.631 34C215.646 32 217.158 28.8333 217.662 27.5C217.997 29 219.274 32.2 221.692 33C224.715 34 226.731 34 227.738 33C228.545 32.2 229.754 30.6667 230.258 30C231.097 30.6667 232.676 32.2 232.273 33C231.769 34 226.731 38 227.738 45.5C228.746 53 231.265 54 233.785 54C236.304 54 236.808 49 237.312 47.5C237.715 46.3 238.487 44.3333 238.823 43.5C240.335 45 243.257 48.9 242.854 52.5C242.35 57 230.258 55.5 230.258 65.5C230.258 73.5 239.327 71.5 243.862 69.5C242.182 70.5 238.622 72.9 237.815 74.5C237.009 76.1 236.808 77.5 236.808 78C231.769 79.3333 221.592 82.9 221.188 86.5C220.785 90.1 225.387 93.3333 227.738 94.5C226.731 95.6667 224.615 99.4 224.212 105C223.708 112 223.204 114.5 224.212 115.5C225.219 116.5 232.273 112 235.296 108C238.319 104 239.831 98.5 240.838 97.5C241.846 96.5 243.862 95 244.869 97C245.877 99 245.877 105.5 246.885 111C247.892 116.5 248.9 122 251.923 122C254.946 122 264.519 113.5 264.015 106C263.512 98.5 262 98.5 262.504 97.5C263.008 96.5 266.031 98 268.046 101.5C270.062 105 274.596 106 275.604 108C276.612 110 276.108 113.5 278.123 114C280.138 114.5 282.658 110.5 281.65 104.5C280.642 98.5 280.138 95.5 281.65 95C283.162 94.5 285.681 98.5 289.208 98.5C292.735 98.5 294.75 95 295.758 95C296.765 95 295.254 102 295.758 106C296.262 110 298.781 111 300.292 111C301.804 111 306.338 109.5 306.842 105.5C307.245 102.3 307.682 100.167 307.85 99.5C308.354 101.333 310.168 106 313.392 110C317.423 115 321.958 116 323.973 115C325.988 114 325.485 107.5 322.462 102.5C319.438 97.5 317.927 96.5 317.927 95C317.927 93.5 320.446 93 322.462 91.5C324.074 90.3 324.813 89 324.981 88.5C325.317 90.6667 326.895 95 330.523 95C335.058 95 335.562 90 335.562 87.5C335.562 85 334.554 81.5 335.562 81C336.569 80.5 338.081 84 340.6 85.5C342.615 86.7 346.478 87 348.158 87C348.158 89.6667 349.669 95 355.715 95C363.273 95 362.769 86.5 363.273 86C363.777 85.5 365.792 88 365.792 89C365.792 90 360.754 91 360.754 99.5C360.754 106.3 363.777 106.333 365.288 105.5C363.609 107.667 360.351 113.6 360.754 120C361.258 128 364.281 127 365.792 127C367.304 127 369.823 121.5 370.831 120C371.838 118.5 372.846 116.5 373.854 116.5C374.862 116.5 374.862 122 377.885 127C380.908 132 381.915 132.5 382.923 135.5C383.931 138.5 384.938 142.5 387.458 146C389.473 148.8 391.992 150.5 393 151V-233H0V120Z" fill="#52803F"/>
<path d="M354.874 310.039C354.665 307.321 356.814 305 359.541 305C362.267 305 364.416 307.321 364.207 310.039L363.498 319.254C363.339 321.322 361.615 322.919 359.541 322.919C357.467 322.919 355.742 321.322 355.583 319.254L354.874 310.039Z" fill="#52803F"/>
<path d="M344.248 314.049C343.575 311.918 344.858 309.665 347.034 309.157C349.21 308.65 351.358 310.102 351.697 312.311L352.847 319.798C353.106 321.478 352.027 323.074 350.371 323.46C348.715 323.846 347.042 322.893 346.53 321.272L344.248 314.049Z" fill="#52803F"/>
<path d="M374.752 314.049C375.425 311.918 374.142 309.665 371.966 309.157C369.79 308.65 367.642 310.102 367.303 312.311L366.153 319.798C365.894 321.478 366.973 323.074 368.629 323.46C370.285 323.846 371.958 322.893 372.47 321.272L374.752 314.049Z" fill="#52803F"/>
<path d="M59.8742 369.039C59.6651 366.321 61.8144 364 64.5407 364C67.267 364 69.4163 366.321 69.2072 369.039L68.4983 378.254C68.3393 380.322 66.6148 381.919 64.5407 381.919C62.4666 381.919 60.7421 380.322 60.5831 378.254L59.8742 369.039Z" fill="#52803F"/>
<path d="M49.2478 373.049C48.5747 370.918 49.858 368.665 52.0342 368.157C54.2103 367.65 56.358 369.102 56.6973 371.311L57.8475 378.798C58.1056 380.478 57.0265 382.074 55.371 382.46C53.7154 382.846 52.0416 381.893 51.5296 380.272L49.2478 373.049Z" fill="#52803F"/>
<path d="M79.7522 373.049C80.4253 370.918 79.142 368.665 76.9658 368.157C74.7897 367.65 72.642 369.102 72.3027 371.311L71.1525 378.798C70.8944 380.478 71.9735 382.074 73.629 382.46C75.2846 382.846 76.9584 381.893 77.4704 380.272L79.7522 373.049Z" fill="#52803F"/>
<path d="M29.8743 216.039C29.6652 213.321 31.8145 211 34.5408 211C37.2671 211 39.4164 213.321 39.2073 216.039L38.4985 225.254C38.3394 227.322 36.6149 228.919 34.5408 228.919C32.4667 228.919 30.7423 227.322 30.5832 225.254L29.8743 216.039Z" fill="#52803F"/>
<path d="M19.2478 220.049C18.5747 217.918 19.858 215.665 22.0342 215.157C24.2103 214.65 26.358 216.102 26.6973 218.311L27.8475 225.798C28.1056 227.478 27.0265 229.074 25.371 229.46C23.7154 229.846 22.0416 228.893 21.5296 227.272L19.2478 220.049Z" fill="#52803F"/>
<path d="M49.7522 220.049C50.4253 217.918 49.142 215.665 46.9658 215.157C44.7897 214.65 42.642 216.102 42.3027 218.311L41.1525 225.798C40.8944 227.478 41.9735 229.074 43.629 229.46C45.2846 229.846 46.9584 228.893 47.4704 227.272L49.7522 220.049Z" fill="#52803F"/>
</g>
<defs>
<clipPath id="clip0_352_632">
<rect width="393" height="852" fill="white"/>
</clipPath>
</defs>
</svg>
