<svg width="78" height="78" viewBox="0 0 78 78" fill="none" xmlns="http://www.w3.org/2000/svg">
<path d="M39.0019 75C58.8833 75 75.0001 58.8821 75.0001 39C75.0001 19.1179 58.8833 3 39.0019 3C19.1205 3 3.00366 19.1179 3.00366 39C3.00366 58.8821 19.1205 75 39.0019 75Z" fill="white" stroke="#709A69" stroke-width="6"/>
<path fill-rule="evenodd" clip-rule="evenodd" d="M38.9963 72C57.2017 72 71.9639 57.2578 71.9963 39.06V38.9399C71.9801 29.857 68.2944 21.6349 62.3425 15.6771C60.4091 15.877 58.2039 16 55.7426 16C49.7602 16 44.8242 14.1399 39.7484 12.2271C35.6415 10.6794 31.443 9.09726 26.5248 8.43799C14.4821 13.3573 5.99634 25.1877 5.99634 39C5.99634 57.2254 20.7709 72 38.9963 72Z" fill="#CBEFBF"/>
<path fill-rule="evenodd" clip-rule="evenodd" d="M28 44.7676C28 42.201 28.66 35.7476 31.3 30.4676C34.6 23.8676 36.8 23.8676 36.8 27.1676V35.9678C36.8 38.1678 37.9 39.2678 39 39.2678C40.1 39.2678 41.2 38.1678 41.2 35.9678V32.6678C41.2 26.8667 50 35.9675 50 44.7676C50 53.5678 41.75 55.7678 39 55.7678C36.25 55.7678 28 54.1175 28 44.7676ZM39 42.5678C37.785 42.5678 36.8 43.5528 36.8 44.7678V49.1678C36.8 50.3828 37.785 51.3678 39 51.3678C40.215 51.3678 41.2 50.3828 41.2 49.1678V44.7678C41.2 43.5528 40.215 42.5678 39 42.5678Z" fill="#B40000"/>
</svg>
