<svg width="32" height="32" viewBox="0 0 32 32" fill="none" xmlns="http://www.w3.org/2000/svg">
<path d="M27 19.2222C27 25.2974 22.0751 30.2222 16 30.2222C9.92487 30.2222 5 25.2974 5 19.2222C5 9.44445 16 0.277779 16 0.277779C16 0.277779 27 9.44445 27 19.2222Z" fill="#FF7033"/>
<path d="M17.8983 26.9179C17.7237 26.2662 18.1191 25.6068 18.7229 25.3058C20.7314 24.3045 22.1111 22.23 22.1111 19.8333C22.1111 19.7061 22.1072 19.5798 22.0995 19.4546C22.0584 18.7813 22.4323 18.1098 23.0838 17.9352C23.7356 17.7606 24.4149 18.1477 24.495 18.8178C24.5796 19.5247 24.5757 20.241 24.4823 20.9501C24.3357 22.064 23.9711 23.1381 23.4093 24.1111C22.8475 25.0841 22.0996 25.937 21.2083 26.6209C20.6407 27.0564 20.022 27.4181 19.3673 27.6984C18.7473 27.9638 18.0728 27.5693 17.8983 26.9179Z" fill="white"/>
</svg>
