<svg width="78" height="78" viewBox="0 0 78 78" fill="none" xmlns="http://www.w3.org/2000/svg">
<path d="M39.0019 75C58.8833 75 75.0001 58.8821 75.0001 39C75.0001 19.1179 58.8833 3 39.0019 3C19.1205 3 3.00366 19.1179 3.00366 39C3.00366 58.8821 19.1205 75 39.0019 75Z" fill="white" stroke="#709A69" stroke-width="6"/>
<path fill-rule="evenodd" clip-rule="evenodd" d="M38.9963 72C57.2017 72 71.9639 57.2578 71.9963 39.06V38.9399C71.9801 29.857 68.2944 21.6349 62.3425 15.6771C60.4091 15.877 58.2039 16 55.7426 16C49.7602 16 44.8242 14.1399 39.7484 12.2271C35.6415 10.6794 31.443 9.09726 26.5248 8.43799C14.4821 13.3573 5.99634 25.1877 5.99634 39C5.99634 57.2254 20.7709 72 38.9963 72Z" fill="#CBEFBF"/>
<path d="M29.2587 30.9611C29.5113 28.83 29.6376 27.7645 30.1486 26.9641C30.58 26.2885 31.199 25.7478 31.9329 25.4055C32.8024 25 33.896 25 36.0831 25H40.9169C43.104 25 44.1976 25 45.0671 25.4055C45.801 25.7478 46.42 26.2885 46.8514 26.9641C47.3624 27.7645 47.4887 28.83 47.7413 30.9611L49.6997 47.482C50.0112 50.1101 50.167 51.4241 49.7313 52.4388C49.3648 53.2924 48.7201 54.0026 47.8981 54.4583C46.921 55 45.5724 55 42.8752 55H34.1248C31.4276 55 30.079 55 29.1019 54.4583C28.2799 54.0026 27.6352 53.2924 27.2687 52.4388C26.833 51.4241 26.9888 50.1101 27.3003 47.482L29.2587 30.9611Z" fill="#464646"/>
<path d="M34.2326 50.4651C34.2326 51.0431 33.755 51.5116 33.1658 51.5116C32.5766 51.5116 32.0989 51.0431 32.0989 50.4651C32.0989 49.8872 32.5766 49.4186 33.1658 49.4186C33.755 49.4186 34.2326 49.8872 34.2326 50.4651Z" fill="white"/>
<path d="M37.0775 46.9767C37.0775 47.5547 36.5999 48.0233 36.0107 48.0233C35.4215 48.0233 34.9438 47.5547 34.9438 46.9767C34.9438 46.3988 35.4215 45.9302 36.0107 45.9302C36.5999 45.9302 37.0775 46.3988 37.0775 46.9767Z" fill="white"/>
<path d="M39.9224 50.4651C39.9224 51.0431 39.4448 51.5116 38.8556 51.5116C38.2664 51.5116 37.7887 51.0431 37.7887 50.4651C37.7887 49.8872 38.2664 49.4186 38.8556 49.4186C39.4448 49.4186 39.9224 49.8872 39.9224 50.4651Z" fill="white"/>
<path d="M42.7673 46.9767C42.7673 47.5547 42.2897 48.0233 41.7005 48.0233C41.1113 48.0233 40.6336 47.5547 40.6336 46.9767C40.6336 46.3988 41.1113 45.9302 41.7005 45.9302C42.2897 45.9302 42.7673 46.3988 42.7673 46.9767Z" fill="white"/>
<path d="M45.6122 50.4651C45.6122 51.0431 45.1346 51.5116 44.5454 51.5116C43.9562 51.5116 43.4785 51.0431 43.4785 50.4651C43.4785 49.8872 43.9562 49.4186 44.5454 49.4186C45.1346 49.4186 45.6122 49.8872 45.6122 50.4651Z" fill="white"/>
<path d="M47.779 31.2791H38.5H29.2209L29.2587 30.9611C29.5113 28.83 29.6376 27.7645 30.1486 26.9641C30.58 26.2885 31.199 25.7478 31.9329 25.4055C32.8024 25 33.896 25 36.0831 25H40.9169C43.104 25 44.1976 25 45.0671 25.4055C45.801 25.7478 46.42 26.2885 46.8514 26.9641C47.3624 27.7645 47.4887 28.83 47.7413 30.9611L47.779 31.2791Z" fill="#464646"/>
</svg>
