<svg width="286" height="47" viewBox="0 0 286 47" fill="none" xmlns="http://www.w3.org/2000/svg">
<rect x="0.180664" y="12.9355" width="285.819" height="24.8499" rx="12.425" fill="#F0F2FF"/>
<rect y="12.9355" width="62" height="25" rx="12.5" fill="#FFB800"/>
<mask id="path-3-outside-1_476_1582" maskUnits="userSpaceOnUse" x="32.4158" y="-0.0134277" width="49" height="47" fill="black">
<rect fill="white" x="32.4158" y="-0.0134277" width="49" height="47"/>
<path fill-rule="evenodd" clip-rule="evenodd" d="M37.7384 7.64193C37.7423 7.76094 37.7544 7.88188 37.7753 8.00427L39.0369 15.3991C37.347 18.1421 36.3967 21.2941 36.4161 24.6066C36.4166 24.6977 36.4179 24.7889 36.4199 24.8802C36.4276 25.232 36.4462 25.5854 36.4761 25.9403C37.3289 36.0691 46.9987 43.5241 58.0741 42.5916C69.1495 41.6591 77.4365 32.6921 76.5837 22.5633C76.3675 19.9956 75.5846 17.5997 74.3559 15.4687L76.0781 8.41845C76.5494 6.48903 74.7553 4.77297 72.8487 5.32951L65.6368 7.43473C65.5203 7.46873 65.4087 7.50969 65.3022 7.55688C62.2011 6.22021 58.6712 5.60174 54.9857 5.91206C52.5025 6.12114 50.1594 6.73412 48.0281 7.67356L41.2145 5.15072C39.4974 4.51495 37.7395 5.81255 37.737 7.55306C37.7369 7.58256 37.7374 7.61218 37.7384 7.64193Z"/>
</mask>
<path fill-rule="evenodd" clip-rule="evenodd" d="M37.7384 7.64193C37.7423 7.76094 37.7544 7.88188 37.7753 8.00427L39.0369 15.3991C37.347 18.1421 36.3967 21.2941 36.4161 24.6066C36.4166 24.6977 36.4179 24.7889 36.4199 24.8802C36.4276 25.232 36.4462 25.5854 36.4761 25.9403C37.3289 36.0691 46.9987 43.5241 58.0741 42.5916C69.1495 41.6591 77.4365 32.6921 76.5837 22.5633C76.3675 19.9956 75.5846 17.5997 74.3559 15.4687L76.0781 8.41845C76.5494 6.48903 74.7553 4.77297 72.8487 5.32951L65.6368 7.43473C65.5203 7.46873 65.4087 7.50969 65.3022 7.55688C62.2011 6.22021 58.6712 5.60174 54.9857 5.91206C52.5025 6.12114 50.1594 6.73412 48.0281 7.67356L41.2145 5.15072C39.4974 4.51495 37.7395 5.81255 37.737 7.55306C37.7369 7.58256 37.7374 7.61218 37.7384 7.64193Z" fill="black"/>
<path d="M37.7753 8.00427L33.8322 8.67699L33.8322 8.677L37.7753 8.00427ZM37.7384 7.64193L41.7362 7.51102L41.7362 7.51091L37.7384 7.64193ZM39.0369 15.3991L42.4425 17.4973L43.2336 16.2132L42.9799 14.7264L39.0369 15.3991ZM36.4161 24.6066L40.416 24.5832L36.4161 24.6066ZM36.4199 24.8802L40.4189 24.7925L36.4199 24.8802ZM36.4761 25.9403L40.462 25.6047L36.4761 25.9403ZM58.0741 42.5916L58.4097 46.5775L58.0741 42.5916ZM76.5837 22.5633L80.5696 22.2277V22.2277L76.5837 22.5633ZM74.3559 15.4687L70.4702 14.5195L70.0896 16.0774L70.8907 17.4667L74.3559 15.4687ZM76.0781 8.41845L79.9638 9.36763L79.9638 9.36761L76.0781 8.41845ZM72.8487 5.32951L71.7278 1.48976L71.7278 1.48977L72.8487 5.32951ZM65.6368 7.43473L66.7573 11.2746L66.7577 11.2745L65.6368 7.43473ZM65.3022 7.55688L63.7189 11.2302L65.3242 11.9221L66.9225 11.214L65.3022 7.55688ZM54.9857 5.91206L55.3213 9.89795L54.9857 5.91206ZM48.0281 7.67356L46.6391 11.4247L48.1587 11.9873L49.6414 11.3338L48.0281 7.67356ZM41.2145 5.15072L42.6034 1.3996L42.6034 1.39959L41.2145 5.15072ZM37.737 7.55306L41.737 7.55881V7.55881L37.737 7.55306ZM41.7183 7.33155C41.7278 7.38739 41.7342 7.44747 41.7362 7.51102L33.7405 7.77284C33.7504 8.07442 33.7809 8.37636 33.8322 8.67699L41.7183 7.33155ZM42.9799 14.7264L41.7183 7.33153L33.8322 8.677L35.0939 16.0719L42.9799 14.7264ZM40.416 24.5832C40.4013 22.064 41.1214 19.6415 42.4425 17.4973L35.6314 13.301C33.5726 16.6426 32.3922 20.5243 32.4161 24.6299L40.416 24.5832ZM40.4189 24.7925C40.4174 24.7227 40.4164 24.6529 40.416 24.5832L32.4161 24.6299C32.4168 24.7425 32.4183 24.8551 32.4208 24.9679L40.4189 24.7925ZM40.462 25.6047C40.4391 25.3324 40.4248 25.0616 40.4189 24.7925L32.4208 24.9679C32.4303 25.4023 32.4534 25.8385 32.4902 26.2759L40.462 25.6047ZM57.7385 38.6057C48.5217 39.3818 41.1019 33.2044 40.462 25.6047L32.4902 26.2759C33.556 38.9338 45.4756 47.6665 58.4097 46.5775L57.7385 38.6057ZM72.5978 22.899C73.2377 30.4987 66.9552 37.8297 57.7385 38.6057L58.4097 46.5775C71.3437 45.4885 81.6353 34.8856 80.5696 22.2277L72.5978 22.899ZM70.8907 17.4667C71.8359 19.106 72.4326 20.9367 72.5978 22.899L80.5696 22.2277C80.3024 19.0546 79.3334 16.0933 77.8211 13.4706L70.8907 17.4667ZM72.1923 7.46928L70.4702 14.5195L78.2417 16.4179L79.9638 9.36763L72.1923 7.46928ZM73.9695 9.16927C72.9204 9.47552 71.9329 8.53119 72.1923 7.46929L79.9638 9.36761C81.1658 4.44686 76.5902 0.0704231 71.7278 1.48976L73.9695 9.16927ZM66.7577 11.2745L73.9695 9.16926L71.7278 1.48977L64.5159 3.59498L66.7577 11.2745ZM66.9225 11.214C66.8664 11.2389 66.811 11.2589 66.7573 11.2746L64.5163 3.59487C64.2296 3.67854 63.951 3.7805 63.6819 3.89975L66.9225 11.214ZM55.3213 9.89795C58.3483 9.64309 61.2192 10.1528 63.7189 11.2302L66.8855 3.88358C63.1829 2.28766 58.9942 1.5604 54.6501 1.92616L55.3213 9.89795ZM49.6414 11.3338C51.3696 10.572 53.2811 10.0697 55.3213 9.89795L54.6501 1.92616C51.7238 2.17255 48.9491 2.89624 46.4147 4.01336L49.6414 11.3338ZM39.8256 8.90184L46.6391 11.4247L49.417 3.92244L42.6034 1.3996L39.8256 8.90184ZM41.737 7.55881C41.7356 8.52831 40.787 9.25784 39.8256 8.90185L42.6034 1.39959C38.2078 -0.227929 33.7434 3.09678 33.737 7.5473L41.737 7.55881ZM41.7362 7.51091C41.7367 7.52672 41.737 7.5427 41.737 7.55881L33.737 7.5473C33.7369 7.62242 33.7381 7.69764 33.7405 7.77295L41.7362 7.51091Z" fill="#4F5DDB" mask="url(#path-3-outside-1_476_1582)"/>
<path d="M37.7752 8.00409C37.4412 6.04626 39.3519 4.46097 41.2145 5.15061L48.028 7.67346C50.1593 6.73401 52.5024 6.12104 54.9857 5.91195C58.6712 5.60164 62.201 6.2201 65.3021 7.55678C65.4087 7.50959 65.5203 7.46862 65.6368 7.43462L72.8486 5.32941C74.7552 4.77287 76.5493 6.48892 76.078 8.41835L74.3559 15.4686C75.5846 17.5996 76.3674 19.9955 76.5836 22.5632C77.4365 32.692 69.1494 41.659 58.074 42.5915C46.9986 43.524 37.3289 36.069 36.4761 25.9402C36.1563 22.1424 37.1215 18.5079 39.0369 15.399L37.7752 8.00409Z" fill="white"/>
<path fill-rule="evenodd" clip-rule="evenodd" d="M43.652 26.1041C51.7455 25.4227 57.7542 18.3091 57.0728 10.2156C56.943 8.67376 56.5797 7.20761 56.0208 5.84896C55.6773 5.86189 55.3322 5.88285 54.9857 5.91202C52.5024 6.12111 50.1593 6.73408 48.028 7.67353L41.2145 5.15069C39.3519 4.46104 37.4412 6.04633 37.7752 8.00416L39.0369 15.3991C37.3005 18.2174 36.345 21.4678 36.4198 24.8801C38.6159 25.8633 41.0847 26.3203 43.652 26.1041Z" fill="#FFB800"/>
<path d="M55.3157 18.822C54.9391 19.0931 54.1859 19.6353 53.902 19.1436C53.4886 18.6581 54.2357 17.9897 54.6124 17.7186C54.989 17.4475 55.6188 17.0377 56.7854 16.9809C58.4368 16.9006 58.878 17.2583 59.4088 17.4853C59.9396 17.7123 60.3591 18.3238 59.9886 18.7211C59.6182 19.1183 59.0812 18.7652 58.5504 18.5382C58.0196 18.3113 57.5011 18.3365 56.8529 18.368C56.2048 18.3995 55.6924 18.5509 55.3157 18.822L55.3157 18.822Z" fill="black"/>
<path d="M46.7407 14.4268C46.7291 14.0946 46.9891 13.8158 47.3213 13.8041C47.6536 13.7925 47.9324 14.0525 47.9441 14.3847L48.0403 17.1352C48.0519 17.4674 47.792 17.7462 47.4597 17.7579C47.1274 17.7695 46.8486 17.5096 46.837 17.1773L46.7407 14.4268Z" fill="black"/>
<path d="M64.4998 14.0479C64.4881 13.7157 64.7481 13.4369 65.0804 13.4252C65.4126 13.4136 65.6914 13.6736 65.7031 14.0058L65.7993 16.7563C65.8109 17.0885 65.551 17.3673 65.2187 17.379C64.8864 17.3906 64.6076 17.1306 64.596 16.7984L64.4998 14.0479Z" fill="black"/>
</svg>
