<svg width="39" height="38" viewBox="0 0 39 38" fill="none" xmlns="http://www.w3.org/2000/svg">
<rect width="39" height="38" rx="7.72881" transform="matrix(-1 0 0 1 39 0)" fill="#F4F7FB"/>
<path d="M10 19C10 15.229 10 13.343 11.172 12.172C12.343 11 14.229 11 18 11H22C25.771 11 27.657 11 28.828 12.172C30 13.343 30 15.229 30 19V21C30 24.771 30 26.657 28.828 27.828C27.657 29 25.771 29 22 29H18C14.229 29 12.343 29 11.172 27.828C10 26.657 10 24.771 10 21V19Z" stroke="#515FE1" stroke-width="1.5"/>
<path d="M15 11V9.5M25 11V9.5M10.5 16H29.5" stroke="#515FE1" stroke-width="1.5" stroke-linecap="round"/>
<path d="M26 24C26 24.2652 25.8946 24.5196 25.7071 24.7071C25.5196 24.8946 25.2652 25 25 25C24.7348 25 24.4804 24.8946 24.2929 24.7071C24.1054 24.5196 24 24.2652 24 24C24 23.7348 24.1054 23.4804 24.2929 23.2929C24.4804 23.1054 24.7348 23 25 23C25.2652 23 25.5196 23.1054 25.7071 23.2929C25.8946 23.4804 26 23.7348 26 24ZM26 20C26 20.2652 25.8946 20.5196 25.7071 20.7071C25.5196 20.8946 25.2652 21 25 21C24.7348 21 24.4804 20.8946 24.2929 20.7071C24.1054 20.5196 24 20.2652 24 20C24 19.7348 24.1054 19.4804 24.2929 19.2929C24.4804 19.1054 24.7348 19 25 19C25.2652 19 25.5196 19.1054 25.7071 19.2929C25.8946 19.4804 26 19.7348 26 20ZM21 24C21 24.2652 20.8946 24.5196 20.7071 24.7071C20.5196 24.8946 20.2652 25 20 25C19.7348 25 19.4804 24.8946 19.2929 24.7071C19.1054 24.5196 19 24.2652 19 24C19 23.7348 19.1054 23.4804 19.2929 23.2929C19.4804 23.1054 19.7348 23 20 23C20.2652 23 20.5196 23.1054 20.7071 23.2929C20.8946 23.4804 21 23.7348 21 24ZM21 20C21 20.2652 20.8946 20.5196 20.7071 20.7071C20.5196 20.8946 20.2652 21 20 21C19.7348 21 19.4804 20.8946 19.2929 20.7071C19.1054 20.5196 19 20.2652 19 20C19 19.7348 19.1054 19.4804 19.2929 19.2929C19.4804 19.1054 19.7348 19 20 19C20.2652 19 20.5196 19.1054 20.7071 19.2929C20.8946 19.4804 21 19.7348 21 20ZM16 24C16 24.2652 15.8946 24.5196 15.7071 24.7071C15.5196 24.8946 15.2652 25 15 25C14.7348 25 14.4804 24.8946 14.2929 24.7071C14.1054 24.5196 14 24.2652 14 24C14 23.7348 14.1054 23.4804 14.2929 23.2929C14.4804 23.1054 14.7348 23 15 23C15.2652 23 15.5196 23.1054 15.7071 23.2929C15.8946 23.4804 16 23.7348 16 24ZM16 20C16 20.2652 15.8946 20.5196 15.7071 20.7071C15.5196 20.8946 15.2652 21 15 21C14.7348 21 14.4804 20.8946 14.2929 20.7071C14.1054 20.5196 14 20.2652 14 20C14 19.7348 14.1054 19.4804 14.2929 19.2929C14.4804 19.1054 14.7348 19 15 19C15.2652 19 15.5196 19.1054 15.7071 19.2929C15.8946 19.4804 16 19.7348 16 20Z" fill="#515FE1"/>
</svg>
