<svg width="693" height="914" viewBox="0 0 693 914" fill="none" xmlns="http://www.w3.org/2000/svg">
<g filter="url(#filter0_d_637_2141)">
<path d="M239.382 17.6441C242.895 0.928132 263.187 -5.71656 275.907 5.68405L322.439 47.3893C342.455 46.6077 363.134 49.1066 383.658 55.279C414.119 64.4398 440.401 80.538 460.984 101.027C461.985 100.986 463.007 101.011 464.047 101.107L528.385 107.05C545.394 108.622 554.324 128.016 544.459 141.961L508.411 192.916C511.507 213.843 510.2 235.481 503.818 256.704C478.641 340.418 384.025 385.966 292.487 358.437C200.949 330.907 147.152 240.726 172.328 157.012C181.768 125.623 200.97 99.5993 226.113 80.7822L239.382 17.6441Z" fill="white"/>
<path d="M229.967 199.062C296.861 219.18 367.397 181.26 387.514 114.367C393.226 95.374 394.26 76.0876 391.279 57.7449C388.769 56.8746 386.229 56.0521 383.658 55.279C363.134 49.1066 342.455 46.6077 322.439 47.3893L275.907 5.68405C263.186 -5.71656 242.895 0.928132 239.382 17.6441L226.112 80.7822C200.97 99.5993 181.767 125.623 172.327 157.012C171.91 158.399 171.515 159.788 171.141 161.178C186.266 178.52 206.304 191.946 229.967 199.062Z" fill="#FFB800"/>
<path d="M266.549 126.261C267.583 123.171 270.926 121.504 274.017 122.538L317.18 136.983C320.27 138.018 321.937 141.361 320.903 144.451C319.868 147.541 316.525 149.208 313.435 148.174L270.272 133.729C267.181 132.694 265.515 129.351 266.549 126.261Z" fill="black"/>
<path d="M403.748 175.673C405.198 172.755 408.738 171.563 411.657 173.012L452.425 193.253C455.344 194.702 456.535 198.243 455.086 201.162C453.637 204.081 450.096 205.272 447.177 203.823L406.409 183.582C403.491 182.133 402.299 178.592 403.748 175.673Z" fill="black"/>
<path d="M334.062 172.534C335.676 168.167 340.524 165.936 344.89 167.55L371.771 177.485C376.138 179.099 378.369 183.947 376.755 188.313L375.879 190.685C371.521 202.475 358.431 208.5 346.642 204.142C334.853 199.785 328.828 186.695 333.185 174.906L334.062 172.534Z" fill="#C25757"/>
<path d="M199.647 244.268C223.974 284.008 274.655 308.136 296.954 315.232C384.125 345.646 482.445 329.425 507.785 326.384C533.126 323.343 545.289 330.439 551.371 346.659C557.452 362.88 553.398 382.141 526.031 393.293C498.663 404.444 450.01 428.775 428.724 443.982C411.695 456.147 406.762 482.843 406.424 494.67C406.424 509.939 440.076 485.546 461.159 489.601C487.513 494.67 498.663 519.001 509.813 517.987C520.962 516.973 534.139 494.67 539.208 486.56C544.276 478.45 563.534 452.092 589.888 464.257C616.242 476.422 624.351 522.042 578.738 615.309C533.126 708.576 462.173 718.714 401.356 743.044C340.539 767.375 308.514 812.995 217.289 846.449C126.064 879.904 56.1242 870.78 49.0289 850.504C41.9336 830.229 48.0153 820.091 70.3148 803.871C92.6143 787.65 129.708 783.595 134.776 769.402C139.844 755.21 106.077 711.434 117.227 663.787C126.146 625.669 155.688 611.271 160.866 583.904C163.825 558.756 110.449 496.697 90.177 403.43C64.8366 286.846 88.1497 170.263 90.177 139.85C92.2042 109.437 108.422 86.1199 134.776 86.1199C161.13 86.1199 171.266 112.478 172.28 133.767C173.293 155.056 169.239 194.594 199.647 244.268Z" fill="white"/>
<path d="M452.793 753.942C390.774 755.441 372.655 703.844 339.617 723.483C317.593 736.576 322.051 761.331 334.892 773.677C360.573 798.37 387.27 813.617 447.352 821.369C507.434 829.122 572.376 772.223 616.458 768.899C660.541 765.576 683.826 769.484 692.111 734.523C696.253 717.048 687.884 671.832 624.554 674.988C561.224 678.144 514.812 752.443 452.793 753.942Z" fill="white"/>
<path d="M471.378 419.04C454.5 427.83 438.641 436.896 428.724 443.981C411.695 456.146 406.762 482.842 406.424 494.67C406.424 502.902 416.205 499.606 428.524 495.455C439.056 491.906 451.442 487.732 461.159 489.601C476.048 492.465 486.085 501.477 494.009 508.593C499.694 513.697 504.292 517.826 508.816 518.011C503.589 581.006 450.804 630.502 386.459 630.502C318.649 630.502 263.677 575.531 263.677 507.72C263.677 439.91 318.649 384.938 386.459 384.938C419.408 384.938 449.325 397.917 471.378 419.04Z" fill="#FFB800"/>
</g>
<defs>
<filter id="filter0_d_637_2141" x="0.986874" y="0" width="692.013" height="913.903" filterUnits="userSpaceOnUse" color-interpolation-filters="sRGB">
<feFlood flood-opacity="0" result="BackgroundImageFix"/>
<feColorMatrix in="SourceAlpha" type="matrix" values="0 0 0 0 0 0 0 0 0 0 0 0 0 0 0 0 0 0 127 0" result="hardAlpha"/>
<feOffset dx="-45.2333" dy="45.2333"/>
<feComposite in2="hardAlpha" operator="out"/>
<feColorMatrix type="matrix" values="0 0 0 0 0.321569 0 0 0 0 0.501961 0 0 0 0 0.247059 0 0 0 1 0"/>
<feBlend mode="normal" in2="BackgroundImageFix" result="effect1_dropShadow_637_2141"/>
<feBlend mode="normal" in="SourceGraphic" in2="effect1_dropShadow_637_2141" result="shape"/>
</filter>
</defs>
</svg>
