<svg width="78" height="78" viewBox="0 0 78 78" fill="none" xmlns="http://www.w3.org/2000/svg">
<path d="M39.0019 75C58.8833 75 75.0001 58.8821 75.0001 39C75.0001 19.1179 58.8833 3 39.0019 3C19.1205 3 3.00366 19.1179 3.00366 39C3.00366 58.8821 19.1205 75 39.0019 75Z" fill="white" stroke="#709A69" stroke-width="6"/>
<path fill-rule="evenodd" clip-rule="evenodd" d="M38.9963 72C57.2017 72 71.9639 57.2578 71.9963 39.06V38.9399C71.9801 29.857 68.2944 21.6349 62.3425 15.6771C60.4091 15.877 58.2039 16 55.7426 16C49.7602 16 44.8242 14.1399 39.7484 12.2271C35.6415 10.6794 31.443 9.09726 26.5248 8.43799C14.4821 13.3573 5.99634 25.1877 5.99634 39C5.99634 57.2254 20.7709 72 38.9963 72Z" fill="#CBEFBF"/>
<path d="M50 43.2222C50 49.2973 45.0751 54.2222 39 54.2222C32.9249 54.2222 28 49.2973 28 43.2222C28 33.4444 39 24.2778 39 24.2778C39 24.2778 50 33.4444 50 43.2222Z" fill="#FF7033"/>
<path d="M40.8982 50.9179C40.7236 50.2662 41.1191 49.6068 41.7229 49.3058C43.7313 48.3045 45.111 46.23 45.111 43.8333C45.111 43.7061 45.1071 43.5798 45.0995 43.4546C45.0583 42.7813 45.4322 42.1098 46.0837 41.9352C46.7355 41.7606 47.4149 42.1477 47.495 42.8177C47.5795 43.5247 47.5756 44.241 47.4823 44.95C47.3356 46.064 46.971 47.1381 46.4092 48.1111C45.8475 49.0841 45.0996 49.9369 44.2082 50.6209C43.6406 51.0564 43.022 51.418 42.3672 51.6984C41.7473 51.9638 41.0728 51.5693 40.8982 50.9179Z" fill="white"/>
</svg>
