<svg width="165" height="165" viewBox="0 0 165 165" fill="none" xmlns="http://www.w3.org/2000/svg">
<rect x="3" y="3" width="159" height="159" rx="19" stroke="#4F5DDB" stroke-width="6"/>
<mask id="mask0_344_489" style="mask-type:alpha" maskUnits="userSpaceOnUse" x="6" y="6" width="153" height="153">
<rect width="153" height="153" rx="16" transform="matrix(-1 0 0 1 159 6)" fill="#D9D9D9"/>
</mask>
<g mask="url(#mask0_344_489)">
<rect width="153" height="153" rx="16" transform="matrix(-1 0 0 1 159 6)" fill="#7986FF"/>
<path fill-rule="evenodd" clip-rule="evenodd" d="M27.103 33.1311C28.0324 28.7087 33.4008 26.9508 36.766 29.9669L49.0765 41.0005C54.3721 40.7937 59.8429 41.4548 65.2728 43.0878C73.3315 45.5113 80.2845 49.7703 85.73 55.1909C85.9948 55.18 86.2653 55.1866 86.5403 55.212L103.562 56.7844C108.062 57.2002 110.424 62.3312 107.814 66.0204L98.2772 79.5009C99.0965 85.0375 98.7507 90.7622 97.0621 96.3768C94.5905 104.595 89.5893 111.423 83.0387 116.389C88.7179 116.034 93.3609 115.427 96.3 115.043L96.3008 115.043C97.0055 114.951 97.6123 114.871 98.1118 114.811C104.816 114.007 108.034 115.884 109.643 120.175C111.252 124.467 110.179 129.563 102.939 132.513C95.6984 135.463 82.8266 141.9 77.1952 145.923C72.6901 149.141 71.3851 156.204 71.2957 159.333C71.2957 161.511 73.8833 160.639 77.1425 159.541C79.9287 158.602 83.2057 157.498 85.7764 157.992C89.7155 158.75 92.3706 161.134 94.4673 163.017C96.0817 164.466 97.3649 165.619 98.6482 165.502C101.426 165.249 104.68 160.001 106.17 157.598L106.173 157.592C106.264 157.446 106.348 157.311 106.425 157.188C107.766 155.042 112.861 148.069 119.833 151.287C126.805 154.505 128.95 166.575 116.883 191.249C106.768 211.932 91.9425 217.163 77.9343 222.105L77.9342 222.105C75.3972 223 72.887 223.886 70.4365 224.852C73.9039 226.626 78.0865 228.059 83.563 227.926C91.8031 227.727 99.0018 222.67 106.249 217.58C113.433 212.533 120.664 207.454 129.004 207.038C145.759 206.203 147.973 218.166 146.877 222.789C144.975 230.818 140.082 231.098 131.196 231.607C129.845 231.685 128.401 231.767 126.862 231.883C122.066 232.245 116.336 235.004 110.146 237.985C101.285 242.252 91.4813 246.972 82.1235 245.765C67.2128 243.841 60.0742 240.172 53.6387 234.333C52.8676 234.866 52.0925 235.406 51.3094 235.951C43.4889 241.4 34.8613 247.411 21.2579 252.4C-2.87664 261.251 -21.3798 258.837 -23.2569 253.473C-25.1341 248.109 -23.5251 245.427 -17.6255 241.135C-15.0035 239.228 -11.6082 237.957 -8.52733 236.803C-4.67638 235.361 -1.31657 234.102 -0.571672 232.016C-0.0696926 230.611 -1.00775 228.108 -2.22318 224.865C-4.25429 219.446 -7.05999 211.961 -5.21453 204.075C-3.96026 198.715 -1.16477 195.128 1.38496 191.856C3.63244 188.972 5.68898 186.333 6.33071 182.941C6.66737 180.079 4.24697 175.411 0.952164 169.057C-3.41349 160.637 -9.31431 149.257 -12.3708 135.195C-17.8965 109.772 -14.6776 84.3503 -13.075 71.6936C-12.7333 68.9946 -12.4651 66.876 -12.3708 65.4618C-11.8345 57.4157 -7.54388 51.247 -0.571672 51.247C6.40053 51.247 9.08215 58.2203 9.35032 63.8526C9.38633 64.609 9.39816 65.4524 9.41114 66.3777V66.3781C9.42493 67.3612 9.44003 68.4368 9.4868 69.5986C12.026 61.4747 17.0488 54.7323 23.5924 49.8349L27.103 33.1311Z" fill="#7986FF"/>
<path fill-rule="evenodd" clip-rule="evenodd" d="M27.103 33.1311C28.0324 28.7087 33.4008 26.9508 36.766 29.9669L49.0765 41.0005C54.3721 40.7937 59.8429 41.4548 65.2728 43.0878C73.3315 45.5113 80.2845 49.7703 85.73 55.1909C85.9948 55.18 86.2653 55.1866 86.5403 55.212L103.562 56.7844C108.062 57.2002 110.424 62.3312 107.814 66.0204L98.2772 79.5009C99.0965 85.0375 98.7507 90.7622 97.0621 96.3768C94.5905 104.595 89.5893 111.423 83.0387 116.389C88.7179 116.034 93.3609 115.427 96.3 115.043L96.3008 115.043C97.0055 114.951 97.6123 114.871 98.1118 114.811C104.816 114.007 108.034 115.884 109.643 120.175C111.252 124.467 110.179 129.563 102.939 132.513C95.6984 135.463 82.8266 141.9 77.1952 145.923C72.6901 149.141 71.3851 156.204 71.2957 159.333C71.2957 161.511 73.8833 160.639 77.1425 159.541C79.9287 158.602 83.2057 157.498 85.7764 157.992C89.7155 158.75 92.3706 161.134 94.4673 163.017C96.0817 164.466 97.3649 165.619 98.6482 165.502C101.426 165.249 104.68 160.001 106.17 157.598L106.173 157.592C106.264 157.446 106.348 157.311 106.425 157.188C107.766 155.042 112.861 148.069 119.833 151.287C126.805 154.505 128.95 166.575 116.883 191.249C106.768 211.932 91.9425 217.163 77.9343 222.105L77.9342 222.105C75.3972 223 72.887 223.886 70.4365 224.852C73.9039 226.626 78.0865 228.059 83.563 227.926C91.8031 227.727 99.0018 222.67 106.249 217.58C113.433 212.533 120.664 207.454 129.004 207.038C145.759 206.203 147.973 218.166 146.877 222.789C144.975 230.818 140.082 231.098 131.196 231.607C129.845 231.685 128.401 231.767 126.862 231.883C122.066 232.245 116.336 235.004 110.146 237.985C101.285 242.252 91.4813 246.972 82.1235 245.765C67.2128 243.841 60.0742 240.172 53.6387 234.333C52.8676 234.866 52.0925 235.406 51.3094 235.951C43.4889 241.4 34.8613 247.411 21.2579 252.4C-2.87664 261.251 -21.3798 258.837 -23.2569 253.473C-25.1341 248.109 -23.5251 245.427 -17.6255 241.135C-15.0035 239.228 -11.6082 237.957 -8.52733 236.803C-4.67638 235.361 -1.31657 234.102 -0.571672 232.016C-0.0696926 230.611 -1.00775 228.108 -2.22318 224.865C-4.25429 219.446 -7.05999 211.961 -5.21453 204.075C-3.96026 198.715 -1.16477 195.128 1.38496 191.856C3.63244 188.972 5.68898 186.333 6.33071 182.941C6.66737 180.079 4.24697 175.411 0.952164 169.057C-3.41349 160.637 -9.31431 149.257 -12.3708 135.195C-17.8965 109.772 -14.6776 84.3503 -13.075 71.6936C-12.7333 68.9946 -12.4651 66.876 -12.3708 65.4618C-11.8345 57.4157 -7.54388 51.247 -0.571672 51.247C6.40053 51.247 9.08215 58.2203 9.35032 63.8526C9.38633 64.609 9.39816 65.4524 9.41114 66.3777V66.3781C9.42493 67.3612 9.44003 68.4368 9.4868 69.5986C12.026 61.4747 17.0488 54.7323 23.5924 49.8349L27.103 33.1311Z" fill="black" fill-opacity="0.2"/>
<path d="M36.9906 23.3894C37.92 18.967 43.2884 17.2091 46.6537 20.2252L58.9642 31.2588C64.2597 31.052 69.7305 31.7131 75.1604 33.3461C83.2191 35.7696 90.1721 40.0286 95.6176 45.4492C95.8825 45.4383 96.1529 45.4449 96.4279 45.4703L113.449 47.0427C117.949 47.4585 120.312 52.5895 117.702 56.2787L108.165 69.7592C108.984 75.2958 108.638 81.0205 106.95 86.6351C100.289 108.783 75.2575 120.833 51.0401 113.55C26.8226 106.266 12.59 82.4081 19.2507 60.2605C21.7481 51.9562 26.8283 45.0715 33.48 40.0932L36.9906 23.3894Z" fill="white"/>
<path d="M34.4999 71.3854C52.1973 76.7077 70.8584 66.6757 76.1807 48.9783C77.6918 43.9536 77.9652 38.8512 77.1768 33.9984C76.5127 33.7682 75.8405 33.5506 75.1604 33.3461C69.7305 31.7131 64.2597 31.052 58.9642 31.2588L46.6537 20.2252C43.2884 17.2091 37.92 18.967 36.9906 23.3894L33.48 40.0932C26.8284 45.0715 21.7481 51.9562 19.2507 60.2605C19.1403 60.6275 19.0357 60.9949 18.9368 61.3627C22.9383 65.9507 28.2395 69.5026 34.4999 71.3854Z" fill="#FFB800"/>
<path d="M44.178 52.1251C44.4516 51.3075 45.3362 50.8666 46.1537 51.1402L57.573 54.9618C58.3905 55.2354 58.8315 56.12 58.5579 56.9375C58.2843 57.755 57.3997 58.196 56.5822 57.9224L45.1629 54.1008C44.3454 53.8272 43.9044 52.9426 44.178 52.1251Z" fill="black"/>
<path d="M80.4756 65.1976C80.859 64.4255 81.7958 64.1103 82.5679 64.4937L93.3535 69.8486C94.1257 70.232 94.4409 71.1688 94.0575 71.9409C93.6741 72.7131 92.7373 73.0283 91.9652 72.6449L81.1796 67.2899C80.4074 66.9065 80.0922 65.9698 80.4756 65.1976Z" fill="black"/>
<path d="M62.0393 64.3669C62.4663 63.2117 63.7489 62.6214 64.9041 63.0483L72.0158 65.6769C73.1709 66.1038 73.7613 67.3864 73.3343 68.5416L73.1024 69.1691C71.9496 72.2881 68.4866 73.8821 65.3675 72.7292C62.2485 71.5764 60.6546 68.1134 61.8074 64.9944L62.0393 64.3669Z" fill="#C25757"/>
<path d="M26.4785 83.3452C32.9144 93.8588 46.3225 100.242 52.222 102.119C75.2839 110.166 101.296 105.874 108 105.07C114.704 104.265 117.922 106.142 119.531 110.434C121.14 114.725 120.067 119.821 112.827 122.771C105.586 125.721 92.7144 132.158 87.083 136.181C82.5779 139.4 81.2729 146.462 81.1835 149.592C81.1835 153.631 90.0865 147.178 95.6642 148.25C102.636 149.592 105.586 156.028 108.536 155.76C111.486 155.492 114.972 149.592 116.313 147.446C117.653 145.3 122.749 138.327 129.721 141.545C136.693 144.764 138.838 156.833 126.771 181.508C114.704 206.183 95.9324 208.865 79.8427 215.301C63.753 221.738 55.2803 233.808 31.1457 242.658C7.01118 251.509 -11.492 249.095 -13.3691 243.731C-15.2463 238.367 -13.6373 235.685 -7.73772 231.394C-1.83816 227.102 7.97531 226.03 9.31615 222.275C10.657 218.52 1.72348 206.939 4.67329 194.333C7.03314 184.249 14.8488 180.44 16.2185 173.199C17.0013 166.546 2.88026 150.128 -2.48297 125.453C-9.18702 94.6095 -3.0193 63.7663 -2.48297 55.7202C-1.94665 47.6741 2.34394 41.5054 9.31615 41.5054C16.2884 41.5054 18.97 48.4787 19.2381 54.111C19.5063 59.7432 18.4337 70.2032 26.4785 83.3452Z" fill="white"/>
<path d="M98.3678 129.583C93.9024 131.908 89.7068 134.307 87.0831 136.181C82.5779 139.4 81.2729 146.462 81.1835 149.591C81.1835 151.769 83.7711 150.897 87.0303 149.799C89.8165 148.86 93.0935 147.756 95.6642 148.25C99.6033 149.008 102.258 151.392 104.355 153.275C105.859 154.625 107.075 155.718 108.272 155.767C106.889 172.433 92.9247 185.527 75.9016 185.527C57.9616 185.527 43.4183 170.984 43.4183 153.044C43.4183 135.104 57.9616 120.561 75.9016 120.561C84.6185 120.561 92.5334 123.994 98.3678 129.583Z" fill="#FFB800"/>
<path opacity="0.996" fill-rule="evenodd" clip-rule="evenodd" d="M62.4509 87.7087C61.4992 90.1365 60.5474 92.5644 59.5957 94.9922C61.5487 95.7425 63.4911 96.5193 65.4228 97.3228C66.8543 97.9025 68.1951 98.6436 69.4453 99.546C70.2031 100.128 70.7642 100.856 71.1286 101.73C71.2141 102.107 71.2487 102.49 71.2323 102.878C71.0627 103.352 70.9249 103.821 70.819 104.286C72.0573 103.197 72.8488 101.845 73.1937 100.231C73.3083 99.2359 73.4505 98.2451 73.6202 97.2582C73.7323 96.8113 73.8596 96.3687 74.0021 95.9305C74.7566 94.5844 75.5644 93.2697 76.4255 91.9865C77.9638 89.7556 77.474 88.1785 74.956 87.2552C70.6955 85.5032 66.5271 85.6544 62.4509 87.7087Z" fill="#4F5DDB"/>
<path opacity="0.996" fill-rule="evenodd" clip-rule="evenodd" d="M38.163 91.4842C38.5308 90.1776 39.3766 89.3549 40.7003 89.0161C41.854 88.8764 42.9934 88.9537 44.1183 89.248C44.8997 89.4498 45.6781 89.6626 46.4536 89.8864C48.5501 90.6621 50.6364 91.4645 52.7123 92.2938C53.6641 89.8659 54.6158 87.438 55.5676 85.0102C53.705 80.2036 50.2673 77.1169 45.2545 75.7501C44.0397 75.6446 43.2185 76.1691 42.7908 77.3236C42.658 77.7646 42.5307 78.2072 42.4088 78.6513C42.1684 80.1778 41.8676 81.6913 41.5062 83.1915C40.9624 84.3991 40.265 85.5108 39.414 86.5266C38.3933 88.0282 37.9763 89.6808 38.163 91.4842Z" fill="#4F5DDB"/>
<g opacity="0.998">
<path fill-rule="evenodd" clip-rule="evenodd" d="M55.5676 85.0103C54.6159 87.4381 53.6641 89.866 52.7123 92.2938C52.6295 92.4382 52.6039 92.582 52.6355 92.7254C54.6285 94.2366 56.8696 95.1152 59.3588 95.361C59.4794 95.2773 59.5583 95.1544 59.5957 94.9922C60.5475 92.5644 61.4992 90.1365 62.451 87.7087C60.3656 86.2755 58.0711 85.3761 55.5676 85.0103Z" fill="#4F5DDB"/>
<path fill-rule="evenodd" clip-rule="evenodd" d="M55.5676 85.0103C54.6159 87.4381 53.6641 89.866 52.7123 92.2938C52.6295 92.4382 52.6039 92.582 52.6355 92.7254C54.6285 94.2366 56.8696 95.1152 59.3588 95.361C59.4794 95.2773 59.5583 95.1544 59.5957 94.9922C60.5475 92.5644 61.4992 90.1365 62.451 87.7087C60.3656 86.2755 58.0711 85.3761 55.5676 85.0103Z" fill="black" fill-opacity="0.2"/>
</g>
<path opacity="0.993" fill-rule="evenodd" clip-rule="evenodd" d="M59.5956 94.9922C59.5583 95.1544 59.4793 95.2773 59.3587 95.361C60.4759 96.9558 61.525 98.5982 62.5058 100.288C64.1605 102.457 66.3149 103.871 68.9688 104.53C69.6219 104.652 70.2386 104.57 70.819 104.286C70.9248 103.821 71.0626 103.352 71.2323 102.878C71.2487 102.489 71.2141 102.107 71.1286 101.729C70.7642 100.856 70.203 100.128 69.4452 99.5459C68.195 98.6436 66.8542 97.9024 65.4228 97.3227C63.491 96.5193 61.5487 95.7424 59.5956 94.9922Z" fill="#3F4AAF"/>
<path opacity="0.994" fill-rule="evenodd" clip-rule="evenodd" d="M52.7123 92.2939C50.6364 91.4647 48.5501 90.6623 46.4536 89.8866C45.6781 89.6628 44.8997 89.45 44.1183 89.2482C42.9934 88.9539 41.854 88.8766 40.7003 89.0163C39.3766 89.3551 38.5308 90.1778 38.163 91.4844C38.3954 92.0874 38.7926 92.5663 39.3543 92.9209C41.7493 94.2408 44.2907 94.6676 46.9782 94.2014C48.8434 93.6299 50.7292 93.138 52.6355 92.7255C52.6039 92.5821 52.6295 92.4383 52.7123 92.2939Z" fill="#3F4AAF"/>
</g>
</svg>
