<svg width="112" height="105" viewBox="0 0 112 105" fill="none" xmlns="http://www.w3.org/2000/svg">
<path d="M7.22842 22.2067L7.22843 22.2067L10.6589 30.5649C6.97905 37.1489 4.92011 44.6511 5.0025 52.5987C5.27625 79.004 28.7531 99.4245 56.4889 99.1369C84.2248 98.8494 107.273 77.9466 106.999 51.5413C106.914 43.3147 104.545 35.6144 100.482 28.9509L103.473 21.2089C106.497 13.3837 99.9156 5.21998 91.6271 6.51384L91.6271 6.51385L76.4126 8.88908C70.005 6.31457 62.9265 4.92617 55.513 5.00303C48.032 5.08059 40.9232 6.6428 34.5253 9.39567L18.7673 7.26921L18.7672 7.2692C10.4537 6.14745 4.04316 14.4458 7.22842 22.2067Z" fill="white" stroke="#F2D9B3" stroke-width="10"/>
<path d="M27.5585 58.2627C44.3862 58.0883 57.8863 44.3053 57.7119 27.4776C57.6449 21.0187 55.5731 15.0501 52.0939 10.1567C46.0761 10.6302 40.3924 12.1606 35.2631 14.5422C35.2147 14.5346 35.1661 14.5274 35.1171 14.5208L18.0985 12.2242C13.5993 11.6172 10.1301 16.1081 11.8539 20.3082L16.2333 30.9785C12.1992 37.3131 9.92066 44.6907 10.0021 52.5468C10.0034 52.673 10.0053 52.7991 10.0079 52.925C14.9947 56.3513 21.0488 58.3302 27.5585 58.2627Z" fill="#FFB800"/>
<path d="M33.2648 37.8348C33.2182 37.0762 33.7953 36.4234 34.5539 36.3768L45.1495 35.7251C45.9081 35.6784 46.5608 36.2555 46.6075 37.0141C46.6542 37.7726 46.077 38.4254 45.3185 38.4721L34.7228 39.1238C33.9643 39.1705 33.3115 38.5934 33.2648 37.8348Z" fill="black"/>
<path d="M67.2503 36.5189C67.3084 35.7611 67.9697 35.1938 68.7275 35.2519L79.3121 36.0627C80.0699 36.1208 80.6372 36.7822 80.5791 37.5399C80.5211 38.2977 79.8597 38.865 79.1019 38.8069L68.5173 37.9961C67.7595 37.938 67.1923 37.2766 67.2503 36.5189Z" fill="black"/>
<path d="M53.0111 45.592C52.1582 46.2227 50.4526 47.4841 49.7895 46.3684C48.8303 45.2709 50.5183 43.7214 51.3712 43.0907C52.2241 42.46 53.6515 41.5048 56.3164 41.3409C60.0884 41.1088 61.1073 41.9136 62.3272 42.4168C63.547 42.92 64.5239 44.3056 63.6887 45.2243C62.8536 46.1431 61.616 45.3518 60.3961 44.8486C59.1763 44.3454 57.9918 44.4182 56.5113 44.5093C55.0308 44.6004 53.864 44.9613 53.0111 45.592Z" fill="black"/>
</svg>
