<svg width="168" height="168" viewBox="0 0 168 168" fill="none" xmlns="http://www.w3.org/2000/svg">
<g filter="url(#filter0_d_372_1350)">
<rect x="60" y="60" width="48" height="48" rx="16" fill="white"/>
</g>
<path d="M87.6301 89.4076C87.8238 89.6013 87.9327 89.864 87.9327 90.138C87.9327 90.412 87.8238 90.6748 87.6301 90.8685C87.4364 91.0622 87.1736 91.1711 86.8996 91.1711C86.6256 91.1711 86.3629 91.0622 86.1692 90.8685L79.2942 83.9935C79.198 83.8977 79.1217 83.7838 79.0697 83.6585C79.0176 83.5331 78.9908 83.3987 78.9908 83.263C78.9908 83.1273 79.0176 82.9929 79.0697 82.8676C79.1217 82.7422 79.198 82.6284 79.2942 82.5326L86.1692 75.6576C86.3629 75.4638 86.6256 75.355 86.8996 75.355C87.1736 75.355 87.4364 75.4638 87.6301 75.6576C87.8238 75.8513 87.9327 76.114 87.9327 76.388C87.9327 76.662 87.8238 76.9248 87.6301 77.1185L81.4864 83.2622L87.6301 89.4076Z" fill="#517F3F"/>
<defs>
<filter id="filter0_d_372_1350" x="0" y="0" width="168" height="168" filterUnits="userSpaceOnUse" color-interpolation-filters="sRGB">
<feFlood flood-opacity="0" result="BackgroundImageFix"/>
<feColorMatrix in="SourceAlpha" type="matrix" values="0 0 0 0 0 0 0 0 0 0 0 0 0 0 0 0 0 0 127 0" result="hardAlpha"/>
<feOffset/>
<feGaussianBlur stdDeviation="30"/>
<feComposite in2="hardAlpha" operator="out"/>
<feColorMatrix type="matrix" values="0 0 0 0 0 0 0 0 0 0 0 0 0 0 0 0 0 0 0.7 0"/>
<feBlend mode="normal" in2="BackgroundImageFix" result="effect1_dropShadow_372_1350"/>
<feBlend mode="normal" in="SourceGraphic" in2="effect1_dropShadow_372_1350" result="shape"/>
</filter>
</defs>
</svg>
