<svg width="286" height="48" viewBox="0 0 286 48" fill="none" xmlns="http://www.w3.org/2000/svg">
<rect x="0.180664" y="13" width="285.819" height="25" rx="12.5" fill="white"/>
<rect x="247" y="13.0002" width="1" height="25" fill="black" fill-opacity="0.2"/>
<rect y="13" width="49" height="25" rx="12.5" fill="#4CD115"/>
<mask id="path-4-outside-1_520_10782" maskUnits="userSpaceOnUse" x="11.1571" y="-0.94751" width="50" height="49" fill="black">
<rect fill="white" x="11.1571" y="-0.94751" width="50" height="49"/>
<path fill-rule="evenodd" clip-rule="evenodd" d="M20.6366 4.24756C18.7464 3.48726 16.7419 5.05832 17.0286 7.07542L18.1114 14.6942C16.0587 17.8274 14.9653 21.5267 15.1848 25.4302C15.1945 25.6026 15.2067 25.7744 15.2214 25.9454C16.0923 36.1006 25.6617 43.7502 36.8565 43.1205C48.2398 42.4803 56.9932 33.5219 56.4076 23.1115C56.2592 20.4723 55.5248 17.9932 54.3256 15.773L56.2926 8.59279C56.8309 6.62779 55.0402 4.81696 53.0693 5.33326L45.6142 7.28624C45.4938 7.31778 45.3781 7.35659 45.2676 7.40195C42.391 6.06599 39.1286 5.33719 35.6909 5.38723L35.6202 5.38837C35.3267 5.39355 35.0319 5.40441 34.736 5.42106C32.1837 5.56462 29.7636 6.12633 27.5513 7.02885L20.6366 4.24756Z"/>
</mask>
<path fill-rule="evenodd" clip-rule="evenodd" d="M20.6366 4.24756C18.7464 3.48726 16.7419 5.05832 17.0286 7.07542L18.1114 14.6942C16.0587 17.8274 14.9653 21.5267 15.1848 25.4302C15.1945 25.6026 15.2067 25.7744 15.2214 25.9454C16.0923 36.1006 25.6617 43.7502 36.8565 43.1205C48.2398 42.4803 56.9932 33.5219 56.4076 23.1115C56.2592 20.4723 55.5248 17.9932 54.3256 15.773L56.2926 8.59279C56.8309 6.62779 55.0402 4.81696 53.0693 5.33326L45.6142 7.28624C45.4938 7.31778 45.3781 7.35659 45.2676 7.40195C42.391 6.06599 39.1286 5.33719 35.6909 5.38723L35.6202 5.38837C35.3267 5.39355 35.0319 5.40441 34.736 5.42106C32.1837 5.56462 29.7636 6.12633 27.5513 7.02885L20.6366 4.24756Z" fill="#C25757"/>
<path d="M17.0286 7.07542L13.0684 7.63823L13.0684 7.63824L17.0286 7.07542ZM20.6366 4.24756L22.1293 0.53651L22.1293 0.536505L20.6366 4.24756ZM18.1114 14.6942L21.4573 16.8863L22.2838 15.6246L22.0716 14.1314L18.1114 14.6942ZM15.1848 25.4302L19.1785 25.2055V25.2055L15.1848 25.4302ZM15.2214 25.9454L11.236 26.2872V26.2872L15.2214 25.9454ZM36.8565 43.1205L36.6318 39.1269L36.8565 43.1205ZM56.4076 23.1115L52.4139 23.3361V23.3361L56.4076 23.1115ZM54.3256 15.773L50.4678 14.7161L50.0441 16.2629L50.8062 17.6739L54.3256 15.773ZM56.2926 8.59279L60.1505 9.64964L60.1505 9.64962L56.2926 8.59279ZM53.0693 5.33326L52.0557 1.46382L52.0557 1.46382L53.0693 5.33326ZM45.6142 7.28624L46.6275 11.1558L46.6279 11.1557L45.6142 7.28624ZM45.2676 7.40195L43.5827 11.0298L45.1682 11.7661L46.7856 11.1027L45.2676 7.40195ZM35.6909 5.38723L35.6327 1.38765L35.6265 1.38775L35.6909 5.38723ZM35.6202 5.38837L35.5559 1.38888L35.5496 1.38899L35.6202 5.38837ZM34.736 5.42106L34.9606 9.41475V9.41474L34.736 5.42106ZM27.5513 7.02885L26.0586 10.7399L27.5619 11.3446L29.0622 10.7325L27.5513 7.02885ZM20.9888 6.5126C21.1354 7.54407 20.1105 8.34737 19.1439 7.95861L22.1293 0.536505C17.3823 -1.37285 12.3485 2.57257 13.0684 7.63823L20.9888 6.5126ZM22.0716 14.1314L20.9888 6.5126L13.0684 7.63824L14.1512 15.257L22.0716 14.1314ZM19.1785 25.2055C19.01 22.2098 19.843 19.3501 21.4573 16.8863L14.7655 12.5022C12.2743 16.3047 10.9205 20.8437 11.1911 25.6548L19.1785 25.2055ZM19.2068 25.6037C19.1954 25.4716 19.186 25.3389 19.1785 25.2055L11.1911 25.6548C11.203 25.8663 11.218 26.0772 11.236 26.2872L19.2068 25.6037ZM36.6318 39.1269C27.2747 39.6532 19.8664 33.2955 19.2068 25.6036L11.236 26.2872C12.3182 38.9058 24.0486 47.8473 37.0811 47.1142L36.6318 39.1269ZM52.4139 23.3361C52.857 31.2125 46.1529 38.5913 36.6318 39.1269L37.0811 47.1142C50.3268 46.3692 61.1294 35.8313 60.4013 22.8868L52.4139 23.3361ZM50.8062 17.6739C51.7356 19.3947 52.2996 21.3036 52.4139 23.3361L60.4013 22.8868C60.2187 19.6411 59.314 16.5916 57.8451 13.8721L50.8062 17.6739ZM52.4348 7.53593L50.4678 14.7161L58.1835 16.8299L60.1505 9.64964L52.4348 7.53593ZM54.083 9.20269C53.0753 9.46666 52.1595 8.54079 52.4348 7.53595L60.1505 9.64962C61.5024 4.71479 57.0052 0.167253 52.0557 1.46382L54.083 9.20269ZM46.6279 11.1557L54.083 9.20269L52.0557 1.46382L44.6005 3.4168L46.6279 11.1557ZM46.7856 11.1027C46.7316 11.1249 46.6786 11.1424 46.6275 11.1558L44.6009 3.41671C44.309 3.49316 44.0247 3.58832 43.7496 3.70118L46.7856 11.1027ZM35.7491 9.38681C38.583 9.34555 41.2498 9.94632 43.5827 11.0298L46.9524 3.77409C43.5322 2.18566 39.6742 1.32882 35.6327 1.38766L35.7491 9.38681ZM35.6846 9.38785L35.7553 9.38672L35.6265 1.38775L35.5559 1.38889L35.6846 9.38785ZM34.9606 9.41474C35.2052 9.40099 35.4487 9.39202 35.6908 9.38775L35.5496 1.38899C35.2047 1.39508 34.8586 1.40784 34.5113 1.42737L34.9606 9.41474ZM29.0622 10.7325C30.8666 9.99638 32.8522 9.53334 34.9606 9.41475L34.5113 1.42737C31.5151 1.5959 28.6605 2.25629 26.0403 3.3252L29.0622 10.7325ZM19.1439 7.95861L26.0586 10.7399L29.044 3.3178L22.1293 0.53651L19.1439 7.95861Z" fill="#709A69" mask="url(#path-4-outside-1_520_10782)"/>
<path d="M17.0286 7.07553C16.7419 5.05843 18.7464 3.48737 20.6366 4.24767L27.5513 7.02896C29.7636 6.12644 32.1837 5.56473 34.736 5.42117C38.524 5.2081 42.1258 5.94296 45.2676 7.40205C45.3782 7.3567 45.4938 7.31788 45.6142 7.28634L53.0693 5.33336C55.0402 4.81707 56.831 6.6279 56.2927 8.5929L54.3256 15.7731C55.5248 17.9933 56.2592 20.4724 56.4076 23.1116C56.9932 33.522 48.2399 42.4804 36.8565 43.1207C25.4731 43.7609 15.7704 35.8407 15.1848 25.4303C14.9653 21.5268 16.0587 17.8275 18.1114 14.6943L17.0286 7.07553Z" fill="white"/>
<path fill-rule="evenodd" clip-rule="evenodd" d="M23.3589 27.7979C31.6775 27.33 38.0418 20.2071 37.5739 11.8885C37.441 9.52672 36.7717 7.32244 35.6909 5.38734C35.374 5.39195 35.0557 5.40318 34.736 5.42117C32.1837 5.56473 29.7636 6.12644 27.5513 7.02896L20.6366 4.24767C18.7464 3.48737 16.7419 5.05843 17.0286 7.07553L18.1114 14.6943C16.0587 17.8275 14.9653 21.5268 15.1848 25.4303C15.1945 25.6027 15.2067 25.7745 15.2214 25.9455C17.6232 27.274 20.4162 27.9635 23.3589 27.7979Z" fill="#FFB800"/>
<path d="M24.4963 18.1467C24.4865 17.7582 24.7934 17.4352 25.182 17.4253L30.6092 17.2876C30.9978 17.2777 31.3207 17.5847 31.3306 17.9733C31.3405 18.3618 31.0335 18.6848 30.6449 18.6947L25.2177 18.8324C24.8292 18.8423 24.5062 18.5353 24.4963 18.1467Z" fill="black"/>
<path d="M41.8898 18.1009C41.9334 17.7147 42.2819 17.4369 42.6681 17.4806L48.0627 18.0901C48.449 18.1338 48.7267 18.4822 48.683 18.8685C48.6394 19.2547 48.2909 19.5324 47.9047 19.4887L42.5101 18.8792C42.1238 18.8355 41.8461 18.4871 41.8898 18.1009Z" fill="black"/>
<path d="M33.9492 20.586C33.9523 20.0308 34.405 19.5832 34.9603 19.5864L38.3785 19.6059C38.9337 19.6091 39.3812 20.0618 39.3781 20.617L39.3763 20.9186C39.3678 22.4178 38.1455 23.6261 36.6464 23.6176C35.1472 23.609 33.9389 22.3868 33.9474 20.8876L33.9492 20.586Z" fill="#C25757"/>
</svg>
