<svg width="27" height="28" viewBox="0 0 27 28" fill="none" xmlns="http://www.w3.org/2000/svg">
<path d="M7.51782 18.8218C5.06975 16.3737 4.88075 12.5936 7.09566 10.3787L10.304 7.17034C12.5189 4.95542 16.299 5.14443 18.7471 7.59249C21.1952 10.0406 21.3842 13.8206 19.1692 16.0356L15.9609 19.2439C13.746 21.4588 9.96588 21.2698 7.51782 18.8218Z" fill="#5D80DB"/>
<path fill-rule="evenodd" clip-rule="evenodd" d="M3.55341 17.2637C4.34627 17.1796 5.07032 17.6792 5.44754 18.3816C5.77789 18.9968 6.20389 19.5762 6.72516 20.0975C7.24645 20.6188 7.82593 21.0448 8.44111 21.3751C9.14355 21.7524 9.64311 22.4764 9.55905 23.2693L9.36565 25.0936C9.21746 26.4913 7.5152 27.0933 6.52129 26.0994L0.723383 20.3014C-0.270526 19.3075 0.331411 17.6053 1.72918 17.4571L3.55341 17.2637Z" fill="#5D80DB"/>
<path fill-rule="evenodd" clip-rule="evenodd" d="M17.0359 3.78094C16.9518 4.5738 17.4514 5.29786 18.1538 5.67508C18.769 6.00543 19.3484 6.43144 19.8697 6.95273C20.3911 7.47405 20.8171 8.05356 21.1475 8.66878C21.5247 9.37124 22.2487 9.87081 23.0416 9.78675L24.8657 9.59337C26.2635 9.44518 26.8654 7.74292 25.8715 6.74901L20.0736 0.951105C19.0797 -0.0428041 17.3774 0.559133 17.2292 1.9569L17.0359 3.78094Z" fill="#5D80DB"/>
</svg>
