<svg width="140" height="46" viewBox="0 0 140 46" fill="none" xmlns="http://www.w3.org/2000/svg">
<rect width="140" height="46" rx="16" fill="#4F5DDB"/>
<path d="M53.6719 25.7344L53.5859 22.7891H53.9609L58.125 17.7266H60.75L56.4922 22.8438L55.0859 24.0312L53.6719 25.7344ZM51.4609 29V17.7266H53.8203V29H51.4609ZM58.2109 29L54.8125 24.0156L56.5078 22.4688L61.0391 29H58.2109ZM62.6094 29V20.3984H64.8906V29H62.6094ZM63.7578 19.0781C63.4089 19.0781 63.1068 18.9557 62.8516 18.7109C62.5964 18.4609 62.4688 18.1615 62.4688 17.8125C62.4688 17.4583 62.5964 17.1589 62.8516 16.9141C63.1068 16.6641 63.4089 16.5391 63.7578 16.5391C64.112 16.5391 64.4141 16.6641 64.6641 16.9141C64.9141 17.1589 65.0391 17.4583 65.0391 17.8125C65.0391 18.1615 64.9141 18.4609 64.6641 18.7109C64.4141 18.9557 64.112 19.0781 63.7578 19.0781ZM70.7578 29.0312C69.7161 29.0312 68.9661 28.849 68.5078 28.4844C68.0495 28.1146 67.8203 27.513 67.8203 26.6797V22.1172H66.4922V20.3984H67.8203V18.3438H70.125V20.3984H71.8984V22.1172H70.125V26.1562C70.125 26.5417 70.2109 26.8255 70.3828 27.0078C70.5599 27.1849 70.8411 27.2734 71.2266 27.2734C71.3724 27.2734 71.4922 27.2708 71.5859 27.2656C71.6849 27.2552 71.7891 27.2448 71.8984 27.2344V28.9297C71.7578 28.9557 71.5885 28.9792 71.3906 29C71.1927 29.0208 70.9818 29.0312 70.7578 29.0312ZM77.4453 29.0312C76.4036 29.0312 75.6536 28.849 75.1953 28.4844C74.737 28.1146 74.5078 27.513 74.5078 26.6797V22.1172H73.1797V20.3984H74.5078V18.3438H76.8125V20.3984H78.5859V22.1172H76.8125V26.1562C76.8125 26.5417 76.8984 26.8255 77.0703 27.0078C77.2474 27.1849 77.5286 27.2734 77.9141 27.2734C78.0599 27.2734 78.1797 27.2708 78.2734 27.2656C78.3724 27.2552 78.4766 27.2448 78.5859 27.2344V28.9297C78.4453 28.9557 78.276 28.9792 78.0781 29C77.8802 29.0208 77.6693 29.0312 77.4453 29.0312ZM81.5078 32.0312C81.3776 32.0312 81.2422 32.0286 81.1016 32.0234C80.9609 32.0182 80.8229 32.013 80.6875 32.0078V30.2891C80.7656 30.2995 80.8568 30.3047 80.9609 30.3047C81.0703 30.3099 81.1771 30.3125 81.2812 30.3125C81.6875 30.3125 82.0104 30.2318 82.25 30.0703C82.4896 29.9089 82.6484 29.6615 82.7266 29.3281L82.8047 29L79.7812 20.3984H82.2891L84.3438 27.8203L83.8203 26.9141H84.5L84 27.8203L86.0547 20.3984H88.4609L85.5312 28.9922C85.2812 29.7474 84.9766 30.3464 84.6172 30.7891C84.263 31.237 83.8333 31.5547 83.3281 31.7422C82.8229 31.9349 82.2161 32.0312 81.5078 32.0312Z" fill="white"/>
</svg>
