<svg width="48" height="48" viewBox="0 0 48 48" fill="none" xmlns="http://www.w3.org/2000/svg">
<rect width="48" height="48" rx="16" fill="white"/>
<path d="M28.9954 31.8851C29.242 32.1317 29.3805 32.4661 29.3805 32.8148C29.3805 33.1635 29.242 33.4979 28.9954 33.7445C28.7488 33.991 28.4144 34.1296 28.0657 34.1296C27.717 34.1296 27.3826 33.991 27.136 33.7445L18.386 24.9945C18.2637 24.8725 18.1666 24.7276 18.1003 24.5681C18.0341 24.4086 18 24.2375 18 24.0648C18 23.892 18.0341 23.721 18.1003 23.5615C18.1666 23.4019 18.2637 23.257 18.386 23.1351L27.136 14.3851C27.3826 14.1385 27.717 14 28.0657 14C28.4144 14 28.7488 14.1385 28.9954 14.3851C29.242 14.6317 29.3805 14.9661 29.3805 15.3148C29.3805 15.6635 29.242 15.9979 28.9954 16.2445L21.1762 24.0637L28.9954 31.8851Z" fill="black"/>
</svg>
